  0
SECTION
  2
HEADER
  9
$ACADVER
  1
AC1024
  9
$ACADMAINTVER
 70
6
  9
$DWGCODEPAGE
  3
ANSI_1252
  9
$LASTSAVEDBY
  1
ezdxf
  9
$INSBASE
 10
0.0
 20
0.0
 30
0.0
  9
$EXTMIN
 10
1e+20
 20
1e+20
 30
1e+20
  9
$EXTMAX
 10
-1e+20
 20
-1e+20
 30
-1e+20
  9
$LIMMIN
 10
0.0
 20
0.0
  9
$LIMMAX
 10
420.0
 20
297.0
  9
$ORTHOMODE
 70
0
  9
$REGENMODE
 70
1
  9
$FILLMODE
 70
1
  9
$QTEXTMODE
 70
0
  9
$MIRRTEXT
 70
1
  9
$LTSCALE
 40
1.0
  9
$ATTMODE
 70
1
  9
$TEXTSIZE
 40
2.5
  9
$TRACEWID
 40
1.0
  9
$TEXTSTYLE
  7
Standard
  9
$CLAYER
  8
0
  9
$CELTYPE
  6
ByLayer
  9
$CECOLOR
 62
256
  9
$CELTSCALE
 40
1.0
  9
$DISPSILH
 70
0
  9
$DIMSCALE
 40
1.0
  9
$DIMASZ
 40
2.5
  9
$DIMEXO
 40
0.625
  9
$DIMDLI
 40
3.75
  9
$DIMRND
 40
0.0
  9
$DIMDLE
 40
0.0
  9
$DIMEXE
 40
1.25
  9
$DIMTP
 40
0.0
  9
$DIMTM
 40
0.0
  9
$DIMTXT
 40
2.5
  9
$DIMCEN
 40
2.5
  9
$DIMTSZ
 40
0.0
  9
$DIMTOL
 70
0
  9
$DIMLIM
 70
0
  9
$DIMTIH
 70
0
  9
$DIMTOH
 70
0
  9
$DIMSE1
 70
0
  9
$DIMSE2
 70
0
  9
$DIMTAD
 70
1
  9
$DIMZIN
 70
8
  9
$DIMBLK
  1

  9
$DIMASO
 70
1
  9
$DIMSHO
 70
1
  9
$DIMPOST
  1

  9
$DIMAPOST
  1

  9
$DIMALT
 70
0
  9
$DIMALTD
 70
3
  9
$DIMALTF
 40
0.03937007874
  9
$DIMLFAC
 40
1.0
  9
$DIMTOFL
 70
1
  9
$DIMTVP
 40
0.0
  9
$DIMTIX
 70
0
  9
$DIMSOXD
 70
0
  9
$DIMSAH
 70
0
  9
$DIMBLK1
  1

  9
$DIMBLK2
  1

  9
$DIMSTYLE
  2
ISO-25
  9
$DIMCLRD
 70
0
  9
$DIMCLRE
 70
0
  9
$DIMCLRT
 70
0
  9
$DIMTFAC
 40
1.0
  9
$DIMGAP
 40
0.625
  9
$DIMJUST
 70
0
  9
$DIMSD1
 70
0
  9
$DIMSD2
 70
0
  9
$DIMTOLJ
 70
0
  9
$DIMTZIN
 70
8
  9
$DIMALTZ
 70
0
  9
$DIMALTTZ
 70
0
  9
$DIMUPT
 70
0
  9
$DIMDEC
 70
2
  9
$DIMTDEC
 70
2
  9
$DIMALTU
 70
2
  9
$DIMALTTD
 70
3
  9
$DIMTXSTY
  7
Standard
  9
$DIMAUNIT
 70
0
  9
$DIMADEC
 70
0
  9
$DIMALTRND
 40
0.0
  9
$DIMAZIN
 70
0
  9
$DIMDSEP
 70
44
  9
$DIMATFIT
 70
3
  9
$DIMFRAC
 70
0
  9
$DIMLDRBLK
  1

  9
$DIMLUNIT
 70
2
  9
$DIMLWD
 70
-2
  9
$DIMLWE
 70
-2
  9
$DIMTMOVE
 70
0
  9
$DIMFXL
 40
1.0
  9
$DIMFXLON
 70
0
  9
$DIMJOGANG
 40
0.785398163397
  9
$DIMTFILL
 70
0
  9
$DIMTFILLCLR
 70
0
  9
$DIMARCSYM
 70
0
  9
$DIMLTYPE
  6

  9
$DIMLTEX1
  6

  9
$DIMLTEX2
  6

  9
$DIMTXTDIRECTION
 70
0
  9
$LUNITS
 70
2
  9
$LUPREC
 70
4
  9
$SKETCHINC
 40
1.0
  9
$FILLETRAD
 40
10.0
  9
$AUNITS
 70
0
  9
$AUPREC
 70
2
  9
$MENU
  1
.
  9
$ELEVATION
 40
0.0
  9
$PELEVATION
 40
0.0
  9
$THICKNESS
 40
0.0
  9
$LIMCHECK
 70
0
  9
$CHAMFERA
 40
0.0
  9
$CHAMFERB
 40
0.0
  9
$CHAMFERC
 40
0.0
  9
$CHAMFERD
 40
0.0
  9
$SKPOLY
 70
0
  9
$TDCREATE
 40
2460824.473263889
  9
$TDUCREATE
 40
2458532.153996898
  9
$TDUPDATE
 40
2460824.473263889
  9
$TDUUPDATE
 40
2458532.1544311
  9
$TDINDWG
 40
0.0
  9
$TDUSRTIMER
 40
0.0
  9
$USRTIMER
 70
1
  9
$ANGBASE
 50
0.0
  9
$ANGDIR
 70
0
  9
$PDMODE
 70
0
  9
$PDSIZE
 40
0.0
  9
$PLINEWID
 40
0.0
  9
$SPLFRAME
 70
0
  9
$SPLINETYPE
 70
6
  9
$SPLINESEGS
 70
8
  9
$HANDSEED
  5
486
  9
$SURFTAB1
 70
6
  9
$SURFTAB2
 70
6
  9
$SURFTYPE
 70
6
  9
$SURFU
 70
6
  9
$SURFV
 70
6
  9
$UCSBASE
  2

  9
$UCSNAME
  2

  9
$UCSORG
 10
0.0
 20
0.0
 30
0.0
  9
$UCSXDIR
 10
1.0
 20
0.0
 30
0.0
  9
$UCSYDIR
 10
0.0
 20
1.0
 30
0.0
  9
$UCSORTHOREF
  2

  9
$UCSORTHOVIEW
 70
0
  9
$UCSORGTOP
 10
0.0
 20
0.0
 30
0.0
  9
$UCSORGBOTTOM
 10
0.0
 20
0.0
 30
0.0
  9
$UCSORGLEFT
 10
0.0
 20
0.0
 30
0.0
  9
$UCSORGRIGHT
 10
0.0
 20
0.0
 30
0.0
  9
$UCSORGFRONT
 10
0.0
 20
0.0
 30
0.0
  9
$UCSORGBACK
 10
0.0
 20
0.0
 30
0.0
  9
$PUCSBASE
  2

  9
$PUCSNAME
  2

  9
$PUCSORG
 10
0.0
 20
0.0
 30
0.0
  9
$PUCSXDIR
 10
1.0
 20
0.0
 30
0.0
  9
$PUCSYDIR
 10
0.0
 20
1.0
 30
0.0
  9
$PUCSORTHOREF
  2

  9
$PUCSORTHOVIEW
 70
0
  9
$PUCSORGTOP
 10
0.0
 20
0.0
 30
0.0
  9
$PUCSORGBOTTOM
 10
0.0
 20
0.0
 30
0.0
  9
$PUCSORGLEFT
 10
0.0
 20
0.0
 30
0.0
  9
$PUCSORGRIGHT
 10
0.0
 20
0.0
 30
0.0
  9
$PUCSORGFRONT
 10
0.0
 20
0.0
 30
0.0
  9
$PUCSORGBACK
 10
0.0
 20
0.0
 30
0.0
  9
$USERI1
 70
0
  9
$USERI2
 70
0
  9
$USERI3
 70
0
  9
$USERI4
 70
0
  9
$USERI5
 70
0
  9
$USERR1
 40
0.0
  9
$USERR2
 40
0.0
  9
$USERR3
 40
0.0
  9
$USERR4
 40
0.0
  9
$USERR5
 40
0.0
  9
$WORLDVIEW
 70
1
  9
$SHADEDGE
 70
3
  9
$SHADEDIF
 70
70
  9
$TILEMODE
 70
1
  9
$MAXACTVP
 70
64
  9
$PINSBASE
 10
0.0
 20
0.0
 30
0.0
  9
$PLIMCHECK
 70
0
  9
$PEXTMIN
 10
1e+20
 20
1e+20
 30
1e+20
  9
$PEXTMAX
 10
-1e+20
 20
-1e+20
 30
-1e+20
  9
$PLIMMIN
 10
0.0
 20
0.0
  9
$PLIMMAX
 10
420.0
 20
297.0
  9
$UNITMODE
 70
0
  9
$VISRETAIN
 70
1
  9
$PLINEGEN
 70
0
  9
$PSLTSCALE
 70
1
  9
$TREEDEPTH
 70
3020
  9
$CMLSTYLE
  2
Standard
  9
$CMLJUST
 70
0
  9
$CMLSCALE
 40
20.0
  9
$PROXYGRAPHICS
 70
1
  9
$MEASUREMENT
 70
1
  9
$CELWEIGHT
370
-1
  9
$ENDCAPS
280
0
  9
$JOINSTYLE
280
0
  9
$LWDISPLAY
290
0
  9
$INSUNITS
 70
6
  9
$HYPERLINKBASE
  1

  9
$STYLESHEET
  1

  9
$XEDIT
290
1
  9
$CEPSNTYPE
380
0
  9
$PSTYLEMODE
290
1
  9
$FINGERPRINTGUID
  2
{358C5CBE-8DAE-44FA-B766-8CFD5E0F8F52}
  9
$VERSIONGUID
  2
{44692F3A-AB36-4151-BAF3-089415F687EA}
  9
$EXTNAMES
290
1
  9
$PSVPSCALE
 40
0.0
  9
$OLESTARTUP
290
0
  9
$SORTENTS
280
127
  9
$INDEXCTL
280
0
  9
$HIDETEXT
280
1
  9
$XCLIPFRAME
280
0
  9
$HALOGAP
280
0
  9
$OBSCOLOR
 70
257
  9
$OBSLTYPE
280
0
  9
$INTERSECTIONDISPLAY
280
0
  9
$INTERSECTIONCOLOR
 70
257
  9
$DIMASSOC
280
2
  9
$PROJECTNAME
  1

  9
$CAMERADISPLAY
290
0
  9
$LENSLENGTH
 40
50.0
  9
$CAMERAHEIGHT
 40
0.0
  9
$STEPSPERSEC
 40
24.0
  9
$STEPSIZE
 40
100.0
  9
$3DDWFPREC
 40
2.0
  9
$PSOLWIDTH
 40
0.005
  9
$PSOLHEIGHT
 40
0.08
  9
$LOFTANG1
 40
1.570796326795
  9
$LOFTANG2
 40
1.570796326795
  9
$LOFTMAG1
 40
0.0
  9
$LOFTMAG2
 40
0.0
  9
$LOFTPARAM
 70
7
  9
$LOFTNORMALS
280
1
  9
$LATITUDE
 40
37.795
  9
$LONGITUDE
 40
-122.394
  9
$NORTHDIRECTION
 40
0.0
  9
$TIMEZONE
 70
-8000
  9
$LIGHTGLYPHDISPLAY
280
1
  9
$TILEMODELIGHTSYNCH
280
1
  9
$CMATERIAL
347
20
  9
$SOLIDHIST
280
0
  9
$SHOWHIST
280
1
  9
$DWFFRAME
280
2
  9
$DGNFRAME
280
2
  9
$REALWORLDSCALE
290
1
  9
$INTERFERECOLOR
 62
256
  9
$CSHADOW
280
0
  9
$SHADOWPLANELOCATION
 40
0.0
  0
ENDSEC
  0
SECTION
  2
CLASSES
  0
CLASS
  1
ACDBDICTIONARYWDFLT
  2
AcDbDictionaryWithDefault
  3
ObjectDBX Classes
 90
0
 91
0
280
0
281
0
  0
CLASS
  1
SUN
  2
AcDbSun
  3
SCENEOE
 90
1153
 91
0
280
0
281
0
  0
CLASS
  1
VISUALSTYLE
  2
AcDbVisualStyle
  3
ObjectDBX Classes
 90
4095
 91
0
280
0
281
0
  0
CLASS
  1
MATERIAL
  2
AcDbMaterial
  3
ObjectDBX Classes
 90
1153
 91
0
280
0
281
0
  0
CLASS
  1
SCALE
  2
AcDbScale
  3
ObjectDBX Classes
 90
1153
 91
0
280
0
281
0
  0
CLASS
  1
TABLESTYLE
  2
AcDbTableStyle
  3
ObjectDBX Classes
 90
4095
 91
0
280
0
281
0
  0
CLASS
  1
MLEADERSTYLE
  2
AcDbMLeaderStyle
  3
ACDB_MLEADERSTYLE_CLASS
 90
4095
 91
0
280
0
281
0
  0
CLASS
  1
DICTIONARYVAR
  2
AcDbDictionaryVar
  3
ObjectDBX Classes
 90
0
 91
0
280
0
281
0
  0
CLASS
  1
CELLSTYLEMAP
  2
AcDbCellStyleMap
  3
ObjectDBX Classes
 90
1152
 91
0
280
0
281
0
  0
CLASS
  1
MENTALRAYRENDERSETTINGS
  2
AcDbMentalRayRenderSettings
  3
SCENEOE
 90
1024
 91
0
280
0
281
0
  0
CLASS
  1
ACDBDETAILVIEWSTYLE
  2
AcDbDetailViewStyle
  3
ObjectDBX Classes
 90
1025
 91
0
280
0
281
0
  0
CLASS
  1
ACDBSECTIONVIEWSTYLE
  2
AcDbSectionViewStyle
  3
ObjectDBX Classes
 90
1025
 91
0
280
0
281
0
  0
CLASS
  1
RASTERVARIABLES
  2
AcDbRasterVariables
  3
ISM
 90
0
 91
0
280
0
281
0
  0
CLASS
  1
LAYOUT
  2
AcDbLayout
  3
ObjectDBX Classes
 90
0
 91
0
280
0
281
0
  0
CLASS
  1
ACDBPLACEHOLDER
  2
AcDbPlaceHolder
  3
ObjectDBX Classes
 90
0
 91
0
280
0
281
0
  0
ENDSEC
  0
SECTION
  2
TABLES
  0
TABLE
  2
VPORT
  5
8
330
0
100
AcDbSymbolTable
 70
1
  0
VPORT
  5
23
330
8
100
AcDbSymbolTableRecord
100
AcDbViewportTableRecord
  2
*Active
 70
0
 10
0.0
 20
0.0
 11
1.0
 21
1.0
 12
0.0
 22
0.0
 13
0.0
 23
0.0
 14
0.5
 24
0.5
 15
0.5
 25
0.5
 16
0.0
 26
0.0
 36
1.0
 17
0.0
 27
0.0
 37
0.0
 40
1000.0
 41
1.34
 42
50.0
 43
0.0
 44
0.0
 50
0.0
 51
0.0
 71
0
 72
1000
 73
1
 74
3
 75
0
 76
0
 77
0
 78
0
281
0
 65
0
146
0.0
  0
ENDTAB
  0
TABLE
  2
LTYPE
  5
2
330
0
100
AcDbSymbolTable
 70
3
  0
LTYPE
  5
24
330
2
100
AcDbSymbolTableRecord
100
AcDbLinetypeTableRecord
  2
ByBlock
 70
0
  3

 72
65
 73
0
 40
0.0
  0
LTYPE
  5
25
330
2
100
AcDbSymbolTableRecord
100
AcDbLinetypeTableRecord
  2
ByLayer
 70
0
  3

 72
65
 73
0
 40
0.0
  0
LTYPE
  5
26
330
2
100
AcDbSymbolTableRecord
100
AcDbLinetypeTableRecord
  2
Continuous
 70
0
  3

 72
65
 73
0
 40
0.0
  0
ENDTAB
  0
TABLE
  2
LAYER
  5
1
330
0
100
AcDbSymbolTable
 70
2
  0
LAYER
  5
27
330
1
100
AcDbSymbolTableRecord
100
AcDbLayerTableRecord
  2
0
 70
0
 62
7
  6
Continuous
370
-3
390
13
347
21
  0
LAYER
  5
28
330
1
100
AcDbSymbolTableRecord
100
AcDbLayerTableRecord
  2
Defpoints
 70
0
 62
7
  6
Continuous
290
0
370
-3
390
13
347
21
  0
ENDTAB
  0
TABLE
  2
STYLE
  5
5
330
0
100
AcDbSymbolTable
 70
1
  0
STYLE
  5
29
330
5
100
AcDbSymbolTableRecord
100
AcDbTextStyleTableRecord
  2
Standard
 70
0
 40
0.0
 41
1.0
 50
0.0
 71
0
 42
2.5
  3
txt
  4

  0
ENDTAB
  0
TABLE
  2
VIEW
  5
7
330
0
100
AcDbSymbolTable
 70
0
  0
ENDTAB
  0
TABLE
  2
UCS
  5
6
330
0
100
AcDbSymbolTable
 70
0
  0
ENDTAB
  0
TABLE
  2
APPID
  5
3
330
0
100
AcDbSymbolTable
 70
3
  0
APPID
  5
2A
330
3
100
AcDbSymbolTableRecord
100
AcDbRegAppTableRecord
  2
ACAD
 70
0
  0
APPID
  5
483
330
3
100
AcDbSymbolTableRecord
100
AcDbRegAppTableRecord
  2
HATCHBACKGROUNDCOLOR
 70
0
  0
APPID
  5
484
330
3
100
AcDbSymbolTableRecord
100
AcDbRegAppTableRecord
  2
EZDXF
 70
0
  0
ENDTAB
  0
TABLE
  2
DIMSTYLE
  5
4
330
0
100
AcDbSymbolTable
 70
1
100
AcDbDimStyleTable
  0
DIMSTYLE
105
2B
330
4
100
AcDbSymbolTableRecord
100
AcDbDimStyleTableRecord
  2
Standard
 70
0
 40
1.0
 41
2.5
 42
0.625
 43
3.75
 44
1.25
 45
0.0
 46
0.0
 47
0.0
 48
0.0
 49
2.5
140
2.5
141
2.5
142
0.0
143
0.03937007874
144
1.0
145
0.0
146
1.0
147
0.625
148
0.0
 69
0
 70
0
 71
0
 72
0
 73
0
 74
0
 75
0
 76
0
 77
1
 78
8
 79
3
170
0
171
3
172
1
173
0
174
0
175
0
176
0
177
0
178
0
179
2
271
2
272
2
273
2
274
3
275
0
276
0
277
2
278
44
279
0
280
0
281
0
282
0
283
0
284
8
285
0
286
0
288
0
289
3
290
0
371
-2
372
-2
  0
ENDTAB
  0
TABLE
  2
BLOCK_RECORD
  5
9
330
0
100
AcDbSymbolTable
 70
2
  0
BLOCK_RECORD
  5
17
330
9
100
AcDbSymbolTableRecord
100
AcDbBlockTableRecord
  2
*Model_Space
340
1A
 70
0
280
1
281
0
  0
BLOCK_RECORD
  5
1B
330
9
100
AcDbSymbolTableRecord
100
AcDbBlockTableRecord
  2
*Paper_Space
340
1E
 70
0
280
1
281
0
  0
ENDTAB
  0
ENDSEC
  0
SECTION
  2
BLOCKS
  0
BLOCK
  5
18
330
17
100
AcDbEntity
  8
0
100
AcDbBlockBegin
  2
*Model_Space
 70
0
 10
0.0
 20
0.0
 30
0.0
  3
*Model_Space
  1

  0
ENDBLK
  5
19
330
17
100
AcDbEntity
  8
0
100
AcDbBlockEnd
  0
BLOCK
  5
1C
330
1B
100
AcDbEntity
  8
0
100
AcDbBlockBegin
  2
*Paper_Space
 70
0
 10
0.0
 20
0.0
 30
0.0
  3
*Paper_Space
  1

  0
ENDBLK
  5
1D
330
1B
100
AcDbEntity
  8
0
100
AcDbBlockEnd
  0
ENDSEC
  0
SECTION
  2
ENTITIES
  0
LWPOLYLINE
  5
2F
330
17
100
AcDbEntity
  8
FRAME
100
AcDbPolyline
 90
5
 70
0
 10
0.0
 20
0.0
 10
420.0
 20
0.0
 10
420.0
 20
297.0
 10
0.0
 20
297.0
 10
0.0
 20
0.0
  0
LWPOLYLINE
  5
30
330
17
100
AcDbEntity
  8
TITLE_BLOCK
100
AcDbPolyline
 90
5
 70
0
 10
294.0
 20
0.0
 10
420.0
 20
0.0
 10
420.0
 20
59.400000000000006
 10
294.0
 20
59.400000000000006
 10
294.0
 20
0.0
  0
LINE
  5
31
330
17
100
AcDbEntity
  8
TITLE_LINES
100
AcDbLine
 10
294.0
 20
14.850000000000001
 30
0.0
 11
420.0
 21
14.850000000000001
 31
0.0
  0
LINE
  5
32
330
17
100
AcDbEntity
  8
TITLE_LINES
100
AcDbLine
 10
294.0
 20
29.700000000000003
 30
0.0
 11
420.0
 21
29.700000000000003
 31
0.0
  0
LINE
  5
33
330
17
100
AcDbEntity
  8
TITLE_LINES
100
AcDbLine
 10
294.0
 20
44.550000000000004
 30
0.0
 11
420.0
 21
44.550000000000004
 31
0.0
  0
LINE
  5
34
330
17
100
AcDbEntity
  8
TITLE_LINES
100
AcDbLine
 10
336.0
 20
0.0
 30
0.0
 11
336.0
 21
59.400000000000006
 31
0.0
  0
LINE
  5
35
330
17
100
AcDbEntity
  8
TITLE_LINES
100
AcDbLine
 10
378.0
 20
0.0
 30
0.0
 11
378.0
 21
59.400000000000006
 31
0.0
  0
TEXT
  5
36
330
17
100
AcDbEntity
  8
TEXT
100
AcDbText
 10
304.0
 20
44.400000000000006
 30
0.0
 40
8.0
  1
A-01
100
AcDbText
  0
TEXT
  5
37
330
17
100
AcDbEntity
  8
TEXT
100
AcDbText
 10
304.0
 20
24.400000000000006
 30
0.0
 40
8.0
  1
建筑平面图
100
AcDbText
  0
TEXT
  5
38
330
17
100
AcDbEntity
  8
TEXT
100
AcDbText
 10
304.0
 20
9.400000000000006
 30
0.0
 40
6.0
  1
1:100
100
AcDbText
  0
TEXT
  5
39
330
17
100
AcDbEntity
  8
TEXT
100
AcDbText
 10
344.4
 20
44.400000000000006
 30
0.0
 40
6.0
  1
设计:
100
AcDbText
  0
TEXT
  5
3A
330
17
100
AcDbEntity
  8
TEXT
100
AcDbText
 10
344.4
 20
24.400000000000006
 30
0.0
 40
6.0
  1
审核:
100
AcDbText
  0
TEXT
  5
3B
330
17
100
AcDbEntity
  8
TEXT
100
AcDbText
 10
382.2
 20
44.400000000000006
 30
0.0
 40
6.0
  1
2024.05.28
100
AcDbText
  0
CIRCLE
  5
3C
330
17
100
AcDbEntity
  8
SEAL
100
AcDbCircle
 10
394.8
 20
17.82
 30
0.0
 40
15.0
  0
LWPOLYLINE
  5
3D
330
17
100
AcDbEntity
  8
STAMP
100
AcDbPolyline
 90
5
 70
0
 10
384.8
 20
31.58
 10
404.8
 20
31.58
 10
404.8
 20
51.58
 10
384.8
 20
51.58
 10
384.8
 20
31.58
  0
LINE
  5
3E
330
17
100
AcDbEntity
  8
CONTENT
100
AcDbLine
 10
20.0
 20
20.0
 30
0.0
 11
20.0
 21
277.0
 31
0.0
  0
LINE
  5
3F
330
17
100
AcDbEntity
  8
CONTENT
100
AcDbLine
 10
70.8
 20
20.0
 30
0.0
 11
70.8
 21
277.0
 31
0.0
  0
LINE
  5
40
330
17
100
AcDbEntity
  8
CONTENT
100
AcDbLine
 10
121.6
 20
20.0
 30
0.0
 11
121.6
 21
277.0
 31
0.0
  0
LINE
  5
41
330
17
100
AcDbEntity
  8
CONTENT
100
AcDbLine
 10
172.39999999999998
 20
20.0
 30
0.0
 11
172.39999999999998
 21
277.0
 31
0.0
  0
LINE
  5
42
330
17
100
AcDbEntity
  8
CONTENT
100
AcDbLine
 10
223.2
 20
20.0
 30
0.0
 11
223.2
 21
277.0
 31
0.0
  0
LINE
  5
43
330
17
100
AcDbEntity
  8
CONTENT
100
AcDbLine
 10
20.0
 20
20.0
 30
0.0
 11
274.0
 21
20.0
 31
0.0
  0
LINE
  5
44
330
17
100
AcDbEntity
  8
CONTENT
100
AcDbLine
 10
20.0
 20
105.66666666666667
 30
0.0
 11
274.0
 21
105.66666666666667
 31
0.0
  0
LINE
  5
45
330
17
100
AcDbEntity
  8
CONTENT
100
AcDbLine
 10
20.0
 20
191.33333333333334
 30
0.0
 11
274.0
 21
191.33333333333334
 31
0.0
  0
LWPOLYLINE
  5
46
330
17
100
AcDbEntity
  8
FRAME
100
AcDbPolyline
 90
5
 70
0
 10
470.0
 20
0.0
 10
890.0
 20
0.0
 10
890.0
 20
297.0
 10
470.0
 20
297.0
 10
470.0
 20
0.0
  0
LWPOLYLINE
  5
47
330
17
100
AcDbEntity
  8
TITLE_BLOCK
100
AcDbPolyline
 90
5
 70
0
 10
764.0
 20
0.0
 10
890.0
 20
0.0
 10
890.0
 20
59.400000000000006
 10
764.0
 20
59.400000000000006
 10
764.0
 20
0.0
  0
LINE
  5
48
330
17
100
AcDbEntity
  8
TITLE_LINES
100
AcDbLine
 10
764.0
 20
14.850000000000001
 30
0.0
 11
890.0
 21
14.850000000000001
 31
0.0
  0
LINE
  5
49
330
17
100
AcDbEntity
  8
TITLE_LINES
100
AcDbLine
 10
764.0
 20
29.700000000000003
 30
0.0
 11
890.0
 21
29.700000000000003
 31
0.0
  0
LINE
  5
4A
330
17
100
AcDbEntity
  8
TITLE_LINES
100
AcDbLine
 10
764.0
 20
44.550000000000004
 30
0.0
 11
890.0
 21
44.550000000000004
 31
0.0
  0
LINE
  5
4B
330
17
100
AcDbEntity
  8
TITLE_LINES
100
AcDbLine
 10
806.0
 20
0.0
 30
0.0
 11
806.0
 21
59.400000000000006
 31
0.0
  0
LINE
  5
4C
330
17
100
AcDbEntity
  8
TITLE_LINES
100
AcDbLine
 10
848.0
 20
0.0
 30
0.0
 11
848.0
 21
59.400000000000006
 31
0.0
  0
TEXT
  5
4D
330
17
100
AcDbEntity
  8
TEXT
100
AcDbText
 10
774.0
 20
44.400000000000006
 30
0.0
 40
8.0
  1
S-01
100
AcDbText
  0
TEXT
  5
4E
330
17
100
AcDbEntity
  8
TEXT
100
AcDbText
 10
774.0
 20
24.400000000000006
 30
0.0
 40
8.0
  1
结构平面图
100
AcDbText
  0
TEXT
  5
4F
330
17
100
AcDbEntity
  8
TEXT
100
AcDbText
 10
774.0
 20
9.400000000000006
 30
0.0
 40
6.0
  1
1:100
100
AcDbText
  0
TEXT
  5
50
330
17
100
AcDbEntity
  8
TEXT
100
AcDbText
 10
814.4
 20
44.400000000000006
 30
0.0
 40
6.0
  1
设计:
100
AcDbText
  0
TEXT
  5
51
330
17
100
AcDbEntity
  8
TEXT
100
AcDbText
 10
814.4
 20
24.400000000000006
 30
0.0
 40
6.0
  1
审核:
100
AcDbText
  0
TEXT
  5
52
330
17
100
AcDbEntity
  8
TEXT
100
AcDbText
 10
852.2
 20
44.400000000000006
 30
0.0
 40
6.0
  1
2024.05.28
100
AcDbText
  0
CIRCLE
  5
53
330
17
100
AcDbEntity
  8
SEAL
100
AcDbCircle
 10
864.8
 20
17.82
 30
0.0
 40
15.0
  0
LWPOLYLINE
  5
54
330
17
100
AcDbEntity
  8
STAMP
100
AcDbPolyline
 90
5
 70
0
 10
854.8
 20
31.58
 10
874.8
 20
31.58
 10
874.8
 20
51.58
 10
854.8
 20
51.58
 10
854.8
 20
31.58
  0
LINE
  5
55
330
17
100
AcDbEntity
  8
CONTENT
100
AcDbLine
 10
490.0
 20
20.0
 30
0.0
 11
490.0
 21
277.0
 31
0.0
  0
LINE
  5
56
330
17
100
AcDbEntity
  8
CONTENT
100
AcDbLine
 10
540.8
 20
20.0
 30
0.0
 11
540.8
 21
277.0
 31
0.0
  0
LINE
  5
57
330
17
100
AcDbEntity
  8
CONTENT
100
AcDbLine
 10
591.6
 20
20.0
 30
0.0
 11
591.6
 21
277.0
 31
0.0
  0
LINE
  5
58
330
17
100
AcDbEntity
  8
CONTENT
100
AcDbLine
 10
642.4
 20
20.0
 30
0.0
 11
642.4
 21
277.0
 31
0.0
  0
LINE
  5
59
330
17
100
AcDbEntity
  8
CONTENT
100
AcDbLine
 10
693.2
 20
20.0
 30
0.0
 11
693.2
 21
277.0
 31
0.0
  0
LINE
  5
5A
330
17
100
AcDbEntity
  8
CONTENT
100
AcDbLine
 10
490.0
 20
20.0
 30
0.0
 11
744.0
 21
20.0
 31
0.0
  0
LINE
  5
5B
330
17
100
AcDbEntity
  8
CONTENT
100
AcDbLine
 10
490.0
 20
105.66666666666667
 30
0.0
 11
744.0
 21
105.66666666666667
 31
0.0
  0
LINE
  5
5C
330
17
100
AcDbEntity
  8
CONTENT
100
AcDbLine
 10
490.0
 20
191.33333333333334
 30
0.0
 11
744.0
 21
191.33333333333334
 31
0.0
  0
LWPOLYLINE
  5
5D
330
17
100
AcDbEntity
  8
FRAME
100
AcDbPolyline
 90
5
 70
0
 10
940.0
 20
0.0
 10
1360.0
 20
0.0
 10
1360.0
 20
297.0
 10
940.0
 20
297.0
 10
940.0
 20
0.0
  0
LWPOLYLINE
  5
5E
330
17
100
AcDbEntity
  8
TITLE_BLOCK
100
AcDbPolyline
 90
5
 70
0
 10
1234.0
 20
0.0
 10
1360.0
 20
0.0
 10
1360.0
 20
59.400000000000006
 10
1234.0
 20
59.400000000000006
 10
1234.0
 20
0.0
  0
LINE
  5
5F
330
17
100
AcDbEntity
  8
TITLE_LINES
100
AcDbLine
 10
1234.0
 20
14.850000000000001
 30
0.0
 11
1360.0
 21
14.850000000000001
 31
0.0
  0
LINE
  5
60
330
17
100
AcDbEntity
  8
TITLE_LINES
100
AcDbLine
 10
1234.0
 20
29.700000000000003
 30
0.0
 11
1360.0
 21
29.700000000000003
 31
0.0
  0
LINE
  5
61
330
17
100
AcDbEntity
  8
TITLE_LINES
100
AcDbLine
 10
1234.0
 20
44.550000000000004
 30
0.0
 11
1360.0
 21
44.550000000000004
 31
0.0
  0
LINE
  5
62
330
17
100
AcDbEntity
  8
TITLE_LINES
100
AcDbLine
 10
1276.0
 20
0.0
 30
0.0
 11
1276.0
 21
59.400000000000006
 31
0.0
  0
LINE
  5
63
330
17
100
AcDbEntity
  8
TITLE_LINES
100
AcDbLine
 10
1318.0
 20
0.0
 30
0.0
 11
1318.0
 21
59.400000000000006
 31
0.0
  0
TEXT
  5
64
330
17
100
AcDbEntity
  8
TEXT
100
AcDbText
 10
1244.0
 20
44.400000000000006
 30
0.0
 40
8.0
  1
W-01
100
AcDbText
  0
TEXT
  5
65
330
17
100
AcDbEntity
  8
TEXT
100
AcDbText
 10
1244.0
 20
24.400000000000006
 30
0.0
 40
8.0
  1
给排水平面图
100
AcDbText
  0
TEXT
  5
66
330
17
100
AcDbEntity
  8
TEXT
100
AcDbText
 10
1244.0
 20
9.400000000000006
 30
0.0
 40
6.0
  1
1:100
100
AcDbText
  0
TEXT
  5
67
330
17
100
AcDbEntity
  8
TEXT
100
AcDbText
 10
1284.4
 20
44.400000000000006
 30
0.0
 40
6.0
  1
设计:
100
AcDbText
  0
TEXT
  5
68
330
17
100
AcDbEntity
  8
TEXT
100
AcDbText
 10
1284.4
 20
24.400000000000006
 30
0.0
 40
6.0
  1
审核:
100
AcDbText
  0
TEXT
  5
69
330
17
100
AcDbEntity
  8
TEXT
100
AcDbText
 10
1322.2
 20
44.400000000000006
 30
0.0
 40
6.0
  1
2024.05.28
100
AcDbText
  0
CIRCLE
  5
6A
330
17
100
AcDbEntity
  8
SEAL
100
AcDbCircle
 10
1334.8
 20
17.82
 30
0.0
 40
15.0
  0
LWPOLYLINE
  5
6B
330
17
100
AcDbEntity
  8
STAMP
100
AcDbPolyline
 90
5
 70
0
 10
1324.8
 20
31.58
 10
1344.8
 20
31.58
 10
1344.8
 20
51.58
 10
1324.8
 20
51.58
 10
1324.8
 20
31.58
  0
LINE
  5
6C
330
17
100
AcDbEntity
  8
CONTENT
100
AcDbLine
 10
960.0
 20
20.0
 30
0.0
 11
960.0
 21
277.0
 31
0.0
  0
LINE
  5
6D
330
17
100
AcDbEntity
  8
CONTENT
100
AcDbLine
 10
1010.8
 20
20.0
 30
0.0
 11
1010.8
 21
277.0
 31
0.0
  0
LINE
  5
6E
330
17
100
AcDbEntity
  8
CONTENT
100
AcDbLine
 10
1061.6
 20
20.0
 30
0.0
 11
1061.6
 21
277.0
 31
0.0
  0
LINE
  5
6F
330
17
100
AcDbEntity
  8
CONTENT
100
AcDbLine
 10
1112.4
 20
20.0
 30
0.0
 11
1112.4
 21
277.0
 31
0.0
  0
LINE
  5
70
330
17
100
AcDbEntity
  8
CONTENT
100
AcDbLine
 10
1163.2
 20
20.0
 30
0.0
 11
1163.2
 21
277.0
 31
0.0
  0
LINE
  5
71
330
17
100
AcDbEntity
  8
CONTENT
100
AcDbLine
 10
960.0
 20
20.0
 30
0.0
 11
1214.0
 21
20.0
 31
0.0
  0
LINE
  5
72
330
17
100
AcDbEntity
  8
CONTENT
100
AcDbLine
 10
960.0
 20
105.66666666666667
 30
0.0
 11
1214.0
 21
105.66666666666667
 31
0.0
  0
LINE
  5
73
330
17
100
AcDbEntity
  8
CONTENT
100
AcDbLine
 10
960.0
 20
191.33333333333334
 30
0.0
 11
1214.0
 21
191.33333333333334
 31
0.0
  0
LWPOLYLINE
  5
74
330
17
100
AcDbEntity
  8
FRAME
100
AcDbPolyline
 90
5
 70
0
 10
1410.0
 20
0.0
 10
1830.0
 20
0.0
 10
1830.0
 20
297.0
 10
1410.0
 20
297.0
 10
1410.0
 20
0.0
  0
LWPOLYLINE
  5
75
330
17
100
AcDbEntity
  8
TITLE_BLOCK
100
AcDbPolyline
 90
5
 70
0
 10
1704.0
 20
0.0
 10
1830.0
 20
0.0
 10
1830.0
 20
59.400000000000006
 10
1704.0
 20
59.400000000000006
 10
1704.0
 20
0.0
  0
LINE
  5
76
330
17
100
AcDbEntity
  8
TITLE_LINES
100
AcDbLine
 10
1704.0
 20
14.850000000000001
 30
0.0
 11
1830.0
 21
14.850000000000001
 31
0.0
  0
LINE
  5
77
330
17
100
AcDbEntity
  8
TITLE_LINES
100
AcDbLine
 10
1704.0
 20
29.700000000000003
 30
0.0
 11
1830.0
 21
29.700000000000003
 31
0.0
  0
LINE
  5
78
330
17
100
AcDbEntity
  8
TITLE_LINES
100
AcDbLine
 10
1704.0
 20
44.550000000000004
 30
0.0
 11
1830.0
 21
44.550000000000004
 31
0.0
  0
LINE
  5
79
330
17
100
AcDbEntity
  8
TITLE_LINES
100
AcDbLine
 10
1746.0
 20
0.0
 30
0.0
 11
1746.0
 21
59.400000000000006
 31
0.0
  0
LINE
  5
7A
330
17
100
AcDbEntity
  8
TITLE_LINES
100
AcDbLine
 10
1788.0
 20
0.0
 30
0.0
 11
1788.0
 21
59.400000000000006
 31
0.0
  0
TEXT
  5
7B
330
17
100
AcDbEntity
  8
TEXT
100
AcDbText
 10
1714.0
 20
44.400000000000006
 30
0.0
 40
8.0
  1
E-01
100
AcDbText
  0
TEXT
  5
7C
330
17
100
AcDbEntity
  8
TEXT
100
AcDbText
 10
1714.0
 20
24.400000000000006
 30
0.0
 40
8.0
  1
电气平面图
100
AcDbText
  0
TEXT
  5
7D
330
17
100
AcDbEntity
  8
TEXT
100
AcDbText
 10
1714.0
 20
9.400000000000006
 30
0.0
 40
6.0
  1
1:100
100
AcDbText
  0
TEXT
  5
7E
330
17
100
AcDbEntity
  8
TEXT
100
AcDbText
 10
1754.4
 20
44.400000000000006
 30
0.0
 40
6.0
  1
设计:
100
AcDbText
  0
TEXT
  5
7F
330
17
100
AcDbEntity
  8
TEXT
100
AcDbText
 10
1754.4
 20
24.400000000000006
 30
0.0
 40
6.0
  1
审核:
100
AcDbText
  0
TEXT
  5
80
330
17
100
AcDbEntity
  8
TEXT
100
AcDbText
 10
1792.2
 20
44.400000000000006
 30
0.0
 40
6.0
  1
2024.05.28
100
AcDbText
  0
CIRCLE
  5
81
330
17
100
AcDbEntity
  8
SEAL
100
AcDbCircle
 10
1804.8
 20
17.82
 30
0.0
 40
15.0
  0
LWPOLYLINE
  5
82
330
17
100
AcDbEntity
  8
STAMP
100
AcDbPolyline
 90
5
 70
0
 10
1794.8
 20
31.58
 10
1814.8
 20
31.58
 10
1814.8
 20
51.58
 10
1794.8
 20
51.58
 10
1794.8
 20
31.58
  0
LINE
  5
83
330
17
100
AcDbEntity
  8
CONTENT
100
AcDbLine
 10
1430.0
 20
20.0
 30
0.0
 11
1430.0
 21
277.0
 31
0.0
  0
LINE
  5
84
330
17
100
AcDbEntity
  8
CONTENT
100
AcDbLine
 10
1480.8
 20
20.0
 30
0.0
 11
1480.8
 21
277.0
 31
0.0
  0
LINE
  5
85
330
17
100
AcDbEntity
  8
CONTENT
100
AcDbLine
 10
1531.6
 20
20.0
 30
0.0
 11
1531.6
 21
277.0
 31
0.0
  0
LINE
  5
86
330
17
100
AcDbEntity
  8
CONTENT
100
AcDbLine
 10
1582.4
 20
20.0
 30
0.0
 11
1582.4
 21
277.0
 31
0.0
  0
LINE
  5
87
330
17
100
AcDbEntity
  8
CONTENT
100
AcDbLine
 10
1633.2
 20
20.0
 30
0.0
 11
1633.2
 21
277.0
 31
0.0
  0
LINE
  5
88
330
17
100
AcDbEntity
  8
CONTENT
100
AcDbLine
 10
1430.0
 20
20.0
 30
0.0
 11
1684.0
 21
20.0
 31
0.0
  0
LINE
  5
89
330
17
100
AcDbEntity
  8
CONTENT
100
AcDbLine
 10
1430.0
 20
105.66666666666667
 30
0.0
 11
1684.0
 21
105.66666666666667
 31
0.0
  0
LINE
  5
8A
330
17
100
AcDbEntity
  8
CONTENT
100
AcDbLine
 10
1430.0
 20
191.33333333333334
 30
0.0
 11
1684.0
 21
191.33333333333334
 31
0.0
  0
LWPOLYLINE
  5
8B
330
17
100
AcDbEntity
  8
FRAME
100
AcDbPolyline
 90
5
 70
0
 10
1880.0
 20
0.0
 10
2300.0
 20
0.0
 10
2300.0
 20
297.0
 10
1880.0
 20
297.0
 10
1880.0
 20
0.0
  0
LWPOLYLINE
  5
8C
330
17
100
AcDbEntity
  8
TITLE_BLOCK
100
AcDbPolyline
 90
5
 70
0
 10
2174.0
 20
0.0
 10
2300.0
 20
0.0
 10
2300.0
 20
59.400000000000006
 10
2174.0
 20
59.400000000000006
 10
2174.0
 20
0.0
  0
LINE
  5
8D
330
17
100
AcDbEntity
  8
TITLE_LINES
100
AcDbLine
 10
2174.0
 20
14.850000000000001
 30
0.0
 11
2300.0
 21
14.850000000000001
 31
0.0
  0
LINE
  5
8E
330
17
100
AcDbEntity
  8
TITLE_LINES
100
AcDbLine
 10
2174.0
 20
29.700000000000003
 30
0.0
 11
2300.0
 21
29.700000000000003
 31
0.0
  0
LINE
  5
8F
330
17
100
AcDbEntity
  8
TITLE_LINES
100
AcDbLine
 10
2174.0
 20
44.550000000000004
 30
0.0
 11
2300.0
 21
44.550000000000004
 31
0.0
  0
LINE
  5
90
330
17
100
AcDbEntity
  8
TITLE_LINES
100
AcDbLine
 10
2216.0
 20
0.0
 30
0.0
 11
2216.0
 21
59.400000000000006
 31
0.0
  0
LINE
  5
91
330
17
100
AcDbEntity
  8
TITLE_LINES
100
AcDbLine
 10
2258.0
 20
0.0
 30
0.0
 11
2258.0
 21
59.400000000000006
 31
0.0
  0
TEXT
  5
92
330
17
100
AcDbEntity
  8
TEXT
100
AcDbText
 10
2184.0
 20
44.400000000000006
 30
0.0
 40
8.0
  1
H-01
100
AcDbText
  0
TEXT
  5
93
330
17
100
AcDbEntity
  8
TEXT
100
AcDbText
 10
2184.0
 20
24.400000000000006
 30
0.0
 40
8.0
  1
暖通平面图
100
AcDbText
  0
TEXT
  5
94
330
17
100
AcDbEntity
  8
TEXT
100
AcDbText
 10
2184.0
 20
9.400000000000006
 30
0.0
 40
6.0
  1
1:100
100
AcDbText
  0
TEXT
  5
95
330
17
100
AcDbEntity
  8
TEXT
100
AcDbText
 10
2224.4
 20
44.400000000000006
 30
0.0
 40
6.0
  1
设计:
100
AcDbText
  0
TEXT
  5
96
330
17
100
AcDbEntity
  8
TEXT
100
AcDbText
 10
2224.4
 20
24.400000000000006
 30
0.0
 40
6.0
  1
审核:
100
AcDbText
  0
TEXT
  5
97
330
17
100
AcDbEntity
  8
TEXT
100
AcDbText
 10
2262.2
 20
44.400000000000006
 30
0.0
 40
6.0
  1
2024.05.28
100
AcDbText
  0
CIRCLE
  5
98
330
17
100
AcDbEntity
  8
SEAL
100
AcDbCircle
 10
2274.8
 20
17.82
 30
0.0
 40
15.0
  0
LWPOLYLINE
  5
99
330
17
100
AcDbEntity
  8
STAMP
100
AcDbPolyline
 90
5
 70
0
 10
2264.8
 20
31.58
 10
2284.8
 20
31.58
 10
2284.8
 20
51.58
 10
2264.8
 20
51.58
 10
2264.8
 20
31.58
  0
LINE
  5
9A
330
17
100
AcDbEntity
  8
CONTENT
100
AcDbLine
 10
1900.0
 20
20.0
 30
0.0
 11
1900.0
 21
277.0
 31
0.0
  0
LINE
  5
9B
330
17
100
AcDbEntity
  8
CONTENT
100
AcDbLine
 10
1950.8
 20
20.0
 30
0.0
 11
1950.8
 21
277.0
 31
0.0
  0
LINE
  5
9C
330
17
100
AcDbEntity
  8
CONTENT
100
AcDbLine
 10
2001.6
 20
20.0
 30
0.0
 11
2001.6
 21
277.0
 31
0.0
  0
LINE
  5
9D
330
17
100
AcDbEntity
  8
CONTENT
100
AcDbLine
 10
2052.4
 20
20.0
 30
0.0
 11
2052.4
 21
277.0
 31
0.0
  0
LINE
  5
9E
330
17
100
AcDbEntity
  8
CONTENT
100
AcDbLine
 10
2103.2
 20
20.0
 30
0.0
 11
2103.2
 21
277.0
 31
0.0
  0
LINE
  5
9F
330
17
100
AcDbEntity
  8
CONTENT
100
AcDbLine
 10
1900.0
 20
20.0
 30
0.0
 11
2154.0
 21
20.0
 31
0.0
  0
LINE
  5
A0
330
17
100
AcDbEntity
  8
CONTENT
100
AcDbLine
 10
1900.0
 20
105.66666666666667
 30
0.0
 11
2154.0
 21
105.66666666666667
 31
0.0
  0
LINE
  5
A1
330
17
100
AcDbEntity
  8
CONTENT
100
AcDbLine
 10
1900.0
 20
191.33333333333334
 30
0.0
 11
2154.0
 21
191.33333333333334
 31
0.0
  0
LWPOLYLINE
  5
A2
330
17
100
AcDbEntity
  8
FRAME
100
AcDbPolyline
 90
5
 70
0
 10
2350.0
 20
0.0
 10
2770.0
 20
0.0
 10
2770.0
 20
297.0
 10
2350.0
 20
297.0
 10
2350.0
 20
0.0
  0
LWPOLYLINE
  5
A3
330
17
100
AcDbEntity
  8
TITLE_BLOCK
100
AcDbPolyline
 90
5
 70
0
 10
2644.0
 20
0.0
 10
2770.0
 20
0.0
 10
2770.0
 20
59.400000000000006
 10
2644.0
 20
59.400000000000006
 10
2644.0
 20
0.0
  0
LINE
  5
A4
330
17
100
AcDbEntity
  8
TITLE_LINES
100
AcDbLine
 10
2644.0
 20
14.850000000000001
 30
0.0
 11
2770.0
 21
14.850000000000001
 31
0.0
  0
LINE
  5
A5
330
17
100
AcDbEntity
  8
TITLE_LINES
100
AcDbLine
 10
2644.0
 20
29.700000000000003
 30
0.0
 11
2770.0
 21
29.700000000000003
 31
0.0
  0
LINE
  5
A6
330
17
100
AcDbEntity
  8
TITLE_LINES
100
AcDbLine
 10
2644.0
 20
44.550000000000004
 30
0.0
 11
2770.0
 21
44.550000000000004
 31
0.0
  0
LINE
  5
A7
330
17
100
AcDbEntity
  8
TITLE_LINES
100
AcDbLine
 10
2686.0
 20
0.0
 30
0.0
 11
2686.0
 21
59.400000000000006
 31
0.0
  0
LINE
  5
A8
330
17
100
AcDbEntity
  8
TITLE_LINES
100
AcDbLine
 10
2728.0
 20
0.0
 30
0.0
 11
2728.0
 21
59.400000000000006
 31
0.0
  0
TEXT
  5
A9
330
17
100
AcDbEntity
  8
TEXT
100
AcDbText
 10
2654.0
 20
44.400000000000006
 30
0.0
 40
8.0
  1
D-01
100
AcDbText
  0
TEXT
  5
AA
330
17
100
AcDbEntity
  8
TEXT
100
AcDbText
 10
2654.0
 20
24.400000000000006
 30
0.0
 40
8.0
  1
装修平面图
100
AcDbText
  0
TEXT
  5
AB
330
17
100
AcDbEntity
  8
TEXT
100
AcDbText
 10
2654.0
 20
9.400000000000006
 30
0.0
 40
6.0
  1
1:100
100
AcDbText
  0
TEXT
  5
AC
330
17
100
AcDbEntity
  8
TEXT
100
AcDbText
 10
2694.4
 20
44.400000000000006
 30
0.0
 40
6.0
  1
设计:
100
AcDbText
  0
TEXT
  5
AD
330
17
100
AcDbEntity
  8
TEXT
100
AcDbText
 10
2694.4
 20
24.400000000000006
 30
0.0
 40
6.0
  1
审核:
100
AcDbText
  0
TEXT
  5
AE
330
17
100
AcDbEntity
  8
TEXT
100
AcDbText
 10
2732.2
 20
44.400000000000006
 30
0.0
 40
6.0
  1
2024.05.28
100
AcDbText
  0
CIRCLE
  5
AF
330
17
100
AcDbEntity
  8
SEAL
100
AcDbCircle
 10
2744.8
 20
17.82
 30
0.0
 40
15.0
  0
LWPOLYLINE
  5
B0
330
17
100
AcDbEntity
  8
STAMP
100
AcDbPolyline
 90
5
 70
0
 10
2734.8
 20
31.58
 10
2754.8
 20
31.58
 10
2754.8
 20
51.58
 10
2734.8
 20
51.58
 10
2734.8
 20
31.58
  0
LINE
  5
B1
330
17
100
AcDbEntity
  8
CONTENT
100
AcDbLine
 10
2370.0
 20
20.0
 30
0.0
 11
2370.0
 21
277.0
 31
0.0
  0
LINE
  5
B2
330
17
100
AcDbEntity
  8
CONTENT
100
AcDbLine
 10
2420.8
 20
20.0
 30
0.0
 11
2420.8
 21
277.0
 31
0.0
  0
LINE
  5
B3
330
17
100
AcDbEntity
  8
CONTENT
100
AcDbLine
 10
2471.6
 20
20.0
 30
0.0
 11
2471.6
 21
277.0
 31
0.0
  0
LINE
  5
B4
330
17
100
AcDbEntity
  8
CONTENT
100
AcDbLine
 10
2522.4
 20
20.0
 30
0.0
 11
2522.4
 21
277.0
 31
0.0
  0
LINE
  5
B5
330
17
100
AcDbEntity
  8
CONTENT
100
AcDbLine
 10
2573.2
 20
20.0
 30
0.0
 11
2573.2
 21
277.0
 31
0.0
  0
LINE
  5
B6
330
17
100
AcDbEntity
  8
CONTENT
100
AcDbLine
 10
2370.0
 20
20.0
 30
0.0
 11
2624.0
 21
20.0
 31
0.0
  0
LINE
  5
B7
330
17
100
AcDbEntity
  8
CONTENT
100
AcDbLine
 10
2370.0
 20
105.66666666666667
 30
0.0
 11
2624.0
 21
105.66666666666667
 31
0.0
  0
LINE
  5
B8
330
17
100
AcDbEntity
  8
CONTENT
100
AcDbLine
 10
2370.0
 20
191.33333333333334
 30
0.0
 11
2624.0
 21
191.33333333333334
 31
0.0
  0
LWPOLYLINE
  5
B9
330
17
100
AcDbEntity
  8
FRAME
100
AcDbPolyline
 90
5
 70
0
 10
0.0
 20
347.0
 10
420.0
 20
347.0
 10
420.0
 20
644.0
 10
0.0
 20
644.0
 10
0.0
 20
347.0
  0
LWPOLYLINE
  5
BA
330
17
100
AcDbEntity
  8
TITLE_BLOCK
100
AcDbPolyline
 90
5
 70
0
 10
294.0
 20
347.0
 10
420.0
 20
347.0
 10
420.0
 20
406.4
 10
294.0
 20
406.4
 10
294.0
 20
347.0
  0
LINE
  5
BB
330
17
100
AcDbEntity
  8
TITLE_LINES
100
AcDbLine
 10
294.0
 20
361.85
 30
0.0
 11
420.0
 21
361.85
 31
0.0
  0
LINE
  5
BC
330
17
100
AcDbEntity
  8
TITLE_LINES
100
AcDbLine
 10
294.0
 20
376.7
 30
0.0
 11
420.0
 21
376.7
 31
0.0
  0
LINE
  5
BD
330
17
100
AcDbEntity
  8
TITLE_LINES
100
AcDbLine
 10
294.0
 20
391.55
 30
0.0
 11
420.0
 21
391.55
 31
0.0
  0
LINE
  5
BE
330
17
100
AcDbEntity
  8
TITLE_LINES
100
AcDbLine
 10
336.0
 20
347.0
 30
0.0
 11
336.0
 21
406.4
 31
0.0
  0
LINE
  5
BF
330
17
100
AcDbEntity
  8
TITLE_LINES
100
AcDbLine
 10
378.0
 20
347.0
 30
0.0
 11
378.0
 21
406.4
 31
0.0
  0
TEXT
  5
C0
330
17
100
AcDbEntity
  8
TEXT
100
AcDbText
 10
304.0
 20
391.4
 30
0.0
 40
8.0
  1
A-02
100
AcDbText
  0
TEXT
  5
C1
330
17
100
AcDbEntity
  8
TEXT
100
AcDbText
 10
304.0
 20
371.4
 30
0.0
 40
8.0
  1
建筑平面图
100
AcDbText
  0
TEXT
  5
C2
330
17
100
AcDbEntity
  8
TEXT
100
AcDbText
 10
304.0
 20
356.4
 30
0.0
 40
6.0
  1
1:100
100
AcDbText
  0
TEXT
  5
C3
330
17
100
AcDbEntity
  8
TEXT
100
AcDbText
 10
344.4
 20
391.4
 30
0.0
 40
6.0
  1
设计:
100
AcDbText
  0
TEXT
  5
C4
330
17
100
AcDbEntity
  8
TEXT
100
AcDbText
 10
344.4
 20
371.4
 30
0.0
 40
6.0
  1
审核:
100
AcDbText
  0
TEXT
  5
C5
330
17
100
AcDbEntity
  8
TEXT
100
AcDbText
 10
382.2
 20
391.4
 30
0.0
 40
6.0
  1
2024.05.28
100
AcDbText
  0
CIRCLE
  5
C6
330
17
100
AcDbEntity
  8
SEAL
100
AcDbCircle
 10
394.8
 20
364.82
 30
0.0
 40
15.0
  0
LWPOLYLINE
  5
C7
330
17
100
AcDbEntity
  8
STAMP
100
AcDbPolyline
 90
5
 70
0
 10
384.8
 20
378.58
 10
404.8
 20
378.58
 10
404.8
 20
398.58
 10
384.8
 20
398.58
 10
384.8
 20
378.58
  0
LINE
  5
C8
330
17
100
AcDbEntity
  8
CONTENT
100
AcDbLine
 10
20.0
 20
367.0
 30
0.0
 11
20.0
 21
624.0
 31
0.0
  0
LINE
  5
C9
330
17
100
AcDbEntity
  8
CONTENT
100
AcDbLine
 10
70.8
 20
367.0
 30
0.0
 11
70.8
 21
624.0
 31
0.0
  0
LINE
  5
CA
330
17
100
AcDbEntity
  8
CONTENT
100
AcDbLine
 10
121.6
 20
367.0
 30
0.0
 11
121.6
 21
624.0
 31
0.0
  0
LINE
  5
CB
330
17
100
AcDbEntity
  8
CONTENT
100
AcDbLine
 10
172.39999999999998
 20
367.0
 30
0.0
 11
172.39999999999998
 21
624.0
 31
0.0
  0
LINE
  5
CC
330
17
100
AcDbEntity
  8
CONTENT
100
AcDbLine
 10
223.2
 20
367.0
 30
0.0
 11
223.2
 21
624.0
 31
0.0
  0
LINE
  5
CD
330
17
100
AcDbEntity
  8
CONTENT
100
AcDbLine
 10
20.0
 20
367.0
 30
0.0
 11
274.0
 21
367.0
 31
0.0
  0
LINE
  5
CE
330
17
100
AcDbEntity
  8
CONTENT
100
AcDbLine
 10
20.0
 20
452.6666666666667
 30
0.0
 11
274.0
 21
452.6666666666667
 31
0.0
  0
LINE
  5
CF
330
17
100
AcDbEntity
  8
CONTENT
100
AcDbLine
 10
20.0
 20
538.3333333333334
 30
0.0
 11
274.0
 21
538.3333333333334
 31
0.0
  0
LWPOLYLINE
  5
D0
330
17
100
AcDbEntity
  8
FRAME
100
AcDbPolyline
 90
5
 70
0
 10
470.0
 20
347.0
 10
890.0
 20
347.0
 10
890.0
 20
644.0
 10
470.0
 20
644.0
 10
470.0
 20
347.0
  0
LWPOLYLINE
  5
D1
330
17
100
AcDbEntity
  8
TITLE_BLOCK
100
AcDbPolyline
 90
5
 70
0
 10
764.0
 20
347.0
 10
890.0
 20
347.0
 10
890.0
 20
406.4
 10
764.0
 20
406.4
 10
764.0
 20
347.0
  0
LINE
  5
D2
330
17
100
AcDbEntity
  8
TITLE_LINES
100
AcDbLine
 10
764.0
 20
361.85
 30
0.0
 11
890.0
 21
361.85
 31
0.0
  0
LINE
  5
D3
330
17
100
AcDbEntity
  8
TITLE_LINES
100
AcDbLine
 10
764.0
 20
376.7
 30
0.0
 11
890.0
 21
376.7
 31
0.0
  0
LINE
  5
D4
330
17
100
AcDbEntity
  8
TITLE_LINES
100
AcDbLine
 10
764.0
 20
391.55
 30
0.0
 11
890.0
 21
391.55
 31
0.0
  0
LINE
  5
D5
330
17
100
AcDbEntity
  8
TITLE_LINES
100
AcDbLine
 10
806.0
 20
347.0
 30
0.0
 11
806.0
 21
406.4
 31
0.0
  0
LINE
  5
D6
330
17
100
AcDbEntity
  8
TITLE_LINES
100
AcDbLine
 10
848.0
 20
347.0
 30
0.0
 11
848.0
 21
406.4
 31
0.0
  0
TEXT
  5
D7
330
17
100
AcDbEntity
  8
TEXT
100
AcDbText
 10
774.0
 20
391.4
 30
0.0
 40
8.0
  1
S-02
100
AcDbText
  0
TEXT
  5
D8
330
17
100
AcDbEntity
  8
TEXT
100
AcDbText
 10
774.0
 20
371.4
 30
0.0
 40
8.0
  1
结构平面图
100
AcDbText
  0
TEXT
  5
D9
330
17
100
AcDbEntity
  8
TEXT
100
AcDbText
 10
774.0
 20
356.4
 30
0.0
 40
6.0
  1
1:100
100
AcDbText
  0
TEXT
  5
DA
330
17
100
AcDbEntity
  8
TEXT
100
AcDbText
 10
814.4
 20
391.4
 30
0.0
 40
6.0
  1
设计:
100
AcDbText
  0
TEXT
  5
DB
330
17
100
AcDbEntity
  8
TEXT
100
AcDbText
 10
814.4
 20
371.4
 30
0.0
 40
6.0
  1
审核:
100
AcDbText
  0
TEXT
  5
DC
330
17
100
AcDbEntity
  8
TEXT
100
AcDbText
 10
852.2
 20
391.4
 30
0.0
 40
6.0
  1
2024.05.28
100
AcDbText
  0
CIRCLE
  5
DD
330
17
100
AcDbEntity
  8
SEAL
100
AcDbCircle
 10
864.8
 20
364.82
 30
0.0
 40
15.0
  0
LWPOLYLINE
  5
DE
330
17
100
AcDbEntity
  8
STAMP
100
AcDbPolyline
 90
5
 70
0
 10
854.8
 20
378.58
 10
874.8
 20
378.58
 10
874.8
 20
398.58
 10
854.8
 20
398.58
 10
854.8
 20
378.58
  0
LINE
  5
DF
330
17
100
AcDbEntity
  8
CONTENT
100
AcDbLine
 10
490.0
 20
367.0
 30
0.0
 11
490.0
 21
624.0
 31
0.0
  0
LINE
  5
E0
330
17
100
AcDbEntity
  8
CONTENT
100
AcDbLine
 10
540.8
 20
367.0
 30
0.0
 11
540.8
 21
624.0
 31
0.0
  0
LINE
  5
E1
330
17
100
AcDbEntity
  8
CONTENT
100
AcDbLine
 10
591.6
 20
367.0
 30
0.0
 11
591.6
 21
624.0
 31
0.0
  0
LINE
  5
E2
330
17
100
AcDbEntity
  8
CONTENT
100
AcDbLine
 10
642.4
 20
367.0
 30
0.0
 11
642.4
 21
624.0
 31
0.0
  0
LINE
  5
E3
330
17
100
AcDbEntity
  8
CONTENT
100
AcDbLine
 10
693.2
 20
367.0
 30
0.0
 11
693.2
 21
624.0
 31
0.0
  0
LINE
  5
E4
330
17
100
AcDbEntity
  8
CONTENT
100
AcDbLine
 10
490.0
 20
367.0
 30
0.0
 11
744.0
 21
367.0
 31
0.0
  0
LINE
  5
E5
330
17
100
AcDbEntity
  8
CONTENT
100
AcDbLine
 10
490.0
 20
452.6666666666667
 30
0.0
 11
744.0
 21
452.6666666666667
 31
0.0
  0
LINE
  5
E6
330
17
100
AcDbEntity
  8
CONTENT
100
AcDbLine
 10
490.0
 20
538.3333333333334
 30
0.0
 11
744.0
 21
538.3333333333334
 31
0.0
  0
LWPOLYLINE
  5
E7
330
17
100
AcDbEntity
  8
FRAME
100
AcDbPolyline
 90
5
 70
0
 10
940.0
 20
347.0
 10
1360.0
 20
347.0
 10
1360.0
 20
644.0
 10
940.0
 20
644.0
 10
940.0
 20
347.0
  0
LWPOLYLINE
  5
E8
330
17
100
AcDbEntity
  8
TITLE_BLOCK
100
AcDbPolyline
 90
5
 70
0
 10
1234.0
 20
347.0
 10
1360.0
 20
347.0
 10
1360.0
 20
406.4
 10
1234.0
 20
406.4
 10
1234.0
 20
347.0
  0
LINE
  5
E9
330
17
100
AcDbEntity
  8
TITLE_LINES
100
AcDbLine
 10
1234.0
 20
361.85
 30
0.0
 11
1360.0
 21
361.85
 31
0.0
  0
LINE
  5
EA
330
17
100
AcDbEntity
  8
TITLE_LINES
100
AcDbLine
 10
1234.0
 20
376.7
 30
0.0
 11
1360.0
 21
376.7
 31
0.0
  0
LINE
  5
EB
330
17
100
AcDbEntity
  8
TITLE_LINES
100
AcDbLine
 10
1234.0
 20
391.55
 30
0.0
 11
1360.0
 21
391.55
 31
0.0
  0
LINE
  5
EC
330
17
100
AcDbEntity
  8
TITLE_LINES
100
AcDbLine
 10
1276.0
 20
347.0
 30
0.0
 11
1276.0
 21
406.4
 31
0.0
  0
LINE
  5
ED
330
17
100
AcDbEntity
  8
TITLE_LINES
100
AcDbLine
 10
1318.0
 20
347.0
 30
0.0
 11
1318.0
 21
406.4
 31
0.0
  0
TEXT
  5
EE
330
17
100
AcDbEntity
  8
TEXT
100
AcDbText
 10
1244.0
 20
391.4
 30
0.0
 40
8.0
  1
W-02
100
AcDbText
  0
TEXT
  5
EF
330
17
100
AcDbEntity
  8
TEXT
100
AcDbText
 10
1244.0
 20
371.4
 30
0.0
 40
8.0
  1
给排水平面图
100
AcDbText
  0
TEXT
  5
F0
330
17
100
AcDbEntity
  8
TEXT
100
AcDbText
 10
1244.0
 20
356.4
 30
0.0
 40
6.0
  1
1:100
100
AcDbText
  0
TEXT
  5
F1
330
17
100
AcDbEntity
  8
TEXT
100
AcDbText
 10
1284.4
 20
391.4
 30
0.0
 40
6.0
  1
设计:
100
AcDbText
  0
TEXT
  5
F2
330
17
100
AcDbEntity
  8
TEXT
100
AcDbText
 10
1284.4
 20
371.4
 30
0.0
 40
6.0
  1
审核:
100
AcDbText
  0
TEXT
  5
F3
330
17
100
AcDbEntity
  8
TEXT
100
AcDbText
 10
1322.2
 20
391.4
 30
0.0
 40
6.0
  1
2024.05.28
100
AcDbText
  0
CIRCLE
  5
F4
330
17
100
AcDbEntity
  8
SEAL
100
AcDbCircle
 10
1334.8
 20
364.82
 30
0.0
 40
15.0
  0
LWPOLYLINE
  5
F5
330
17
100
AcDbEntity
  8
STAMP
100
AcDbPolyline
 90
5
 70
0
 10
1324.8
 20
378.58
 10
1344.8
 20
378.58
 10
1344.8
 20
398.58
 10
1324.8
 20
398.58
 10
1324.8
 20
378.58
  0
LINE
  5
F6
330
17
100
AcDbEntity
  8
CONTENT
100
AcDbLine
 10
960.0
 20
367.0
 30
0.0
 11
960.0
 21
624.0
 31
0.0
  0
LINE
  5
F7
330
17
100
AcDbEntity
  8
CONTENT
100
AcDbLine
 10
1010.8
 20
367.0
 30
0.0
 11
1010.8
 21
624.0
 31
0.0
  0
LINE
  5
F8
330
17
100
AcDbEntity
  8
CONTENT
100
AcDbLine
 10
1061.6
 20
367.0
 30
0.0
 11
1061.6
 21
624.0
 31
0.0
  0
LINE
  5
F9
330
17
100
AcDbEntity
  8
CONTENT
100
AcDbLine
 10
1112.4
 20
367.0
 30
0.0
 11
1112.4
 21
624.0
 31
0.0
  0
LINE
  5
FA
330
17
100
AcDbEntity
  8
CONTENT
100
AcDbLine
 10
1163.2
 20
367.0
 30
0.0
 11
1163.2
 21
624.0
 31
0.0
  0
LINE
  5
FB
330
17
100
AcDbEntity
  8
CONTENT
100
AcDbLine
 10
960.0
 20
367.0
 30
0.0
 11
1214.0
 21
367.0
 31
0.0
  0
LINE
  5
FC
330
17
100
AcDbEntity
  8
CONTENT
100
AcDbLine
 10
960.0
 20
452.6666666666667
 30
0.0
 11
1214.0
 21
452.6666666666667
 31
0.0
  0
LINE
  5
FD
330
17
100
AcDbEntity
  8
CONTENT
100
AcDbLine
 10
960.0
 20
538.3333333333334
 30
0.0
 11
1214.0
 21
538.3333333333334
 31
0.0
  0
LWPOLYLINE
  5
FE
330
17
100
AcDbEntity
  8
FRAME
100
AcDbPolyline
 90
5
 70
0
 10
1410.0
 20
347.0
 10
1830.0
 20
347.0
 10
1830.0
 20
644.0
 10
1410.0
 20
644.0
 10
1410.0
 20
347.0
  0
LWPOLYLINE
  5
FF
330
17
100
AcDbEntity
  8
TITLE_BLOCK
100
AcDbPolyline
 90
5
 70
0
 10
1704.0
 20
347.0
 10
1830.0
 20
347.0
 10
1830.0
 20
406.4
 10
1704.0
 20
406.4
 10
1704.0
 20
347.0
  0
LINE
  5
100
330
17
100
AcDbEntity
  8
TITLE_LINES
100
AcDbLine
 10
1704.0
 20
361.85
 30
0.0
 11
1830.0
 21
361.85
 31
0.0
  0
LINE
  5
101
330
17
100
AcDbEntity
  8
TITLE_LINES
100
AcDbLine
 10
1704.0
 20
376.7
 30
0.0
 11
1830.0
 21
376.7
 31
0.0
  0
LINE
  5
102
330
17
100
AcDbEntity
  8
TITLE_LINES
100
AcDbLine
 10
1704.0
 20
391.55
 30
0.0
 11
1830.0
 21
391.55
 31
0.0
  0
LINE
  5
103
330
17
100
AcDbEntity
  8
TITLE_LINES
100
AcDbLine
 10
1746.0
 20
347.0
 30
0.0
 11
1746.0
 21
406.4
 31
0.0
  0
LINE
  5
104
330
17
100
AcDbEntity
  8
TITLE_LINES
100
AcDbLine
 10
1788.0
 20
347.0
 30
0.0
 11
1788.0
 21
406.4
 31
0.0
  0
TEXT
  5
105
330
17
100
AcDbEntity
  8
TEXT
100
AcDbText
 10
1714.0
 20
391.4
 30
0.0
 40
8.0
  1
E-02
100
AcDbText
  0
TEXT
  5
106
330
17
100
AcDbEntity
  8
TEXT
100
AcDbText
 10
1714.0
 20
371.4
 30
0.0
 40
8.0
  1
电气平面图
100
AcDbText
  0
TEXT
  5
107
330
17
100
AcDbEntity
  8
TEXT
100
AcDbText
 10
1714.0
 20
356.4
 30
0.0
 40
6.0
  1
1:100
100
AcDbText
  0
TEXT
  5
108
330
17
100
AcDbEntity
  8
TEXT
100
AcDbText
 10
1754.4
 20
391.4
 30
0.0
 40
6.0
  1
设计:
100
AcDbText
  0
TEXT
  5
109
330
17
100
AcDbEntity
  8
TEXT
100
AcDbText
 10
1754.4
 20
371.4
 30
0.0
 40
6.0
  1
审核:
100
AcDbText
  0
TEXT
  5
10A
330
17
100
AcDbEntity
  8
TEXT
100
AcDbText
 10
1792.2
 20
391.4
 30
0.0
 40
6.0
  1
2024.05.28
100
AcDbText
  0
CIRCLE
  5
10B
330
17
100
AcDbEntity
  8
SEAL
100
AcDbCircle
 10
1804.8
 20
364.82
 30
0.0
 40
15.0
  0
LWPOLYLINE
  5
10C
330
17
100
AcDbEntity
  8
STAMP
100
AcDbPolyline
 90
5
 70
0
 10
1794.8
 20
378.58
 10
1814.8
 20
378.58
 10
1814.8
 20
398.58
 10
1794.8
 20
398.58
 10
1794.8
 20
378.58
  0
LINE
  5
10D
330
17
100
AcDbEntity
  8
CONTENT
100
AcDbLine
 10
1430.0
 20
367.0
 30
0.0
 11
1430.0
 21
624.0
 31
0.0
  0
LINE
  5
10E
330
17
100
AcDbEntity
  8
CONTENT
100
AcDbLine
 10
1480.8
 20
367.0
 30
0.0
 11
1480.8
 21
624.0
 31
0.0
  0
LINE
  5
10F
330
17
100
AcDbEntity
  8
CONTENT
100
AcDbLine
 10
1531.6
 20
367.0
 30
0.0
 11
1531.6
 21
624.0
 31
0.0
  0
LINE
  5
110
330
17
100
AcDbEntity
  8
CONTENT
100
AcDbLine
 10
1582.4
 20
367.0
 30
0.0
 11
1582.4
 21
624.0
 31
0.0
  0
LINE
  5
111
330
17
100
AcDbEntity
  8
CONTENT
100
AcDbLine
 10
1633.2
 20
367.0
 30
0.0
 11
1633.2
 21
624.0
 31
0.0
  0
LINE
  5
112
330
17
100
AcDbEntity
  8
CONTENT
100
AcDbLine
 10
1430.0
 20
367.0
 30
0.0
 11
1684.0
 21
367.0
 31
0.0
  0
LINE
  5
113
330
17
100
AcDbEntity
  8
CONTENT
100
AcDbLine
 10
1430.0
 20
452.6666666666667
 30
0.0
 11
1684.0
 21
452.6666666666667
 31
0.0
  0
LINE
  5
114
330
17
100
AcDbEntity
  8
CONTENT
100
AcDbLine
 10
1430.0
 20
538.3333333333334
 30
0.0
 11
1684.0
 21
538.3333333333334
 31
0.0
  0
LWPOLYLINE
  5
115
330
17
100
AcDbEntity
  8
FRAME
100
AcDbPolyline
 90
5
 70
0
 10
1880.0
 20
347.0
 10
2300.0
 20
347.0
 10
2300.0
 20
644.0
 10
1880.0
 20
644.0
 10
1880.0
 20
347.0
  0
LWPOLYLINE
  5
116
330
17
100
AcDbEntity
  8
TITLE_BLOCK
100
AcDbPolyline
 90
5
 70
0
 10
2174.0
 20
347.0
 10
2300.0
 20
347.0
 10
2300.0
 20
406.4
 10
2174.0
 20
406.4
 10
2174.0
 20
347.0
  0
LINE
  5
117
330
17
100
AcDbEntity
  8
TITLE_LINES
100
AcDbLine
 10
2174.0
 20
361.85
 30
0.0
 11
2300.0
 21
361.85
 31
0.0
  0
LINE
  5
118
330
17
100
AcDbEntity
  8
TITLE_LINES
100
AcDbLine
 10
2174.0
 20
376.7
 30
0.0
 11
2300.0
 21
376.7
 31
0.0
  0
LINE
  5
119
330
17
100
AcDbEntity
  8
TITLE_LINES
100
AcDbLine
 10
2174.0
 20
391.55
 30
0.0
 11
2300.0
 21
391.55
 31
0.0
  0
LINE
  5
11A
330
17
100
AcDbEntity
  8
TITLE_LINES
100
AcDbLine
 10
2216.0
 20
347.0
 30
0.0
 11
2216.0
 21
406.4
 31
0.0
  0
LINE
  5
11B
330
17
100
AcDbEntity
  8
TITLE_LINES
100
AcDbLine
 10
2258.0
 20
347.0
 30
0.0
 11
2258.0
 21
406.4
 31
0.0
  0
TEXT
  5
11C
330
17
100
AcDbEntity
  8
TEXT
100
AcDbText
 10
2184.0
 20
391.4
 30
0.0
 40
8.0
  1
H-02
100
AcDbText
  0
TEXT
  5
11D
330
17
100
AcDbEntity
  8
TEXT
100
AcDbText
 10
2184.0
 20
371.4
 30
0.0
 40
8.0
  1
暖通平面图
100
AcDbText
  0
TEXT
  5
11E
330
17
100
AcDbEntity
  8
TEXT
100
AcDbText
 10
2184.0
 20
356.4
 30
0.0
 40
6.0
  1
1:100
100
AcDbText
  0
TEXT
  5
11F
330
17
100
AcDbEntity
  8
TEXT
100
AcDbText
 10
2224.4
 20
391.4
 30
0.0
 40
6.0
  1
设计:
100
AcDbText
  0
TEXT
  5
120
330
17
100
AcDbEntity
  8
TEXT
100
AcDbText
 10
2224.4
 20
371.4
 30
0.0
 40
6.0
  1
审核:
100
AcDbText
  0
TEXT
  5
121
330
17
100
AcDbEntity
  8
TEXT
100
AcDbText
 10
2262.2
 20
391.4
 30
0.0
 40
6.0
  1
2024.05.28
100
AcDbText
  0
CIRCLE
  5
122
330
17
100
AcDbEntity
  8
SEAL
100
AcDbCircle
 10
2274.8
 20
364.82
 30
0.0
 40
15.0
  0
LWPOLYLINE
  5
123
330
17
100
AcDbEntity
  8
STAMP
100
AcDbPolyline
 90
5
 70
0
 10
2264.8
 20
378.58
 10
2284.8
 20
378.58
 10
2284.8
 20
398.58
 10
2264.8
 20
398.58
 10
2264.8
 20
378.58
  0
LINE
  5
124
330
17
100
AcDbEntity
  8
CONTENT
100
AcDbLine
 10
1900.0
 20
367.0
 30
0.0
 11
1900.0
 21
624.0
 31
0.0
  0
LINE
  5
125
330
17
100
AcDbEntity
  8
CONTENT
100
AcDbLine
 10
1950.8
 20
367.0
 30
0.0
 11
1950.8
 21
624.0
 31
0.0
  0
LINE
  5
126
330
17
100
AcDbEntity
  8
CONTENT
100
AcDbLine
 10
2001.6
 20
367.0
 30
0.0
 11
2001.6
 21
624.0
 31
0.0
  0
LINE
  5
127
330
17
100
AcDbEntity
  8
CONTENT
100
AcDbLine
 10
2052.4
 20
367.0
 30
0.0
 11
2052.4
 21
624.0
 31
0.0
  0
LINE
  5
128
330
17
100
AcDbEntity
  8
CONTENT
100
AcDbLine
 10
2103.2
 20
367.0
 30
0.0
 11
2103.2
 21
624.0
 31
0.0
  0
LINE
  5
129
330
17
100
AcDbEntity
  8
CONTENT
100
AcDbLine
 10
1900.0
 20
367.0
 30
0.0
 11
2154.0
 21
367.0
 31
0.0
  0
LINE
  5
12A
330
17
100
AcDbEntity
  8
CONTENT
100
AcDbLine
 10
1900.0
 20
452.6666666666667
 30
0.0
 11
2154.0
 21
452.6666666666667
 31
0.0
  0
LINE
  5
12B
330
17
100
AcDbEntity
  8
CONTENT
100
AcDbLine
 10
1900.0
 20
538.3333333333334
 30
0.0
 11
2154.0
 21
538.3333333333334
 31
0.0
  0
LWPOLYLINE
  5
12C
330
17
100
AcDbEntity
  8
FRAME
100
AcDbPolyline
 90
5
 70
0
 10
2350.0
 20
347.0
 10
2770.0
 20
347.0
 10
2770.0
 20
644.0
 10
2350.0
 20
644.0
 10
2350.0
 20
347.0
  0
LWPOLYLINE
  5
12D
330
17
100
AcDbEntity
  8
TITLE_BLOCK
100
AcDbPolyline
 90
5
 70
0
 10
2644.0
 20
347.0
 10
2770.0
 20
347.0
 10
2770.0
 20
406.4
 10
2644.0
 20
406.4
 10
2644.0
 20
347.0
  0
LINE
  5
12E
330
17
100
AcDbEntity
  8
TITLE_LINES
100
AcDbLine
 10
2644.0
 20
361.85
 30
0.0
 11
2770.0
 21
361.85
 31
0.0
  0
LINE
  5
12F
330
17
100
AcDbEntity
  8
TITLE_LINES
100
AcDbLine
 10
2644.0
 20
376.7
 30
0.0
 11
2770.0
 21
376.7
 31
0.0
  0
LINE
  5
130
330
17
100
AcDbEntity
  8
TITLE_LINES
100
AcDbLine
 10
2644.0
 20
391.55
 30
0.0
 11
2770.0
 21
391.55
 31
0.0
  0
LINE
  5
131
330
17
100
AcDbEntity
  8
TITLE_LINES
100
AcDbLine
 10
2686.0
 20
347.0
 30
0.0
 11
2686.0
 21
406.4
 31
0.0
  0
LINE
  5
132
330
17
100
AcDbEntity
  8
TITLE_LINES
100
AcDbLine
 10
2728.0
 20
347.0
 30
0.0
 11
2728.0
 21
406.4
 31
0.0
  0
TEXT
  5
133
330
17
100
AcDbEntity
  8
TEXT
100
AcDbText
 10
2654.0
 20
391.4
 30
0.0
 40
8.0
  1
D-02
100
AcDbText
  0
TEXT
  5
134
330
17
100
AcDbEntity
  8
TEXT
100
AcDbText
 10
2654.0
 20
371.4
 30
0.0
 40
8.0
  1
装修平面图
100
AcDbText
  0
TEXT
  5
135
330
17
100
AcDbEntity
  8
TEXT
100
AcDbText
 10
2654.0
 20
356.4
 30
0.0
 40
6.0
  1
1:100
100
AcDbText
  0
TEXT
  5
136
330
17
100
AcDbEntity
  8
TEXT
100
AcDbText
 10
2694.4
 20
391.4
 30
0.0
 40
6.0
  1
设计:
100
AcDbText
  0
TEXT
  5
137
330
17
100
AcDbEntity
  8
TEXT
100
AcDbText
 10
2694.4
 20
371.4
 30
0.0
 40
6.0
  1
审核:
100
AcDbText
  0
TEXT
  5
138
330
17
100
AcDbEntity
  8
TEXT
100
AcDbText
 10
2732.2
 20
391.4
 30
0.0
 40
6.0
  1
2024.05.28
100
AcDbText
  0
CIRCLE
  5
139
330
17
100
AcDbEntity
  8
SEAL
100
AcDbCircle
 10
2744.8
 20
364.82
 30
0.0
 40
15.0
  0
LWPOLYLINE
  5
13A
330
17
100
AcDbEntity
  8
STAMP
100
AcDbPolyline
 90
5
 70
0
 10
2734.8
 20
378.58
 10
2754.8
 20
378.58
 10
2754.8
 20
398.58
 10
2734.8
 20
398.58
 10
2734.8
 20
378.58
  0
LINE
  5
13B
330
17
100
AcDbEntity
  8
CONTENT
100
AcDbLine
 10
2370.0
 20
367.0
 30
0.0
 11
2370.0
 21
624.0
 31
0.0
  0
LINE
  5
13C
330
17
100
AcDbEntity
  8
CONTENT
100
AcDbLine
 10
2420.8
 20
367.0
 30
0.0
 11
2420.8
 21
624.0
 31
0.0
  0
LINE
  5
13D
330
17
100
AcDbEntity
  8
CONTENT
100
AcDbLine
 10
2471.6
 20
367.0
 30
0.0
 11
2471.6
 21
624.0
 31
0.0
  0
LINE
  5
13E
330
17
100
AcDbEntity
  8
CONTENT
100
AcDbLine
 10
2522.4
 20
367.0
 30
0.0
 11
2522.4
 21
624.0
 31
0.0
  0
LINE
  5
13F
330
17
100
AcDbEntity
  8
CONTENT
100
AcDbLine
 10
2573.2
 20
367.0
 30
0.0
 11
2573.2
 21
624.0
 31
0.0
  0
LINE
  5
140
330
17
100
AcDbEntity
  8
CONTENT
100
AcDbLine
 10
2370.0
 20
367.0
 30
0.0
 11
2624.0
 21
367.0
 31
0.0
  0
LINE
  5
141
330
17
100
AcDbEntity
  8
CONTENT
100
AcDbLine
 10
2370.0
 20
452.6666666666667
 30
0.0
 11
2624.0
 21
452.6666666666667
 31
0.0
  0
LINE
  5
142
330
17
100
AcDbEntity
  8
CONTENT
100
AcDbLine
 10
2370.0
 20
538.3333333333334
 30
0.0
 11
2624.0
 21
538.3333333333334
 31
0.0
  0
LWPOLYLINE
  5
143
330
17
100
AcDbEntity
  8
FRAME
100
AcDbPolyline
 90
5
 70
0
 10
0.0
 20
694.0
 10
420.0
 20
694.0
 10
420.0
 20
991.0
 10
0.0
 20
991.0
 10
0.0
 20
694.0
  0
LWPOLYLINE
  5
144
330
17
100
AcDbEntity
  8
TITLE_BLOCK
100
AcDbPolyline
 90
5
 70
0
 10
294.0
 20
694.0
 10
420.0
 20
694.0
 10
420.0
 20
753.4
 10
294.0
 20
753.4
 10
294.0
 20
694.0
  0
LINE
  5
145
330
17
100
AcDbEntity
  8
TITLE_LINES
100
AcDbLine
 10
294.0
 20
708.85
 30
0.0
 11
420.0
 21
708.85
 31
0.0
  0
LINE
  5
146
330
17
100
AcDbEntity
  8
TITLE_LINES
100
AcDbLine
 10
294.0
 20
723.7
 30
0.0
 11
420.0
 21
723.7
 31
0.0
  0
LINE
  5
147
330
17
100
AcDbEntity
  8
TITLE_LINES
100
AcDbLine
 10
294.0
 20
738.55
 30
0.0
 11
420.0
 21
738.55
 31
0.0
  0
LINE
  5
148
330
17
100
AcDbEntity
  8
TITLE_LINES
100
AcDbLine
 10
336.0
 20
694.0
 30
0.0
 11
336.0
 21
753.4
 31
0.0
  0
LINE
  5
149
330
17
100
AcDbEntity
  8
TITLE_LINES
100
AcDbLine
 10
378.0
 20
694.0
 30
0.0
 11
378.0
 21
753.4
 31
0.0
  0
TEXT
  5
14A
330
17
100
AcDbEntity
  8
TEXT
100
AcDbText
 10
304.0
 20
738.4
 30
0.0
 40
8.0
  1
A-03
100
AcDbText
  0
TEXT
  5
14B
330
17
100
AcDbEntity
  8
TEXT
100
AcDbText
 10
304.0
 20
718.4
 30
0.0
 40
8.0
  1
建筑平面图
100
AcDbText
  0
TEXT
  5
14C
330
17
100
AcDbEntity
  8
TEXT
100
AcDbText
 10
304.0
 20
703.4
 30
0.0
 40
6.0
  1
1:100
100
AcDbText
  0
TEXT
  5
14D
330
17
100
AcDbEntity
  8
TEXT
100
AcDbText
 10
344.4
 20
738.4
 30
0.0
 40
6.0
  1
设计:
100
AcDbText
  0
TEXT
  5
14E
330
17
100
AcDbEntity
  8
TEXT
100
AcDbText
 10
344.4
 20
718.4
 30
0.0
 40
6.0
  1
审核:
100
AcDbText
  0
TEXT
  5
14F
330
17
100
AcDbEntity
  8
TEXT
100
AcDbText
 10
382.2
 20
738.4
 30
0.0
 40
6.0
  1
2024.05.28
100
AcDbText
  0
CIRCLE
  5
150
330
17
100
AcDbEntity
  8
SEAL
100
AcDbCircle
 10
394.8
 20
711.82
 30
0.0
 40
15.0
  0
LWPOLYLINE
  5
151
330
17
100
AcDbEntity
  8
STAMP
100
AcDbPolyline
 90
5
 70
0
 10
384.8
 20
725.58
 10
404.8
 20
725.58
 10
404.8
 20
745.58
 10
384.8
 20
745.58
 10
384.8
 20
725.58
  0
LINE
  5
152
330
17
100
AcDbEntity
  8
CONTENT
100
AcDbLine
 10
20.0
 20
714.0
 30
0.0
 11
20.0
 21
971.0
 31
0.0
  0
LINE
  5
153
330
17
100
AcDbEntity
  8
CONTENT
100
AcDbLine
 10
70.8
 20
714.0
 30
0.0
 11
70.8
 21
971.0
 31
0.0
  0
LINE
  5
154
330
17
100
AcDbEntity
  8
CONTENT
100
AcDbLine
 10
121.6
 20
714.0
 30
0.0
 11
121.6
 21
971.0
 31
0.0
  0
LINE
  5
155
330
17
100
AcDbEntity
  8
CONTENT
100
AcDbLine
 10
172.39999999999998
 20
714.0
 30
0.0
 11
172.39999999999998
 21
971.0
 31
0.0
  0
LINE
  5
156
330
17
100
AcDbEntity
  8
CONTENT
100
AcDbLine
 10
223.2
 20
714.0
 30
0.0
 11
223.2
 21
971.0
 31
0.0
  0
LINE
  5
157
330
17
100
AcDbEntity
  8
CONTENT
100
AcDbLine
 10
20.0
 20
714.0
 30
0.0
 11
274.0
 21
714.0
 31
0.0
  0
LINE
  5
158
330
17
100
AcDbEntity
  8
CONTENT
100
AcDbLine
 10
20.0
 20
799.6666666666666
 30
0.0
 11
274.0
 21
799.6666666666666
 31
0.0
  0
LINE
  5
159
330
17
100
AcDbEntity
  8
CONTENT
100
AcDbLine
 10
20.0
 20
885.3333333333334
 30
0.0
 11
274.0
 21
885.3333333333334
 31
0.0
  0
LWPOLYLINE
  5
15A
330
17
100
AcDbEntity
  8
FRAME
100
AcDbPolyline
 90
5
 70
0
 10
470.0
 20
694.0
 10
890.0
 20
694.0
 10
890.0
 20
991.0
 10
470.0
 20
991.0
 10
470.0
 20
694.0
  0
LWPOLYLINE
  5
15B
330
17
100
AcDbEntity
  8
TITLE_BLOCK
100
AcDbPolyline
 90
5
 70
0
 10
764.0
 20
694.0
 10
890.0
 20
694.0
 10
890.0
 20
753.4
 10
764.0
 20
753.4
 10
764.0
 20
694.0
  0
LINE
  5
15C
330
17
100
AcDbEntity
  8
TITLE_LINES
100
AcDbLine
 10
764.0
 20
708.85
 30
0.0
 11
890.0
 21
708.85
 31
0.0
  0
LINE
  5
15D
330
17
100
AcDbEntity
  8
TITLE_LINES
100
AcDbLine
 10
764.0
 20
723.7
 30
0.0
 11
890.0
 21
723.7
 31
0.0
  0
LINE
  5
15E
330
17
100
AcDbEntity
  8
TITLE_LINES
100
AcDbLine
 10
764.0
 20
738.55
 30
0.0
 11
890.0
 21
738.55
 31
0.0
  0
LINE
  5
15F
330
17
100
AcDbEntity
  8
TITLE_LINES
100
AcDbLine
 10
806.0
 20
694.0
 30
0.0
 11
806.0
 21
753.4
 31
0.0
  0
LINE
  5
160
330
17
100
AcDbEntity
  8
TITLE_LINES
100
AcDbLine
 10
848.0
 20
694.0
 30
0.0
 11
848.0
 21
753.4
 31
0.0
  0
TEXT
  5
161
330
17
100
AcDbEntity
  8
TEXT
100
AcDbText
 10
774.0
 20
738.4
 30
0.0
 40
8.0
  1
S-03
100
AcDbText
  0
TEXT
  5
162
330
17
100
AcDbEntity
  8
TEXT
100
AcDbText
 10
774.0
 20
718.4
 30
0.0
 40
8.0
  1
结构平面图
100
AcDbText
  0
TEXT
  5
163
330
17
100
AcDbEntity
  8
TEXT
100
AcDbText
 10
774.0
 20
703.4
 30
0.0
 40
6.0
  1
1:100
100
AcDbText
  0
TEXT
  5
164
330
17
100
AcDbEntity
  8
TEXT
100
AcDbText
 10
814.4
 20
738.4
 30
0.0
 40
6.0
  1
设计:
100
AcDbText
  0
TEXT
  5
165
330
17
100
AcDbEntity
  8
TEXT
100
AcDbText
 10
814.4
 20
718.4
 30
0.0
 40
6.0
  1
审核:
100
AcDbText
  0
TEXT
  5
166
330
17
100
AcDbEntity
  8
TEXT
100
AcDbText
 10
852.2
 20
738.4
 30
0.0
 40
6.0
  1
2024.05.28
100
AcDbText
  0
CIRCLE
  5
167
330
17
100
AcDbEntity
  8
SEAL
100
AcDbCircle
 10
864.8
 20
711.82
 30
0.0
 40
15.0
  0
LWPOLYLINE
  5
168
330
17
100
AcDbEntity
  8
STAMP
100
AcDbPolyline
 90
5
 70
0
 10
854.8
 20
725.58
 10
874.8
 20
725.58
 10
874.8
 20
745.58
 10
854.8
 20
745.58
 10
854.8
 20
725.58
  0
LINE
  5
169
330
17
100
AcDbEntity
  8
CONTENT
100
AcDbLine
 10
490.0
 20
714.0
 30
0.0
 11
490.0
 21
971.0
 31
0.0
  0
LINE
  5
16A
330
17
100
AcDbEntity
  8
CONTENT
100
AcDbLine
 10
540.8
 20
714.0
 30
0.0
 11
540.8
 21
971.0
 31
0.0
  0
LINE
  5
16B
330
17
100
AcDbEntity
  8
CONTENT
100
AcDbLine
 10
591.6
 20
714.0
 30
0.0
 11
591.6
 21
971.0
 31
0.0
  0
LINE
  5
16C
330
17
100
AcDbEntity
  8
CONTENT
100
AcDbLine
 10
642.4
 20
714.0
 30
0.0
 11
642.4
 21
971.0
 31
0.0
  0
LINE
  5
16D
330
17
100
AcDbEntity
  8
CONTENT
100
AcDbLine
 10
693.2
 20
714.0
 30
0.0
 11
693.2
 21
971.0
 31
0.0
  0
LINE
  5
16E
330
17
100
AcDbEntity
  8
CONTENT
100
AcDbLine
 10
490.0
 20
714.0
 30
0.0
 11
744.0
 21
714.0
 31
0.0
  0
LINE
  5
16F
330
17
100
AcDbEntity
  8
CONTENT
100
AcDbLine
 10
490.0
 20
799.6666666666666
 30
0.0
 11
744.0
 21
799.6666666666666
 31
0.0
  0
LINE
  5
170
330
17
100
AcDbEntity
  8
CONTENT
100
AcDbLine
 10
490.0
 20
885.3333333333334
 30
0.0
 11
744.0
 21
885.3333333333334
 31
0.0
  0
LWPOLYLINE
  5
171
330
17
100
AcDbEntity
  8
FRAME
100
AcDbPolyline
 90
5
 70
0
 10
940.0
 20
694.0
 10
1360.0
 20
694.0
 10
1360.0
 20
991.0
 10
940.0
 20
991.0
 10
940.0
 20
694.0
  0
LWPOLYLINE
  5
172
330
17
100
AcDbEntity
  8
TITLE_BLOCK
100
AcDbPolyline
 90
5
 70
0
 10
1234.0
 20
694.0
 10
1360.0
 20
694.0
 10
1360.0
 20
753.4
 10
1234.0
 20
753.4
 10
1234.0
 20
694.0
  0
LINE
  5
173
330
17
100
AcDbEntity
  8
TITLE_LINES
100
AcDbLine
 10
1234.0
 20
708.85
 30
0.0
 11
1360.0
 21
708.85
 31
0.0
  0
LINE
  5
174
330
17
100
AcDbEntity
  8
TITLE_LINES
100
AcDbLine
 10
1234.0
 20
723.7
 30
0.0
 11
1360.0
 21
723.7
 31
0.0
  0
LINE
  5
175
330
17
100
AcDbEntity
  8
TITLE_LINES
100
AcDbLine
 10
1234.0
 20
738.55
 30
0.0
 11
1360.0
 21
738.55
 31
0.0
  0
LINE
  5
176
330
17
100
AcDbEntity
  8
TITLE_LINES
100
AcDbLine
 10
1276.0
 20
694.0
 30
0.0
 11
1276.0
 21
753.4
 31
0.0
  0
LINE
  5
177
330
17
100
AcDbEntity
  8
TITLE_LINES
100
AcDbLine
 10
1318.0
 20
694.0
 30
0.0
 11
1318.0
 21
753.4
 31
0.0
  0
TEXT
  5
178
330
17
100
AcDbEntity
  8
TEXT
100
AcDbText
 10
1244.0
 20
738.4
 30
0.0
 40
8.0
  1
W-03
100
AcDbText
  0
TEXT
  5
179
330
17
100
AcDbEntity
  8
TEXT
100
AcDbText
 10
1244.0
 20
718.4
 30
0.0
 40
8.0
  1
给排水平面图
100
AcDbText
  0
TEXT
  5
17A
330
17
100
AcDbEntity
  8
TEXT
100
AcDbText
 10
1244.0
 20
703.4
 30
0.0
 40
6.0
  1
1:100
100
AcDbText
  0
TEXT
  5
17B
330
17
100
AcDbEntity
  8
TEXT
100
AcDbText
 10
1284.4
 20
738.4
 30
0.0
 40
6.0
  1
设计:
100
AcDbText
  0
TEXT
  5
17C
330
17
100
AcDbEntity
  8
TEXT
100
AcDbText
 10
1284.4
 20
718.4
 30
0.0
 40
6.0
  1
审核:
100
AcDbText
  0
TEXT
  5
17D
330
17
100
AcDbEntity
  8
TEXT
100
AcDbText
 10
1322.2
 20
738.4
 30
0.0
 40
6.0
  1
2024.05.28
100
AcDbText
  0
CIRCLE
  5
17E
330
17
100
AcDbEntity
  8
SEAL
100
AcDbCircle
 10
1334.8
 20
711.82
 30
0.0
 40
15.0
  0
LWPOLYLINE
  5
17F
330
17
100
AcDbEntity
  8
STAMP
100
AcDbPolyline
 90
5
 70
0
 10
1324.8
 20
725.58
 10
1344.8
 20
725.58
 10
1344.8
 20
745.58
 10
1324.8
 20
745.58
 10
1324.8
 20
725.58
  0
LINE
  5
180
330
17
100
AcDbEntity
  8
CONTENT
100
AcDbLine
 10
960.0
 20
714.0
 30
0.0
 11
960.0
 21
971.0
 31
0.0
  0
LINE
  5
181
330
17
100
AcDbEntity
  8
CONTENT
100
AcDbLine
 10
1010.8
 20
714.0
 30
0.0
 11
1010.8
 21
971.0
 31
0.0
  0
LINE
  5
182
330
17
100
AcDbEntity
  8
CONTENT
100
AcDbLine
 10
1061.6
 20
714.0
 30
0.0
 11
1061.6
 21
971.0
 31
0.0
  0
LINE
  5
183
330
17
100
AcDbEntity
  8
CONTENT
100
AcDbLine
 10
1112.4
 20
714.0
 30
0.0
 11
1112.4
 21
971.0
 31
0.0
  0
LINE
  5
184
330
17
100
AcDbEntity
  8
CONTENT
100
AcDbLine
 10
1163.2
 20
714.0
 30
0.0
 11
1163.2
 21
971.0
 31
0.0
  0
LINE
  5
185
330
17
100
AcDbEntity
  8
CONTENT
100
AcDbLine
 10
960.0
 20
714.0
 30
0.0
 11
1214.0
 21
714.0
 31
0.0
  0
LINE
  5
186
330
17
100
AcDbEntity
  8
CONTENT
100
AcDbLine
 10
960.0
 20
799.6666666666666
 30
0.0
 11
1214.0
 21
799.6666666666666
 31
0.0
  0
LINE
  5
187
330
17
100
AcDbEntity
  8
CONTENT
100
AcDbLine
 10
960.0
 20
885.3333333333334
 30
0.0
 11
1214.0
 21
885.3333333333334
 31
0.0
  0
LWPOLYLINE
  5
188
330
17
100
AcDbEntity
  8
FRAME
100
AcDbPolyline
 90
5
 70
0
 10
1410.0
 20
694.0
 10
1830.0
 20
694.0
 10
1830.0
 20
991.0
 10
1410.0
 20
991.0
 10
1410.0
 20
694.0
  0
LWPOLYLINE
  5
189
330
17
100
AcDbEntity
  8
TITLE_BLOCK
100
AcDbPolyline
 90
5
 70
0
 10
1704.0
 20
694.0
 10
1830.0
 20
694.0
 10
1830.0
 20
753.4
 10
1704.0
 20
753.4
 10
1704.0
 20
694.0
  0
LINE
  5
18A
330
17
100
AcDbEntity
  8
TITLE_LINES
100
AcDbLine
 10
1704.0
 20
708.85
 30
0.0
 11
1830.0
 21
708.85
 31
0.0
  0
LINE
  5
18B
330
17
100
AcDbEntity
  8
TITLE_LINES
100
AcDbLine
 10
1704.0
 20
723.7
 30
0.0
 11
1830.0
 21
723.7
 31
0.0
  0
LINE
  5
18C
330
17
100
AcDbEntity
  8
TITLE_LINES
100
AcDbLine
 10
1704.0
 20
738.55
 30
0.0
 11
1830.0
 21
738.55
 31
0.0
  0
LINE
  5
18D
330
17
100
AcDbEntity
  8
TITLE_LINES
100
AcDbLine
 10
1746.0
 20
694.0
 30
0.0
 11
1746.0
 21
753.4
 31
0.0
  0
LINE
  5
18E
330
17
100
AcDbEntity
  8
TITLE_LINES
100
AcDbLine
 10
1788.0
 20
694.0
 30
0.0
 11
1788.0
 21
753.4
 31
0.0
  0
TEXT
  5
18F
330
17
100
AcDbEntity
  8
TEXT
100
AcDbText
 10
1714.0
 20
738.4
 30
0.0
 40
8.0
  1
E-03
100
AcDbText
  0
TEXT
  5
190
330
17
100
AcDbEntity
  8
TEXT
100
AcDbText
 10
1714.0
 20
718.4
 30
0.0
 40
8.0
  1
电气平面图
100
AcDbText
  0
TEXT
  5
191
330
17
100
AcDbEntity
  8
TEXT
100
AcDbText
 10
1714.0
 20
703.4
 30
0.0
 40
6.0
  1
1:100
100
AcDbText
  0
TEXT
  5
192
330
17
100
AcDbEntity
  8
TEXT
100
AcDbText
 10
1754.4
 20
738.4
 30
0.0
 40
6.0
  1
设计:
100
AcDbText
  0
TEXT
  5
193
330
17
100
AcDbEntity
  8
TEXT
100
AcDbText
 10
1754.4
 20
718.4
 30
0.0
 40
6.0
  1
审核:
100
AcDbText
  0
TEXT
  5
194
330
17
100
AcDbEntity
  8
TEXT
100
AcDbText
 10
1792.2
 20
738.4
 30
0.0
 40
6.0
  1
2024.05.28
100
AcDbText
  0
CIRCLE
  5
195
330
17
100
AcDbEntity
  8
SEAL
100
AcDbCircle
 10
1804.8
 20
711.82
 30
0.0
 40
15.0
  0
LWPOLYLINE
  5
196
330
17
100
AcDbEntity
  8
STAMP
100
AcDbPolyline
 90
5
 70
0
 10
1794.8
 20
725.58
 10
1814.8
 20
725.58
 10
1814.8
 20
745.58
 10
1794.8
 20
745.58
 10
1794.8
 20
725.58
  0
LINE
  5
197
330
17
100
AcDbEntity
  8
CONTENT
100
AcDbLine
 10
1430.0
 20
714.0
 30
0.0
 11
1430.0
 21
971.0
 31
0.0
  0
LINE
  5
198
330
17
100
AcDbEntity
  8
CONTENT
100
AcDbLine
 10
1480.8
 20
714.0
 30
0.0
 11
1480.8
 21
971.0
 31
0.0
  0
LINE
  5
199
330
17
100
AcDbEntity
  8
CONTENT
100
AcDbLine
 10
1531.6
 20
714.0
 30
0.0
 11
1531.6
 21
971.0
 31
0.0
  0
LINE
  5
19A
330
17
100
AcDbEntity
  8
CONTENT
100
AcDbLine
 10
1582.4
 20
714.0
 30
0.0
 11
1582.4
 21
971.0
 31
0.0
  0
LINE
  5
19B
330
17
100
AcDbEntity
  8
CONTENT
100
AcDbLine
 10
1633.2
 20
714.0
 30
0.0
 11
1633.2
 21
971.0
 31
0.0
  0
LINE
  5
19C
330
17
100
AcDbEntity
  8
CONTENT
100
AcDbLine
 10
1430.0
 20
714.0
 30
0.0
 11
1684.0
 21
714.0
 31
0.0
  0
LINE
  5
19D
330
17
100
AcDbEntity
  8
CONTENT
100
AcDbLine
 10
1430.0
 20
799.6666666666666
 30
0.0
 11
1684.0
 21
799.6666666666666
 31
0.0
  0
LINE
  5
19E
330
17
100
AcDbEntity
  8
CONTENT
100
AcDbLine
 10
1430.0
 20
885.3333333333334
 30
0.0
 11
1684.0
 21
885.3333333333334
 31
0.0
  0
LWPOLYLINE
  5
19F
330
17
100
AcDbEntity
  8
FRAME
100
AcDbPolyline
 90
5
 70
0
 10
1880.0
 20
694.0
 10
2300.0
 20
694.0
 10
2300.0
 20
991.0
 10
1880.0
 20
991.0
 10
1880.0
 20
694.0
  0
LWPOLYLINE
  5
1A0
330
17
100
AcDbEntity
  8
TITLE_BLOCK
100
AcDbPolyline
 90
5
 70
0
 10
2174.0
 20
694.0
 10
2300.0
 20
694.0
 10
2300.0
 20
753.4
 10
2174.0
 20
753.4
 10
2174.0
 20
694.0
  0
LINE
  5
1A1
330
17
100
AcDbEntity
  8
TITLE_LINES
100
AcDbLine
 10
2174.0
 20
708.85
 30
0.0
 11
2300.0
 21
708.85
 31
0.0
  0
LINE
  5
1A2
330
17
100
AcDbEntity
  8
TITLE_LINES
100
AcDbLine
 10
2174.0
 20
723.7
 30
0.0
 11
2300.0
 21
723.7
 31
0.0
  0
LINE
  5
1A3
330
17
100
AcDbEntity
  8
TITLE_LINES
100
AcDbLine
 10
2174.0
 20
738.55
 30
0.0
 11
2300.0
 21
738.55
 31
0.0
  0
LINE
  5
1A4
330
17
100
AcDbEntity
  8
TITLE_LINES
100
AcDbLine
 10
2216.0
 20
694.0
 30
0.0
 11
2216.0
 21
753.4
 31
0.0
  0
LINE
  5
1A5
330
17
100
AcDbEntity
  8
TITLE_LINES
100
AcDbLine
 10
2258.0
 20
694.0
 30
0.0
 11
2258.0
 21
753.4
 31
0.0
  0
TEXT
  5
1A6
330
17
100
AcDbEntity
  8
TEXT
100
AcDbText
 10
2184.0
 20
738.4
 30
0.0
 40
8.0
  1
H-03
100
AcDbText
  0
TEXT
  5
1A7
330
17
100
AcDbEntity
  8
TEXT
100
AcDbText
 10
2184.0
 20
718.4
 30
0.0
 40
8.0
  1
暖通平面图
100
AcDbText
  0
TEXT
  5
1A8
330
17
100
AcDbEntity
  8
TEXT
100
AcDbText
 10
2184.0
 20
703.4
 30
0.0
 40
6.0
  1
1:100
100
AcDbText
  0
TEXT
  5
1A9
330
17
100
AcDbEntity
  8
TEXT
100
AcDbText
 10
2224.4
 20
738.4
 30
0.0
 40
6.0
  1
设计:
100
AcDbText
  0
TEXT
  5
1AA
330
17
100
AcDbEntity
  8
TEXT
100
AcDbText
 10
2224.4
 20
718.4
 30
0.0
 40
6.0
  1
审核:
100
AcDbText
  0
TEXT
  5
1AB
330
17
100
AcDbEntity
  8
TEXT
100
AcDbText
 10
2262.2
 20
738.4
 30
0.0
 40
6.0
  1
2024.05.28
100
AcDbText
  0
CIRCLE
  5
1AC
330
17
100
AcDbEntity
  8
SEAL
100
AcDbCircle
 10
2274.8
 20
711.82
 30
0.0
 40
15.0
  0
LWPOLYLINE
  5
1AD
330
17
100
AcDbEntity
  8
STAMP
100
AcDbPolyline
 90
5
 70
0
 10
2264.8
 20
725.58
 10
2284.8
 20
725.58
 10
2284.8
 20
745.58
 10
2264.8
 20
745.58
 10
2264.8
 20
725.58
  0
LINE
  5
1AE
330
17
100
AcDbEntity
  8
CONTENT
100
AcDbLine
 10
1900.0
 20
714.0
 30
0.0
 11
1900.0
 21
971.0
 31
0.0
  0
LINE
  5
1AF
330
17
100
AcDbEntity
  8
CONTENT
100
AcDbLine
 10
1950.8
 20
714.0
 30
0.0
 11
1950.8
 21
971.0
 31
0.0
  0
LINE
  5
1B0
330
17
100
AcDbEntity
  8
CONTENT
100
AcDbLine
 10
2001.6
 20
714.0
 30
0.0
 11
2001.6
 21
971.0
 31
0.0
  0
LINE
  5
1B1
330
17
100
AcDbEntity
  8
CONTENT
100
AcDbLine
 10
2052.4
 20
714.0
 30
0.0
 11
2052.4
 21
971.0
 31
0.0
  0
LINE
  5
1B2
330
17
100
AcDbEntity
  8
CONTENT
100
AcDbLine
 10
2103.2
 20
714.0
 30
0.0
 11
2103.2
 21
971.0
 31
0.0
  0
LINE
  5
1B3
330
17
100
AcDbEntity
  8
CONTENT
100
AcDbLine
 10
1900.0
 20
714.0
 30
0.0
 11
2154.0
 21
714.0
 31
0.0
  0
LINE
  5
1B4
330
17
100
AcDbEntity
  8
CONTENT
100
AcDbLine
 10
1900.0
 20
799.6666666666666
 30
0.0
 11
2154.0
 21
799.6666666666666
 31
0.0
  0
LINE
  5
1B5
330
17
100
AcDbEntity
  8
CONTENT
100
AcDbLine
 10
1900.0
 20
885.3333333333334
 30
0.0
 11
2154.0
 21
885.3333333333334
 31
0.0
  0
LWPOLYLINE
  5
1B6
330
17
100
AcDbEntity
  8
FRAME
100
AcDbPolyline
 90
5
 70
0
 10
2350.0
 20
694.0
 10
2770.0
 20
694.0
 10
2770.0
 20
991.0
 10
2350.0
 20
991.0
 10
2350.0
 20
694.0
  0
LWPOLYLINE
  5
1B7
330
17
100
AcDbEntity
  8
TITLE_BLOCK
100
AcDbPolyline
 90
5
 70
0
 10
2644.0
 20
694.0
 10
2770.0
 20
694.0
 10
2770.0
 20
753.4
 10
2644.0
 20
753.4
 10
2644.0
 20
694.0
  0
LINE
  5
1B8
330
17
100
AcDbEntity
  8
TITLE_LINES
100
AcDbLine
 10
2644.0
 20
708.85
 30
0.0
 11
2770.0
 21
708.85
 31
0.0
  0
LINE
  5
1B9
330
17
100
AcDbEntity
  8
TITLE_LINES
100
AcDbLine
 10
2644.0
 20
723.7
 30
0.0
 11
2770.0
 21
723.7
 31
0.0
  0
LINE
  5
1BA
330
17
100
AcDbEntity
  8
TITLE_LINES
100
AcDbLine
 10
2644.0
 20
738.55
 30
0.0
 11
2770.0
 21
738.55
 31
0.0
  0
LINE
  5
1BB
330
17
100
AcDbEntity
  8
TITLE_LINES
100
AcDbLine
 10
2686.0
 20
694.0
 30
0.0
 11
2686.0
 21
753.4
 31
0.0
  0
LINE
  5
1BC
330
17
100
AcDbEntity
  8
TITLE_LINES
100
AcDbLine
 10
2728.0
 20
694.0
 30
0.0
 11
2728.0
 21
753.4
 31
0.0
  0
TEXT
  5
1BD
330
17
100
AcDbEntity
  8
TEXT
100
AcDbText
 10
2654.0
 20
738.4
 30
0.0
 40
8.0
  1
D-03
100
AcDbText
  0
TEXT
  5
1BE
330
17
100
AcDbEntity
  8
TEXT
100
AcDbText
 10
2654.0
 20
718.4
 30
0.0
 40
8.0
  1
装修平面图
100
AcDbText
  0
TEXT
  5
1BF
330
17
100
AcDbEntity
  8
TEXT
100
AcDbText
 10
2654.0
 20
703.4
 30
0.0
 40
6.0
  1
1:100
100
AcDbText
  0
TEXT
  5
1C0
330
17
100
AcDbEntity
  8
TEXT
100
AcDbText
 10
2694.4
 20
738.4
 30
0.0
 40
6.0
  1
设计:
100
AcDbText
  0
TEXT
  5
1C1
330
17
100
AcDbEntity
  8
TEXT
100
AcDbText
 10
2694.4
 20
718.4
 30
0.0
 40
6.0
  1
审核:
100
AcDbText
  0
TEXT
  5
1C2
330
17
100
AcDbEntity
  8
TEXT
100
AcDbText
 10
2732.2
 20
738.4
 30
0.0
 40
6.0
  1
2024.05.28
100
AcDbText
  0
CIRCLE
  5
1C3
330
17
100
AcDbEntity
  8
SEAL
100
AcDbCircle
 10
2744.8
 20
711.82
 30
0.0
 40
15.0
  0
LWPOLYLINE
  5
1C4
330
17
100
AcDbEntity
  8
STAMP
100
AcDbPolyline
 90
5
 70
0
 10
2734.8
 20
725.58
 10
2754.8
 20
725.58
 10
2754.8
 20
745.58
 10
2734.8
 20
745.58
 10
2734.8
 20
725.58
  0
LINE
  5
1C5
330
17
100
AcDbEntity
  8
CONTENT
100
AcDbLine
 10
2370.0
 20
714.0
 30
0.0
 11
2370.0
 21
971.0
 31
0.0
  0
LINE
  5
1C6
330
17
100
AcDbEntity
  8
CONTENT
100
AcDbLine
 10
2420.8
 20
714.0
 30
0.0
 11
2420.8
 21
971.0
 31
0.0
  0
LINE
  5
1C7
330
17
100
AcDbEntity
  8
CONTENT
100
AcDbLine
 10
2471.6
 20
714.0
 30
0.0
 11
2471.6
 21
971.0
 31
0.0
  0
LINE
  5
1C8
330
17
100
AcDbEntity
  8
CONTENT
100
AcDbLine
 10
2522.4
 20
714.0
 30
0.0
 11
2522.4
 21
971.0
 31
0.0
  0
LINE
  5
1C9
330
17
100
AcDbEntity
  8
CONTENT
100
AcDbLine
 10
2573.2
 20
714.0
 30
0.0
 11
2573.2
 21
971.0
 31
0.0
  0
LINE
  5
1CA
330
17
100
AcDbEntity
  8
CONTENT
100
AcDbLine
 10
2370.0
 20
714.0
 30
0.0
 11
2624.0
 21
714.0
 31
0.0
  0
LINE
  5
1CB
330
17
100
AcDbEntity
  8
CONTENT
100
AcDbLine
 10
2370.0
 20
799.6666666666666
 30
0.0
 11
2624.0
 21
799.6666666666666
 31
0.0
  0
LINE
  5
1CC
330
17
100
AcDbEntity
  8
CONTENT
100
AcDbLine
 10
2370.0
 20
885.3333333333334
 30
0.0
 11
2624.0
 21
885.3333333333334
 31
0.0
  0
LWPOLYLINE
  5
1CD
330
17
100
AcDbEntity
  8
FRAME
100
AcDbPolyline
 90
5
 70
0
 10
0.0
 20
1041.0
 10
420.0
 20
1041.0
 10
420.0
 20
1338.0
 10
0.0
 20
1338.0
 10
0.0
 20
1041.0
  0
LWPOLYLINE
  5
1CE
330
17
100
AcDbEntity
  8
TITLE_BLOCK
100
AcDbPolyline
 90
5
 70
0
 10
294.0
 20
1041.0
 10
420.0
 20
1041.0
 10
420.0
 20
1100.4
 10
294.0
 20
1100.4
 10
294.0
 20
1041.0
  0
LINE
  5
1CF
330
17
100
AcDbEntity
  8
TITLE_LINES
100
AcDbLine
 10
294.0
 20
1055.85
 30
0.0
 11
420.0
 21
1055.85
 31
0.0
  0
LINE
  5
1D0
330
17
100
AcDbEntity
  8
TITLE_LINES
100
AcDbLine
 10
294.0
 20
1070.7
 30
0.0
 11
420.0
 21
1070.7
 31
0.0
  0
LINE
  5
1D1
330
17
100
AcDbEntity
  8
TITLE_LINES
100
AcDbLine
 10
294.0
 20
1085.55
 30
0.0
 11
420.0
 21
1085.55
 31
0.0
  0
LINE
  5
1D2
330
17
100
AcDbEntity
  8
TITLE_LINES
100
AcDbLine
 10
336.0
 20
1041.0
 30
0.0
 11
336.0
 21
1100.4
 31
0.0
  0
LINE
  5
1D3
330
17
100
AcDbEntity
  8
TITLE_LINES
100
AcDbLine
 10
378.0
 20
1041.0
 30
0.0
 11
378.0
 21
1100.4
 31
0.0
  0
TEXT
  5
1D4
330
17
100
AcDbEntity
  8
TEXT
100
AcDbText
 10
304.0
 20
1085.4
 30
0.0
 40
8.0
  1
A-04
100
AcDbText
  0
TEXT
  5
1D5
330
17
100
AcDbEntity
  8
TEXT
100
AcDbText
 10
304.0
 20
1065.4
 30
0.0
 40
8.0
  1
建筑平面图
100
AcDbText
  0
TEXT
  5
1D6
330
17
100
AcDbEntity
  8
TEXT
100
AcDbText
 10
304.0
 20
1050.4
 30
0.0
 40
6.0
  1
1:100
100
AcDbText
  0
TEXT
  5
1D7
330
17
100
AcDbEntity
  8
TEXT
100
AcDbText
 10
344.4
 20
1085.4
 30
0.0
 40
6.0
  1
设计:
100
AcDbText
  0
TEXT
  5
1D8
330
17
100
AcDbEntity
  8
TEXT
100
AcDbText
 10
344.4
 20
1065.4
 30
0.0
 40
6.0
  1
审核:
100
AcDbText
  0
TEXT
  5
1D9
330
17
100
AcDbEntity
  8
TEXT
100
AcDbText
 10
382.2
 20
1085.4
 30
0.0
 40
6.0
  1
2024.05.28
100
AcDbText
  0
CIRCLE
  5
1DA
330
17
100
AcDbEntity
  8
SEAL
100
AcDbCircle
 10
394.8
 20
1058.82
 30
0.0
 40
15.0
  0
LWPOLYLINE
  5
1DB
330
17
100
AcDbEntity
  8
STAMP
100
AcDbPolyline
 90
5
 70
0
 10
384.8
 20
1072.58
 10
404.8
 20
1072.58
 10
404.8
 20
1092.58
 10
384.8
 20
1092.58
 10
384.8
 20
1072.58
  0
LINE
  5
1DC
330
17
100
AcDbEntity
  8
CONTENT
100
AcDbLine
 10
20.0
 20
1061.0
 30
0.0
 11
20.0
 21
1318.0
 31
0.0
  0
LINE
  5
1DD
330
17
100
AcDbEntity
  8
CONTENT
100
AcDbLine
 10
70.8
 20
1061.0
 30
0.0
 11
70.8
 21
1318.0
 31
0.0
  0
LINE
  5
1DE
330
17
100
AcDbEntity
  8
CONTENT
100
AcDbLine
 10
121.6
 20
1061.0
 30
0.0
 11
121.6
 21
1318.0
 31
0.0
  0
LINE
  5
1DF
330
17
100
AcDbEntity
  8
CONTENT
100
AcDbLine
 10
172.39999999999998
 20
1061.0
 30
0.0
 11
172.39999999999998
 21
1318.0
 31
0.0
  0
LINE
  5
1E0
330
17
100
AcDbEntity
  8
CONTENT
100
AcDbLine
 10
223.2
 20
1061.0
 30
0.0
 11
223.2
 21
1318.0
 31
0.0
  0
LINE
  5
1E1
330
17
100
AcDbEntity
  8
CONTENT
100
AcDbLine
 10
20.0
 20
1061.0
 30
0.0
 11
274.0
 21
1061.0
 31
0.0
  0
LINE
  5
1E2
330
17
100
AcDbEntity
  8
CONTENT
100
AcDbLine
 10
20.0
 20
1146.6666666666667
 30
0.0
 11
274.0
 21
1146.6666666666667
 31
0.0
  0
LINE
  5
1E3
330
17
100
AcDbEntity
  8
CONTENT
100
AcDbLine
 10
20.0
 20
1232.3333333333333
 30
0.0
 11
274.0
 21
1232.3333333333333
 31
0.0
  0
LWPOLYLINE
  5
1E4
330
17
100
AcDbEntity
  8
FRAME
100
AcDbPolyline
 90
5
 70
0
 10
470.0
 20
1041.0
 10
890.0
 20
1041.0
 10
890.0
 20
1338.0
 10
470.0
 20
1338.0
 10
470.0
 20
1041.0
  0
LWPOLYLINE
  5
1E5
330
17
100
AcDbEntity
  8
TITLE_BLOCK
100
AcDbPolyline
 90
5
 70
0
 10
764.0
 20
1041.0
 10
890.0
 20
1041.0
 10
890.0
 20
1100.4
 10
764.0
 20
1100.4
 10
764.0
 20
1041.0
  0
LINE
  5
1E6
330
17
100
AcDbEntity
  8
TITLE_LINES
100
AcDbLine
 10
764.0
 20
1055.85
 30
0.0
 11
890.0
 21
1055.85
 31
0.0
  0
LINE
  5
1E7
330
17
100
AcDbEntity
  8
TITLE_LINES
100
AcDbLine
 10
764.0
 20
1070.7
 30
0.0
 11
890.0
 21
1070.7
 31
0.0
  0
LINE
  5
1E8
330
17
100
AcDbEntity
  8
TITLE_LINES
100
AcDbLine
 10
764.0
 20
1085.55
 30
0.0
 11
890.0
 21
1085.55
 31
0.0
  0
LINE
  5
1E9
330
17
100
AcDbEntity
  8
TITLE_LINES
100
AcDbLine
 10
806.0
 20
1041.0
 30
0.0
 11
806.0
 21
1100.4
 31
0.0
  0
LINE
  5
1EA
330
17
100
AcDbEntity
  8
TITLE_LINES
100
AcDbLine
 10
848.0
 20
1041.0
 30
0.0
 11
848.0
 21
1100.4
 31
0.0
  0
TEXT
  5
1EB
330
17
100
AcDbEntity
  8
TEXT
100
AcDbText
 10
774.0
 20
1085.4
 30
0.0
 40
8.0
  1
S-04
100
AcDbText
  0
TEXT
  5
1EC
330
17
100
AcDbEntity
  8
TEXT
100
AcDbText
 10
774.0
 20
1065.4
 30
0.0
 40
8.0
  1
结构平面图
100
AcDbText
  0
TEXT
  5
1ED
330
17
100
AcDbEntity
  8
TEXT
100
AcDbText
 10
774.0
 20
1050.4
 30
0.0
 40
6.0
  1
1:100
100
AcDbText
  0
TEXT
  5
1EE
330
17
100
AcDbEntity
  8
TEXT
100
AcDbText
 10
814.4
 20
1085.4
 30
0.0
 40
6.0
  1
设计:
100
AcDbText
  0
TEXT
  5
1EF
330
17
100
AcDbEntity
  8
TEXT
100
AcDbText
 10
814.4
 20
1065.4
 30
0.0
 40
6.0
  1
审核:
100
AcDbText
  0
TEXT
  5
1F0
330
17
100
AcDbEntity
  8
TEXT
100
AcDbText
 10
852.2
 20
1085.4
 30
0.0
 40
6.0
  1
2024.05.28
100
AcDbText
  0
CIRCLE
  5
1F1
330
17
100
AcDbEntity
  8
SEAL
100
AcDbCircle
 10
864.8
 20
1058.82
 30
0.0
 40
15.0
  0
LWPOLYLINE
  5
1F2
330
17
100
AcDbEntity
  8
STAMP
100
AcDbPolyline
 90
5
 70
0
 10
854.8
 20
1072.58
 10
874.8
 20
1072.58
 10
874.8
 20
1092.58
 10
854.8
 20
1092.58
 10
854.8
 20
1072.58
  0
LINE
  5
1F3
330
17
100
AcDbEntity
  8
CONTENT
100
AcDbLine
 10
490.0
 20
1061.0
 30
0.0
 11
490.0
 21
1318.0
 31
0.0
  0
LINE
  5
1F4
330
17
100
AcDbEntity
  8
CONTENT
100
AcDbLine
 10
540.8
 20
1061.0
 30
0.0
 11
540.8
 21
1318.0
 31
0.0
  0
LINE
  5
1F5
330
17
100
AcDbEntity
  8
CONTENT
100
AcDbLine
 10
591.6
 20
1061.0
 30
0.0
 11
591.6
 21
1318.0
 31
0.0
  0
LINE
  5
1F6
330
17
100
AcDbEntity
  8
CONTENT
100
AcDbLine
 10
642.4
 20
1061.0
 30
0.0
 11
642.4
 21
1318.0
 31
0.0
  0
LINE
  5
1F7
330
17
100
AcDbEntity
  8
CONTENT
100
AcDbLine
 10
693.2
 20
1061.0
 30
0.0
 11
693.2
 21
1318.0
 31
0.0
  0
LINE
  5
1F8
330
17
100
AcDbEntity
  8
CONTENT
100
AcDbLine
 10
490.0
 20
1061.0
 30
0.0
 11
744.0
 21
1061.0
 31
0.0
  0
LINE
  5
1F9
330
17
100
AcDbEntity
  8
CONTENT
100
AcDbLine
 10
490.0
 20
1146.6666666666667
 30
0.0
 11
744.0
 21
1146.6666666666667
 31
0.0
  0
LINE
  5
1FA
330
17
100
AcDbEntity
  8
CONTENT
100
AcDbLine
 10
490.0
 20
1232.3333333333333
 30
0.0
 11
744.0
 21
1232.3333333333333
 31
0.0
  0
LWPOLYLINE
  5
1FB
330
17
100
AcDbEntity
  8
FRAME
100
AcDbPolyline
 90
5
 70
0
 10
940.0
 20
1041.0
 10
1360.0
 20
1041.0
 10
1360.0
 20
1338.0
 10
940.0
 20
1338.0
 10
940.0
 20
1041.0
  0
LWPOLYLINE
  5
1FC
330
17
100
AcDbEntity
  8
TITLE_BLOCK
100
AcDbPolyline
 90
5
 70
0
 10
1234.0
 20
1041.0
 10
1360.0
 20
1041.0
 10
1360.0
 20
1100.4
 10
1234.0
 20
1100.4
 10
1234.0
 20
1041.0
  0
LINE
  5
1FD
330
17
100
AcDbEntity
  8
TITLE_LINES
100
AcDbLine
 10
1234.0
 20
1055.85
 30
0.0
 11
1360.0
 21
1055.85
 31
0.0
  0
LINE
  5
1FE
330
17
100
AcDbEntity
  8
TITLE_LINES
100
AcDbLine
 10
1234.0
 20
1070.7
 30
0.0
 11
1360.0
 21
1070.7
 31
0.0
  0
LINE
  5
1FF
330
17
100
AcDbEntity
  8
TITLE_LINES
100
AcDbLine
 10
1234.0
 20
1085.55
 30
0.0
 11
1360.0
 21
1085.55
 31
0.0
  0
LINE
  5
200
330
17
100
AcDbEntity
  8
TITLE_LINES
100
AcDbLine
 10
1276.0
 20
1041.0
 30
0.0
 11
1276.0
 21
1100.4
 31
0.0
  0
LINE
  5
201
330
17
100
AcDbEntity
  8
TITLE_LINES
100
AcDbLine
 10
1318.0
 20
1041.0
 30
0.0
 11
1318.0
 21
1100.4
 31
0.0
  0
TEXT
  5
202
330
17
100
AcDbEntity
  8
TEXT
100
AcDbText
 10
1244.0
 20
1085.4
 30
0.0
 40
8.0
  1
W-04
100
AcDbText
  0
TEXT
  5
203
330
17
100
AcDbEntity
  8
TEXT
100
AcDbText
 10
1244.0
 20
1065.4
 30
0.0
 40
8.0
  1
给排水平面图
100
AcDbText
  0
TEXT
  5
204
330
17
100
AcDbEntity
  8
TEXT
100
AcDbText
 10
1244.0
 20
1050.4
 30
0.0
 40
6.0
  1
1:100
100
AcDbText
  0
TEXT
  5
205
330
17
100
AcDbEntity
  8
TEXT
100
AcDbText
 10
1284.4
 20
1085.4
 30
0.0
 40
6.0
  1
设计:
100
AcDbText
  0
TEXT
  5
206
330
17
100
AcDbEntity
  8
TEXT
100
AcDbText
 10
1284.4
 20
1065.4
 30
0.0
 40
6.0
  1
审核:
100
AcDbText
  0
TEXT
  5
207
330
17
100
AcDbEntity
  8
TEXT
100
AcDbText
 10
1322.2
 20
1085.4
 30
0.0
 40
6.0
  1
2024.05.28
100
AcDbText
  0
CIRCLE
  5
208
330
17
100
AcDbEntity
  8
SEAL
100
AcDbCircle
 10
1334.8
 20
1058.82
 30
0.0
 40
15.0
  0
LWPOLYLINE
  5
209
330
17
100
AcDbEntity
  8
STAMP
100
AcDbPolyline
 90
5
 70
0
 10
1324.8
 20
1072.58
 10
1344.8
 20
1072.58
 10
1344.8
 20
1092.58
 10
1324.8
 20
1092.58
 10
1324.8
 20
1072.58
  0
LINE
  5
20A
330
17
100
AcDbEntity
  8
CONTENT
100
AcDbLine
 10
960.0
 20
1061.0
 30
0.0
 11
960.0
 21
1318.0
 31
0.0
  0
LINE
  5
20B
330
17
100
AcDbEntity
  8
CONTENT
100
AcDbLine
 10
1010.8
 20
1061.0
 30
0.0
 11
1010.8
 21
1318.0
 31
0.0
  0
LINE
  5
20C
330
17
100
AcDbEntity
  8
CONTENT
100
AcDbLine
 10
1061.6
 20
1061.0
 30
0.0
 11
1061.6
 21
1318.0
 31
0.0
  0
LINE
  5
20D
330
17
100
AcDbEntity
  8
CONTENT
100
AcDbLine
 10
1112.4
 20
1061.0
 30
0.0
 11
1112.4
 21
1318.0
 31
0.0
  0
LINE
  5
20E
330
17
100
AcDbEntity
  8
CONTENT
100
AcDbLine
 10
1163.2
 20
1061.0
 30
0.0
 11
1163.2
 21
1318.0
 31
0.0
  0
LINE
  5
20F
330
17
100
AcDbEntity
  8
CONTENT
100
AcDbLine
 10
960.0
 20
1061.0
 30
0.0
 11
1214.0
 21
1061.0
 31
0.0
  0
LINE
  5
210
330
17
100
AcDbEntity
  8
CONTENT
100
AcDbLine
 10
960.0
 20
1146.6666666666667
 30
0.0
 11
1214.0
 21
1146.6666666666667
 31
0.0
  0
LINE
  5
211
330
17
100
AcDbEntity
  8
CONTENT
100
AcDbLine
 10
960.0
 20
1232.3333333333333
 30
0.0
 11
1214.0
 21
1232.3333333333333
 31
0.0
  0
LWPOLYLINE
  5
212
330
17
100
AcDbEntity
  8
FRAME
100
AcDbPolyline
 90
5
 70
0
 10
1410.0
 20
1041.0
 10
1830.0
 20
1041.0
 10
1830.0
 20
1338.0
 10
1410.0
 20
1338.0
 10
1410.0
 20
1041.0
  0
LWPOLYLINE
  5
213
330
17
100
AcDbEntity
  8
TITLE_BLOCK
100
AcDbPolyline
 90
5
 70
0
 10
1704.0
 20
1041.0
 10
1830.0
 20
1041.0
 10
1830.0
 20
1100.4
 10
1704.0
 20
1100.4
 10
1704.0
 20
1041.0
  0
LINE
  5
214
330
17
100
AcDbEntity
  8
TITLE_LINES
100
AcDbLine
 10
1704.0
 20
1055.85
 30
0.0
 11
1830.0
 21
1055.85
 31
0.0
  0
LINE
  5
215
330
17
100
AcDbEntity
  8
TITLE_LINES
100
AcDbLine
 10
1704.0
 20
1070.7
 30
0.0
 11
1830.0
 21
1070.7
 31
0.0
  0
LINE
  5
216
330
17
100
AcDbEntity
  8
TITLE_LINES
100
AcDbLine
 10
1704.0
 20
1085.55
 30
0.0
 11
1830.0
 21
1085.55
 31
0.0
  0
LINE
  5
217
330
17
100
AcDbEntity
  8
TITLE_LINES
100
AcDbLine
 10
1746.0
 20
1041.0
 30
0.0
 11
1746.0
 21
1100.4
 31
0.0
  0
LINE
  5
218
330
17
100
AcDbEntity
  8
TITLE_LINES
100
AcDbLine
 10
1788.0
 20
1041.0
 30
0.0
 11
1788.0
 21
1100.4
 31
0.0
  0
TEXT
  5
219
330
17
100
AcDbEntity
  8
TEXT
100
AcDbText
 10
1714.0
 20
1085.4
 30
0.0
 40
8.0
  1
E-04
100
AcDbText
  0
TEXT
  5
21A
330
17
100
AcDbEntity
  8
TEXT
100
AcDbText
 10
1714.0
 20
1065.4
 30
0.0
 40
8.0
  1
电气平面图
100
AcDbText
  0
TEXT
  5
21B
330
17
100
AcDbEntity
  8
TEXT
100
AcDbText
 10
1714.0
 20
1050.4
 30
0.0
 40
6.0
  1
1:100
100
AcDbText
  0
TEXT
  5
21C
330
17
100
AcDbEntity
  8
TEXT
100
AcDbText
 10
1754.4
 20
1085.4
 30
0.0
 40
6.0
  1
设计:
100
AcDbText
  0
TEXT
  5
21D
330
17
100
AcDbEntity
  8
TEXT
100
AcDbText
 10
1754.4
 20
1065.4
 30
0.0
 40
6.0
  1
审核:
100
AcDbText
  0
TEXT
  5
21E
330
17
100
AcDbEntity
  8
TEXT
100
AcDbText
 10
1792.2
 20
1085.4
 30
0.0
 40
6.0
  1
2024.05.28
100
AcDbText
  0
CIRCLE
  5
21F
330
17
100
AcDbEntity
  8
SEAL
100
AcDbCircle
 10
1804.8
 20
1058.82
 30
0.0
 40
15.0
  0
LWPOLYLINE
  5
220
330
17
100
AcDbEntity
  8
STAMP
100
AcDbPolyline
 90
5
 70
0
 10
1794.8
 20
1072.58
 10
1814.8
 20
1072.58
 10
1814.8
 20
1092.58
 10
1794.8
 20
1092.58
 10
1794.8
 20
1072.58
  0
LINE
  5
221
330
17
100
AcDbEntity
  8
CONTENT
100
AcDbLine
 10
1430.0
 20
1061.0
 30
0.0
 11
1430.0
 21
1318.0
 31
0.0
  0
LINE
  5
222
330
17
100
AcDbEntity
  8
CONTENT
100
AcDbLine
 10
1480.8
 20
1061.0
 30
0.0
 11
1480.8
 21
1318.0
 31
0.0
  0
LINE
  5
223
330
17
100
AcDbEntity
  8
CONTENT
100
AcDbLine
 10
1531.6
 20
1061.0
 30
0.0
 11
1531.6
 21
1318.0
 31
0.0
  0
LINE
  5
224
330
17
100
AcDbEntity
  8
CONTENT
100
AcDbLine
 10
1582.4
 20
1061.0
 30
0.0
 11
1582.4
 21
1318.0
 31
0.0
  0
LINE
  5
225
330
17
100
AcDbEntity
  8
CONTENT
100
AcDbLine
 10
1633.2
 20
1061.0
 30
0.0
 11
1633.2
 21
1318.0
 31
0.0
  0
LINE
  5
226
330
17
100
AcDbEntity
  8
CONTENT
100
AcDbLine
 10
1430.0
 20
1061.0
 30
0.0
 11
1684.0
 21
1061.0
 31
0.0
  0
LINE
  5
227
330
17
100
AcDbEntity
  8
CONTENT
100
AcDbLine
 10
1430.0
 20
1146.6666666666667
 30
0.0
 11
1684.0
 21
1146.6666666666667
 31
0.0
  0
LINE
  5
228
330
17
100
AcDbEntity
  8
CONTENT
100
AcDbLine
 10
1430.0
 20
1232.3333333333333
 30
0.0
 11
1684.0
 21
1232.3333333333333
 31
0.0
  0
LWPOLYLINE
  5
229
330
17
100
AcDbEntity
  8
FRAME
100
AcDbPolyline
 90
5
 70
0
 10
1880.0
 20
1041.0
 10
2300.0
 20
1041.0
 10
2300.0
 20
1338.0
 10
1880.0
 20
1338.0
 10
1880.0
 20
1041.0
  0
LWPOLYLINE
  5
22A
330
17
100
AcDbEntity
  8
TITLE_BLOCK
100
AcDbPolyline
 90
5
 70
0
 10
2174.0
 20
1041.0
 10
2300.0
 20
1041.0
 10
2300.0
 20
1100.4
 10
2174.0
 20
1100.4
 10
2174.0
 20
1041.0
  0
LINE
  5
22B
330
17
100
AcDbEntity
  8
TITLE_LINES
100
AcDbLine
 10
2174.0
 20
1055.85
 30
0.0
 11
2300.0
 21
1055.85
 31
0.0
  0
LINE
  5
22C
330
17
100
AcDbEntity
  8
TITLE_LINES
100
AcDbLine
 10
2174.0
 20
1070.7
 30
0.0
 11
2300.0
 21
1070.7
 31
0.0
  0
LINE
  5
22D
330
17
100
AcDbEntity
  8
TITLE_LINES
100
AcDbLine
 10
2174.0
 20
1085.55
 30
0.0
 11
2300.0
 21
1085.55
 31
0.0
  0
LINE
  5
22E
330
17
100
AcDbEntity
  8
TITLE_LINES
100
AcDbLine
 10
2216.0
 20
1041.0
 30
0.0
 11
2216.0
 21
1100.4
 31
0.0
  0
LINE
  5
22F
330
17
100
AcDbEntity
  8
TITLE_LINES
100
AcDbLine
 10
2258.0
 20
1041.0
 30
0.0
 11
2258.0
 21
1100.4
 31
0.0
  0
TEXT
  5
230
330
17
100
AcDbEntity
  8
TEXT
100
AcDbText
 10
2184.0
 20
1085.4
 30
0.0
 40
8.0
  1
H-04
100
AcDbText
  0
TEXT
  5
231
330
17
100
AcDbEntity
  8
TEXT
100
AcDbText
 10
2184.0
 20
1065.4
 30
0.0
 40
8.0
  1
暖通平面图
100
AcDbText
  0
TEXT
  5
232
330
17
100
AcDbEntity
  8
TEXT
100
AcDbText
 10
2184.0
 20
1050.4
 30
0.0
 40
6.0
  1
1:100
100
AcDbText
  0
TEXT
  5
233
330
17
100
AcDbEntity
  8
TEXT
100
AcDbText
 10
2224.4
 20
1085.4
 30
0.0
 40
6.0
  1
设计:
100
AcDbText
  0
TEXT
  5
234
330
17
100
AcDbEntity
  8
TEXT
100
AcDbText
 10
2224.4
 20
1065.4
 30
0.0
 40
6.0
  1
审核:
100
AcDbText
  0
TEXT
  5
235
330
17
100
AcDbEntity
  8
TEXT
100
AcDbText
 10
2262.2
 20
1085.4
 30
0.0
 40
6.0
  1
2024.05.28
100
AcDbText
  0
CIRCLE
  5
236
330
17
100
AcDbEntity
  8
SEAL
100
AcDbCircle
 10
2274.8
 20
1058.82
 30
0.0
 40
15.0
  0
LWPOLYLINE
  5
237
330
17
100
AcDbEntity
  8
STAMP
100
AcDbPolyline
 90
5
 70
0
 10
2264.8
 20
1072.58
 10
2284.8
 20
1072.58
 10
2284.8
 20
1092.58
 10
2264.8
 20
1092.58
 10
2264.8
 20
1072.58
  0
LINE
  5
238
330
17
100
AcDbEntity
  8
CONTENT
100
AcDbLine
 10
1900.0
 20
1061.0
 30
0.0
 11
1900.0
 21
1318.0
 31
0.0
  0
LINE
  5
239
330
17
100
AcDbEntity
  8
CONTENT
100
AcDbLine
 10
1950.8
 20
1061.0
 30
0.0
 11
1950.8
 21
1318.0
 31
0.0
  0
LINE
  5
23A
330
17
100
AcDbEntity
  8
CONTENT
100
AcDbLine
 10
2001.6
 20
1061.0
 30
0.0
 11
2001.6
 21
1318.0
 31
0.0
  0
LINE
  5
23B
330
17
100
AcDbEntity
  8
CONTENT
100
AcDbLine
 10
2052.4
 20
1061.0
 30
0.0
 11
2052.4
 21
1318.0
 31
0.0
  0
LINE
  5
23C
330
17
100
AcDbEntity
  8
CONTENT
100
AcDbLine
 10
2103.2
 20
1061.0
 30
0.0
 11
2103.2
 21
1318.0
 31
0.0
  0
LINE
  5
23D
330
17
100
AcDbEntity
  8
CONTENT
100
AcDbLine
 10
1900.0
 20
1061.0
 30
0.0
 11
2154.0
 21
1061.0
 31
0.0
  0
LINE
  5
23E
330
17
100
AcDbEntity
  8
CONTENT
100
AcDbLine
 10
1900.0
 20
1146.6666666666667
 30
0.0
 11
2154.0
 21
1146.6666666666667
 31
0.0
  0
LINE
  5
23F
330
17
100
AcDbEntity
  8
CONTENT
100
AcDbLine
 10
1900.0
 20
1232.3333333333333
 30
0.0
 11
2154.0
 21
1232.3333333333333
 31
0.0
  0
LWPOLYLINE
  5
240
330
17
100
AcDbEntity
  8
FRAME
100
AcDbPolyline
 90
5
 70
0
 10
2350.0
 20
1041.0
 10
2770.0
 20
1041.0
 10
2770.0
 20
1338.0
 10
2350.0
 20
1338.0
 10
2350.0
 20
1041.0
  0
LWPOLYLINE
  5
241
330
17
100
AcDbEntity
  8
TITLE_BLOCK
100
AcDbPolyline
 90
5
 70
0
 10
2644.0
 20
1041.0
 10
2770.0
 20
1041.0
 10
2770.0
 20
1100.4
 10
2644.0
 20
1100.4
 10
2644.0
 20
1041.0
  0
LINE
  5
242
330
17
100
AcDbEntity
  8
TITLE_LINES
100
AcDbLine
 10
2644.0
 20
1055.85
 30
0.0
 11
2770.0
 21
1055.85
 31
0.0
  0
LINE
  5
243
330
17
100
AcDbEntity
  8
TITLE_LINES
100
AcDbLine
 10
2644.0
 20
1070.7
 30
0.0
 11
2770.0
 21
1070.7
 31
0.0
  0
LINE
  5
244
330
17
100
AcDbEntity
  8
TITLE_LINES
100
AcDbLine
 10
2644.0
 20
1085.55
 30
0.0
 11
2770.0
 21
1085.55
 31
0.0
  0
LINE
  5
245
330
17
100
AcDbEntity
  8
TITLE_LINES
100
AcDbLine
 10
2686.0
 20
1041.0
 30
0.0
 11
2686.0
 21
1100.4
 31
0.0
  0
LINE
  5
246
330
17
100
AcDbEntity
  8
TITLE_LINES
100
AcDbLine
 10
2728.0
 20
1041.0
 30
0.0
 11
2728.0
 21
1100.4
 31
0.0
  0
TEXT
  5
247
330
17
100
AcDbEntity
  8
TEXT
100
AcDbText
 10
2654.0
 20
1085.4
 30
0.0
 40
8.0
  1
D-04
100
AcDbText
  0
TEXT
  5
248
330
17
100
AcDbEntity
  8
TEXT
100
AcDbText
 10
2654.0
 20
1065.4
 30
0.0
 40
8.0
  1
装修平面图
100
AcDbText
  0
TEXT
  5
249
330
17
100
AcDbEntity
  8
TEXT
100
AcDbText
 10
2654.0
 20
1050.4
 30
0.0
 40
6.0
  1
1:100
100
AcDbText
  0
TEXT
  5
24A
330
17
100
AcDbEntity
  8
TEXT
100
AcDbText
 10
2694.4
 20
1085.4
 30
0.0
 40
6.0
  1
设计:
100
AcDbText
  0
TEXT
  5
24B
330
17
100
AcDbEntity
  8
TEXT
100
AcDbText
 10
2694.4
 20
1065.4
 30
0.0
 40
6.0
  1
审核:
100
AcDbText
  0
TEXT
  5
24C
330
17
100
AcDbEntity
  8
TEXT
100
AcDbText
 10
2732.2
 20
1085.4
 30
0.0
 40
6.0
  1
2024.05.28
100
AcDbText
  0
CIRCLE
  5
24D
330
17
100
AcDbEntity
  8
SEAL
100
AcDbCircle
 10
2744.8
 20
1058.82
 30
0.0
 40
15.0
  0
LWPOLYLINE
  5
24E
330
17
100
AcDbEntity
  8
STAMP
100
AcDbPolyline
 90
5
 70
0
 10
2734.8
 20
1072.58
 10
2754.8
 20
1072.58
 10
2754.8
 20
1092.58
 10
2734.8
 20
1092.58
 10
2734.8
 20
1072.58
  0
LINE
  5
24F
330
17
100
AcDbEntity
  8
CONTENT
100
AcDbLine
 10
2370.0
 20
1061.0
 30
0.0
 11
2370.0
 21
1318.0
 31
0.0
  0
LINE
  5
250
330
17
100
AcDbEntity
  8
CONTENT
100
AcDbLine
 10
2420.8
 20
1061.0
 30
0.0
 11
2420.8
 21
1318.0
 31
0.0
  0
LINE
  5
251
330
17
100
AcDbEntity
  8
CONTENT
100
AcDbLine
 10
2471.6
 20
1061.0
 30
0.0
 11
2471.6
 21
1318.0
 31
0.0
  0
LINE
  5
252
330
17
100
AcDbEntity
  8
CONTENT
100
AcDbLine
 10
2522.4
 20
1061.0
 30
0.0
 11
2522.4
 21
1318.0
 31
0.0
  0
LINE
  5
253
330
17
100
AcDbEntity
  8
CONTENT
100
AcDbLine
 10
2573.2
 20
1061.0
 30
0.0
 11
2573.2
 21
1318.0
 31
0.0
  0
LINE
  5
254
330
17
100
AcDbEntity
  8
CONTENT
100
AcDbLine
 10
2370.0
 20
1061.0
 30
0.0
 11
2624.0
 21
1061.0
 31
0.0
  0
LINE
  5
255
330
17
100
AcDbEntity
  8
CONTENT
100
AcDbLine
 10
2370.0
 20
1146.6666666666667
 30
0.0
 11
2624.0
 21
1146.6666666666667
 31
0.0
  0
LINE
  5
256
330
17
100
AcDbEntity
  8
CONTENT
100
AcDbLine
 10
2370.0
 20
1232.3333333333333
 30
0.0
 11
2624.0
 21
1232.3333333333333
 31
0.0
  0
LWPOLYLINE
  5
257
330
17
100
AcDbEntity
  8
FRAME
100
AcDbPolyline
 90
5
 70
0
 10
0.0
 20
1388.0
 10
420.0
 20
1388.0
 10
420.0
 20
1685.0
 10
0.0
 20
1685.0
 10
0.0
 20
1388.0
  0
LWPOLYLINE
  5
258
330
17
100
AcDbEntity
  8
TITLE_BLOCK
100
AcDbPolyline
 90
5
 70
0
 10
294.0
 20
1388.0
 10
420.0
 20
1388.0
 10
420.0
 20
1447.4
 10
294.0
 20
1447.4
 10
294.0
 20
1388.0
  0
LINE
  5
259
330
17
100
AcDbEntity
  8
TITLE_LINES
100
AcDbLine
 10
294.0
 20
1402.85
 30
0.0
 11
420.0
 21
1402.85
 31
0.0
  0
LINE
  5
25A
330
17
100
AcDbEntity
  8
TITLE_LINES
100
AcDbLine
 10
294.0
 20
1417.7
 30
0.0
 11
420.0
 21
1417.7
 31
0.0
  0
LINE
  5
25B
330
17
100
AcDbEntity
  8
TITLE_LINES
100
AcDbLine
 10
294.0
 20
1432.55
 30
0.0
 11
420.0
 21
1432.55
 31
0.0
  0
LINE
  5
25C
330
17
100
AcDbEntity
  8
TITLE_LINES
100
AcDbLine
 10
336.0
 20
1388.0
 30
0.0
 11
336.0
 21
1447.4
 31
0.0
  0
LINE
  5
25D
330
17
100
AcDbEntity
  8
TITLE_LINES
100
AcDbLine
 10
378.0
 20
1388.0
 30
0.0
 11
378.0
 21
1447.4
 31
0.0
  0
TEXT
  5
25E
330
17
100
AcDbEntity
  8
TEXT
100
AcDbText
 10
304.0
 20
1432.4
 30
0.0
 40
8.0
  1
A-05
100
AcDbText
  0
TEXT
  5
25F
330
17
100
AcDbEntity
  8
TEXT
100
AcDbText
 10
304.0
 20
1412.4
 30
0.0
 40
8.0
  1
建筑平面图
100
AcDbText
  0
TEXT
  5
260
330
17
100
AcDbEntity
  8
TEXT
100
AcDbText
 10
304.0
 20
1397.4
 30
0.0
 40
6.0
  1
1:100
100
AcDbText
  0
TEXT
  5
261
330
17
100
AcDbEntity
  8
TEXT
100
AcDbText
 10
344.4
 20
1432.4
 30
0.0
 40
6.0
  1
设计:
100
AcDbText
  0
TEXT
  5
262
330
17
100
AcDbEntity
  8
TEXT
100
AcDbText
 10
344.4
 20
1412.4
 30
0.0
 40
6.0
  1
审核:
100
AcDbText
  0
TEXT
  5
263
330
17
100
AcDbEntity
  8
TEXT
100
AcDbText
 10
382.2
 20
1432.4
 30
0.0
 40
6.0
  1
2024.05.28
100
AcDbText
  0
CIRCLE
  5
264
330
17
100
AcDbEntity
  8
SEAL
100
AcDbCircle
 10
394.8
 20
1405.82
 30
0.0
 40
15.0
  0
LWPOLYLINE
  5
265
330
17
100
AcDbEntity
  8
STAMP
100
AcDbPolyline
 90
5
 70
0
 10
384.8
 20
1419.58
 10
404.8
 20
1419.58
 10
404.8
 20
1439.58
 10
384.8
 20
1439.58
 10
384.8
 20
1419.58
  0
LINE
  5
266
330
17
100
AcDbEntity
  8
CONTENT
100
AcDbLine
 10
20.0
 20
1408.0
 30
0.0
 11
20.0
 21
1665.0
 31
0.0
  0
LINE
  5
267
330
17
100
AcDbEntity
  8
CONTENT
100
AcDbLine
 10
70.8
 20
1408.0
 30
0.0
 11
70.8
 21
1665.0
 31
0.0
  0
LINE
  5
268
330
17
100
AcDbEntity
  8
CONTENT
100
AcDbLine
 10
121.6
 20
1408.0
 30
0.0
 11
121.6
 21
1665.0
 31
0.0
  0
LINE
  5
269
330
17
100
AcDbEntity
  8
CONTENT
100
AcDbLine
 10
172.39999999999998
 20
1408.0
 30
0.0
 11
172.39999999999998
 21
1665.0
 31
0.0
  0
LINE
  5
26A
330
17
100
AcDbEntity
  8
CONTENT
100
AcDbLine
 10
223.2
 20
1408.0
 30
0.0
 11
223.2
 21
1665.0
 31
0.0
  0
LINE
  5
26B
330
17
100
AcDbEntity
  8
CONTENT
100
AcDbLine
 10
20.0
 20
1408.0
 30
0.0
 11
274.0
 21
1408.0
 31
0.0
  0
LINE
  5
26C
330
17
100
AcDbEntity
  8
CONTENT
100
AcDbLine
 10
20.0
 20
1493.6666666666667
 30
0.0
 11
274.0
 21
1493.6666666666667
 31
0.0
  0
LINE
  5
26D
330
17
100
AcDbEntity
  8
CONTENT
100
AcDbLine
 10
20.0
 20
1579.3333333333333
 30
0.0
 11
274.0
 21
1579.3333333333333
 31
0.0
  0
LWPOLYLINE
  5
26E
330
17
100
AcDbEntity
  8
FRAME
100
AcDbPolyline
 90
5
 70
0
 10
470.0
 20
1388.0
 10
890.0
 20
1388.0
 10
890.0
 20
1685.0
 10
470.0
 20
1685.0
 10
470.0
 20
1388.0
  0
LWPOLYLINE
  5
26F
330
17
100
AcDbEntity
  8
TITLE_BLOCK
100
AcDbPolyline
 90
5
 70
0
 10
764.0
 20
1388.0
 10
890.0
 20
1388.0
 10
890.0
 20
1447.4
 10
764.0
 20
1447.4
 10
764.0
 20
1388.0
  0
LINE
  5
270
330
17
100
AcDbEntity
  8
TITLE_LINES
100
AcDbLine
 10
764.0
 20
1402.85
 30
0.0
 11
890.0
 21
1402.85
 31
0.0
  0
LINE
  5
271
330
17
100
AcDbEntity
  8
TITLE_LINES
100
AcDbLine
 10
764.0
 20
1417.7
 30
0.0
 11
890.0
 21
1417.7
 31
0.0
  0
LINE
  5
272
330
17
100
AcDbEntity
  8
TITLE_LINES
100
AcDbLine
 10
764.0
 20
1432.55
 30
0.0
 11
890.0
 21
1432.55
 31
0.0
  0
LINE
  5
273
330
17
100
AcDbEntity
  8
TITLE_LINES
100
AcDbLine
 10
806.0
 20
1388.0
 30
0.0
 11
806.0
 21
1447.4
 31
0.0
  0
LINE
  5
274
330
17
100
AcDbEntity
  8
TITLE_LINES
100
AcDbLine
 10
848.0
 20
1388.0
 30
0.0
 11
848.0
 21
1447.4
 31
0.0
  0
TEXT
  5
275
330
17
100
AcDbEntity
  8
TEXT
100
AcDbText
 10
774.0
 20
1432.4
 30
0.0
 40
8.0
  1
S-05
100
AcDbText
  0
TEXT
  5
276
330
17
100
AcDbEntity
  8
TEXT
100
AcDbText
 10
774.0
 20
1412.4
 30
0.0
 40
8.0
  1
结构平面图
100
AcDbText
  0
TEXT
  5
277
330
17
100
AcDbEntity
  8
TEXT
100
AcDbText
 10
774.0
 20
1397.4
 30
0.0
 40
6.0
  1
1:100
100
AcDbText
  0
TEXT
  5
278
330
17
100
AcDbEntity
  8
TEXT
100
AcDbText
 10
814.4
 20
1432.4
 30
0.0
 40
6.0
  1
设计:
100
AcDbText
  0
TEXT
  5
279
330
17
100
AcDbEntity
  8
TEXT
100
AcDbText
 10
814.4
 20
1412.4
 30
0.0
 40
6.0
  1
审核:
100
AcDbText
  0
TEXT
  5
27A
330
17
100
AcDbEntity
  8
TEXT
100
AcDbText
 10
852.2
 20
1432.4
 30
0.0
 40
6.0
  1
2024.05.28
100
AcDbText
  0
CIRCLE
  5
27B
330
17
100
AcDbEntity
  8
SEAL
100
AcDbCircle
 10
864.8
 20
1405.82
 30
0.0
 40
15.0
  0
LWPOLYLINE
  5
27C
330
17
100
AcDbEntity
  8
STAMP
100
AcDbPolyline
 90
5
 70
0
 10
854.8
 20
1419.58
 10
874.8
 20
1419.58
 10
874.8
 20
1439.58
 10
854.8
 20
1439.58
 10
854.8
 20
1419.58
  0
LINE
  5
27D
330
17
100
AcDbEntity
  8
CONTENT
100
AcDbLine
 10
490.0
 20
1408.0
 30
0.0
 11
490.0
 21
1665.0
 31
0.0
  0
LINE
  5
27E
330
17
100
AcDbEntity
  8
CONTENT
100
AcDbLine
 10
540.8
 20
1408.0
 30
0.0
 11
540.8
 21
1665.0
 31
0.0
  0
LINE
  5
27F
330
17
100
AcDbEntity
  8
CONTENT
100
AcDbLine
 10
591.6
 20
1408.0
 30
0.0
 11
591.6
 21
1665.0
 31
0.0
  0
LINE
  5
280
330
17
100
AcDbEntity
  8
CONTENT
100
AcDbLine
 10
642.4
 20
1408.0
 30
0.0
 11
642.4
 21
1665.0
 31
0.0
  0
LINE
  5
281
330
17
100
AcDbEntity
  8
CONTENT
100
AcDbLine
 10
693.2
 20
1408.0
 30
0.0
 11
693.2
 21
1665.0
 31
0.0
  0
LINE
  5
282
330
17
100
AcDbEntity
  8
CONTENT
100
AcDbLine
 10
490.0
 20
1408.0
 30
0.0
 11
744.0
 21
1408.0
 31
0.0
  0
LINE
  5
283
330
17
100
AcDbEntity
  8
CONTENT
100
AcDbLine
 10
490.0
 20
1493.6666666666667
 30
0.0
 11
744.0
 21
1493.6666666666667
 31
0.0
  0
LINE
  5
284
330
17
100
AcDbEntity
  8
CONTENT
100
AcDbLine
 10
490.0
 20
1579.3333333333333
 30
0.0
 11
744.0
 21
1579.3333333333333
 31
0.0
  0
LWPOLYLINE
  5
285
330
17
100
AcDbEntity
  8
FRAME
100
AcDbPolyline
 90
5
 70
0
 10
940.0
 20
1388.0
 10
1360.0
 20
1388.0
 10
1360.0
 20
1685.0
 10
940.0
 20
1685.0
 10
940.0
 20
1388.0
  0
LWPOLYLINE
  5
286
330
17
100
AcDbEntity
  8
TITLE_BLOCK
100
AcDbPolyline
 90
5
 70
0
 10
1234.0
 20
1388.0
 10
1360.0
 20
1388.0
 10
1360.0
 20
1447.4
 10
1234.0
 20
1447.4
 10
1234.0
 20
1388.0
  0
LINE
  5
287
330
17
100
AcDbEntity
  8
TITLE_LINES
100
AcDbLine
 10
1234.0
 20
1402.85
 30
0.0
 11
1360.0
 21
1402.85
 31
0.0
  0
LINE
  5
288
330
17
100
AcDbEntity
  8
TITLE_LINES
100
AcDbLine
 10
1234.0
 20
1417.7
 30
0.0
 11
1360.0
 21
1417.7
 31
0.0
  0
LINE
  5
289
330
17
100
AcDbEntity
  8
TITLE_LINES
100
AcDbLine
 10
1234.0
 20
1432.55
 30
0.0
 11
1360.0
 21
1432.55
 31
0.0
  0
LINE
  5
28A
330
17
100
AcDbEntity
  8
TITLE_LINES
100
AcDbLine
 10
1276.0
 20
1388.0
 30
0.0
 11
1276.0
 21
1447.4
 31
0.0
  0
LINE
  5
28B
330
17
100
AcDbEntity
  8
TITLE_LINES
100
AcDbLine
 10
1318.0
 20
1388.0
 30
0.0
 11
1318.0
 21
1447.4
 31
0.0
  0
TEXT
  5
28C
330
17
100
AcDbEntity
  8
TEXT
100
AcDbText
 10
1244.0
 20
1432.4
 30
0.0
 40
8.0
  1
W-05
100
AcDbText
  0
TEXT
  5
28D
330
17
100
AcDbEntity
  8
TEXT
100
AcDbText
 10
1244.0
 20
1412.4
 30
0.0
 40
8.0
  1
给排水平面图
100
AcDbText
  0
TEXT
  5
28E
330
17
100
AcDbEntity
  8
TEXT
100
AcDbText
 10
1244.0
 20
1397.4
 30
0.0
 40
6.0
  1
1:100
100
AcDbText
  0
TEXT
  5
28F
330
17
100
AcDbEntity
  8
TEXT
100
AcDbText
 10
1284.4
 20
1432.4
 30
0.0
 40
6.0
  1
设计:
100
AcDbText
  0
TEXT
  5
290
330
17
100
AcDbEntity
  8
TEXT
100
AcDbText
 10
1284.4
 20
1412.4
 30
0.0
 40
6.0
  1
审核:
100
AcDbText
  0
TEXT
  5
291
330
17
100
AcDbEntity
  8
TEXT
100
AcDbText
 10
1322.2
 20
1432.4
 30
0.0
 40
6.0
  1
2024.05.28
100
AcDbText
  0
CIRCLE
  5
292
330
17
100
AcDbEntity
  8
SEAL
100
AcDbCircle
 10
1334.8
 20
1405.82
 30
0.0
 40
15.0
  0
LWPOLYLINE
  5
293
330
17
100
AcDbEntity
  8
STAMP
100
AcDbPolyline
 90
5
 70
0
 10
1324.8
 20
1419.58
 10
1344.8
 20
1419.58
 10
1344.8
 20
1439.58
 10
1324.8
 20
1439.58
 10
1324.8
 20
1419.58
  0
LINE
  5
294
330
17
100
AcDbEntity
  8
CONTENT
100
AcDbLine
 10
960.0
 20
1408.0
 30
0.0
 11
960.0
 21
1665.0
 31
0.0
  0
LINE
  5
295
330
17
100
AcDbEntity
  8
CONTENT
100
AcDbLine
 10
1010.8
 20
1408.0
 30
0.0
 11
1010.8
 21
1665.0
 31
0.0
  0
LINE
  5
296
330
17
100
AcDbEntity
  8
CONTENT
100
AcDbLine
 10
1061.6
 20
1408.0
 30
0.0
 11
1061.6
 21
1665.0
 31
0.0
  0
LINE
  5
297
330
17
100
AcDbEntity
  8
CONTENT
100
AcDbLine
 10
1112.4
 20
1408.0
 30
0.0
 11
1112.4
 21
1665.0
 31
0.0
  0
LINE
  5
298
330
17
100
AcDbEntity
  8
CONTENT
100
AcDbLine
 10
1163.2
 20
1408.0
 30
0.0
 11
1163.2
 21
1665.0
 31
0.0
  0
LINE
  5
299
330
17
100
AcDbEntity
  8
CONTENT
100
AcDbLine
 10
960.0
 20
1408.0
 30
0.0
 11
1214.0
 21
1408.0
 31
0.0
  0
LINE
  5
29A
330
17
100
AcDbEntity
  8
CONTENT
100
AcDbLine
 10
960.0
 20
1493.6666666666667
 30
0.0
 11
1214.0
 21
1493.6666666666667
 31
0.0
  0
LINE
  5
29B
330
17
100
AcDbEntity
  8
CONTENT
100
AcDbLine
 10
960.0
 20
1579.3333333333333
 30
0.0
 11
1214.0
 21
1579.3333333333333
 31
0.0
  0
LWPOLYLINE
  5
29C
330
17
100
AcDbEntity
  8
FRAME
100
AcDbPolyline
 90
5
 70
0
 10
1410.0
 20
1388.0
 10
1830.0
 20
1388.0
 10
1830.0
 20
1685.0
 10
1410.0
 20
1685.0
 10
1410.0
 20
1388.0
  0
LWPOLYLINE
  5
29D
330
17
100
AcDbEntity
  8
TITLE_BLOCK
100
AcDbPolyline
 90
5
 70
0
 10
1704.0
 20
1388.0
 10
1830.0
 20
1388.0
 10
1830.0
 20
1447.4
 10
1704.0
 20
1447.4
 10
1704.0
 20
1388.0
  0
LINE
  5
29E
330
17
100
AcDbEntity
  8
TITLE_LINES
100
AcDbLine
 10
1704.0
 20
1402.85
 30
0.0
 11
1830.0
 21
1402.85
 31
0.0
  0
LINE
  5
29F
330
17
100
AcDbEntity
  8
TITLE_LINES
100
AcDbLine
 10
1704.0
 20
1417.7
 30
0.0
 11
1830.0
 21
1417.7
 31
0.0
  0
LINE
  5
2A0
330
17
100
AcDbEntity
  8
TITLE_LINES
100
AcDbLine
 10
1704.0
 20
1432.55
 30
0.0
 11
1830.0
 21
1432.55
 31
0.0
  0
LINE
  5
2A1
330
17
100
AcDbEntity
  8
TITLE_LINES
100
AcDbLine
 10
1746.0
 20
1388.0
 30
0.0
 11
1746.0
 21
1447.4
 31
0.0
  0
LINE
  5
2A2
330
17
100
AcDbEntity
  8
TITLE_LINES
100
AcDbLine
 10
1788.0
 20
1388.0
 30
0.0
 11
1788.0
 21
1447.4
 31
0.0
  0
TEXT
  5
2A3
330
17
100
AcDbEntity
  8
TEXT
100
AcDbText
 10
1714.0
 20
1432.4
 30
0.0
 40
8.0
  1
E-05
100
AcDbText
  0
TEXT
  5
2A4
330
17
100
AcDbEntity
  8
TEXT
100
AcDbText
 10
1714.0
 20
1412.4
 30
0.0
 40
8.0
  1
电气平面图
100
AcDbText
  0
TEXT
  5
2A5
330
17
100
AcDbEntity
  8
TEXT
100
AcDbText
 10
1714.0
 20
1397.4
 30
0.0
 40
6.0
  1
1:100
100
AcDbText
  0
TEXT
  5
2A6
330
17
100
AcDbEntity
  8
TEXT
100
AcDbText
 10
1754.4
 20
1432.4
 30
0.0
 40
6.0
  1
设计:
100
AcDbText
  0
TEXT
  5
2A7
330
17
100
AcDbEntity
  8
TEXT
100
AcDbText
 10
1754.4
 20
1412.4
 30
0.0
 40
6.0
  1
审核:
100
AcDbText
  0
TEXT
  5
2A8
330
17
100
AcDbEntity
  8
TEXT
100
AcDbText
 10
1792.2
 20
1432.4
 30
0.0
 40
6.0
  1
2024.05.28
100
AcDbText
  0
CIRCLE
  5
2A9
330
17
100
AcDbEntity
  8
SEAL
100
AcDbCircle
 10
1804.8
 20
1405.82
 30
0.0
 40
15.0
  0
LWPOLYLINE
  5
2AA
330
17
100
AcDbEntity
  8
STAMP
100
AcDbPolyline
 90
5
 70
0
 10
1794.8
 20
1419.58
 10
1814.8
 20
1419.58
 10
1814.8
 20
1439.58
 10
1794.8
 20
1439.58
 10
1794.8
 20
1419.58
  0
LINE
  5
2AB
330
17
100
AcDbEntity
  8
CONTENT
100
AcDbLine
 10
1430.0
 20
1408.0
 30
0.0
 11
1430.0
 21
1665.0
 31
0.0
  0
LINE
  5
2AC
330
17
100
AcDbEntity
  8
CONTENT
100
AcDbLine
 10
1480.8
 20
1408.0
 30
0.0
 11
1480.8
 21
1665.0
 31
0.0
  0
LINE
  5
2AD
330
17
100
AcDbEntity
  8
CONTENT
100
AcDbLine
 10
1531.6
 20
1408.0
 30
0.0
 11
1531.6
 21
1665.0
 31
0.0
  0
LINE
  5
2AE
330
17
100
AcDbEntity
  8
CONTENT
100
AcDbLine
 10
1582.4
 20
1408.0
 30
0.0
 11
1582.4
 21
1665.0
 31
0.0
  0
LINE
  5
2AF
330
17
100
AcDbEntity
  8
CONTENT
100
AcDbLine
 10
1633.2
 20
1408.0
 30
0.0
 11
1633.2
 21
1665.0
 31
0.0
  0
LINE
  5
2B0
330
17
100
AcDbEntity
  8
CONTENT
100
AcDbLine
 10
1430.0
 20
1408.0
 30
0.0
 11
1684.0
 21
1408.0
 31
0.0
  0
LINE
  5
2B1
330
17
100
AcDbEntity
  8
CONTENT
100
AcDbLine
 10
1430.0
 20
1493.6666666666667
 30
0.0
 11
1684.0
 21
1493.6666666666667
 31
0.0
  0
LINE
  5
2B2
330
17
100
AcDbEntity
  8
CONTENT
100
AcDbLine
 10
1430.0
 20
1579.3333333333333
 30
0.0
 11
1684.0
 21
1579.3333333333333
 31
0.0
  0
LWPOLYLINE
  5
2B3
330
17
100
AcDbEntity
  8
FRAME
100
AcDbPolyline
 90
5
 70
0
 10
1880.0
 20
1388.0
 10
2300.0
 20
1388.0
 10
2300.0
 20
1685.0
 10
1880.0
 20
1685.0
 10
1880.0
 20
1388.0
  0
LWPOLYLINE
  5
2B4
330
17
100
AcDbEntity
  8
TITLE_BLOCK
100
AcDbPolyline
 90
5
 70
0
 10
2174.0
 20
1388.0
 10
2300.0
 20
1388.0
 10
2300.0
 20
1447.4
 10
2174.0
 20
1447.4
 10
2174.0
 20
1388.0
  0
LINE
  5
2B5
330
17
100
AcDbEntity
  8
TITLE_LINES
100
AcDbLine
 10
2174.0
 20
1402.85
 30
0.0
 11
2300.0
 21
1402.85
 31
0.0
  0
LINE
  5
2B6
330
17
100
AcDbEntity
  8
TITLE_LINES
100
AcDbLine
 10
2174.0
 20
1417.7
 30
0.0
 11
2300.0
 21
1417.7
 31
0.0
  0
LINE
  5
2B7
330
17
100
AcDbEntity
  8
TITLE_LINES
100
AcDbLine
 10
2174.0
 20
1432.55
 30
0.0
 11
2300.0
 21
1432.55
 31
0.0
  0
LINE
  5
2B8
330
17
100
AcDbEntity
  8
TITLE_LINES
100
AcDbLine
 10
2216.0
 20
1388.0
 30
0.0
 11
2216.0
 21
1447.4
 31
0.0
  0
LINE
  5
2B9
330
17
100
AcDbEntity
  8
TITLE_LINES
100
AcDbLine
 10
2258.0
 20
1388.0
 30
0.0
 11
2258.0
 21
1447.4
 31
0.0
  0
TEXT
  5
2BA
330
17
100
AcDbEntity
  8
TEXT
100
AcDbText
 10
2184.0
 20
1432.4
 30
0.0
 40
8.0
  1
H-05
100
AcDbText
  0
TEXT
  5
2BB
330
17
100
AcDbEntity
  8
TEXT
100
AcDbText
 10
2184.0
 20
1412.4
 30
0.0
 40
8.0
  1
暖通平面图
100
AcDbText
  0
TEXT
  5
2BC
330
17
100
AcDbEntity
  8
TEXT
100
AcDbText
 10
2184.0
 20
1397.4
 30
0.0
 40
6.0
  1
1:100
100
AcDbText
  0
TEXT
  5
2BD
330
17
100
AcDbEntity
  8
TEXT
100
AcDbText
 10
2224.4
 20
1432.4
 30
0.0
 40
6.0
  1
设计:
100
AcDbText
  0
TEXT
  5
2BE
330
17
100
AcDbEntity
  8
TEXT
100
AcDbText
 10
2224.4
 20
1412.4
 30
0.0
 40
6.0
  1
审核:
100
AcDbText
  0
TEXT
  5
2BF
330
17
100
AcDbEntity
  8
TEXT
100
AcDbText
 10
2262.2
 20
1432.4
 30
0.0
 40
6.0
  1
2024.05.28
100
AcDbText
  0
CIRCLE
  5
2C0
330
17
100
AcDbEntity
  8
SEAL
100
AcDbCircle
 10
2274.8
 20
1405.82
 30
0.0
 40
15.0
  0
LWPOLYLINE
  5
2C1
330
17
100
AcDbEntity
  8
STAMP
100
AcDbPolyline
 90
5
 70
0
 10
2264.8
 20
1419.58
 10
2284.8
 20
1419.58
 10
2284.8
 20
1439.58
 10
2264.8
 20
1439.58
 10
2264.8
 20
1419.58
  0
LINE
  5
2C2
330
17
100
AcDbEntity
  8
CONTENT
100
AcDbLine
 10
1900.0
 20
1408.0
 30
0.0
 11
1900.0
 21
1665.0
 31
0.0
  0
LINE
  5
2C3
330
17
100
AcDbEntity
  8
CONTENT
100
AcDbLine
 10
1950.8
 20
1408.0
 30
0.0
 11
1950.8
 21
1665.0
 31
0.0
  0
LINE
  5
2C4
330
17
100
AcDbEntity
  8
CONTENT
100
AcDbLine
 10
2001.6
 20
1408.0
 30
0.0
 11
2001.6
 21
1665.0
 31
0.0
  0
LINE
  5
2C5
330
17
100
AcDbEntity
  8
CONTENT
100
AcDbLine
 10
2052.4
 20
1408.0
 30
0.0
 11
2052.4
 21
1665.0
 31
0.0
  0
LINE
  5
2C6
330
17
100
AcDbEntity
  8
CONTENT
100
AcDbLine
 10
2103.2
 20
1408.0
 30
0.0
 11
2103.2
 21
1665.0
 31
0.0
  0
LINE
  5
2C7
330
17
100
AcDbEntity
  8
CONTENT
100
AcDbLine
 10
1900.0
 20
1408.0
 30
0.0
 11
2154.0
 21
1408.0
 31
0.0
  0
LINE
  5
2C8
330
17
100
AcDbEntity
  8
CONTENT
100
AcDbLine
 10
1900.0
 20
1493.6666666666667
 30
0.0
 11
2154.0
 21
1493.6666666666667
 31
0.0
  0
LINE
  5
2C9
330
17
100
AcDbEntity
  8
CONTENT
100
AcDbLine
 10
1900.0
 20
1579.3333333333333
 30
0.0
 11
2154.0
 21
1579.3333333333333
 31
0.0
  0
LWPOLYLINE
  5
2CA
330
17
100
AcDbEntity
  8
FRAME
100
AcDbPolyline
 90
5
 70
0
 10
2350.0
 20
1388.0
 10
2770.0
 20
1388.0
 10
2770.0
 20
1685.0
 10
2350.0
 20
1685.0
 10
2350.0
 20
1388.0
  0
LWPOLYLINE
  5
2CB
330
17
100
AcDbEntity
  8
TITLE_BLOCK
100
AcDbPolyline
 90
5
 70
0
 10
2644.0
 20
1388.0
 10
2770.0
 20
1388.0
 10
2770.0
 20
1447.4
 10
2644.0
 20
1447.4
 10
2644.0
 20
1388.0
  0
LINE
  5
2CC
330
17
100
AcDbEntity
  8
TITLE_LINES
100
AcDbLine
 10
2644.0
 20
1402.85
 30
0.0
 11
2770.0
 21
1402.85
 31
0.0
  0
LINE
  5
2CD
330
17
100
AcDbEntity
  8
TITLE_LINES
100
AcDbLine
 10
2644.0
 20
1417.7
 30
0.0
 11
2770.0
 21
1417.7
 31
0.0
  0
LINE
  5
2CE
330
17
100
AcDbEntity
  8
TITLE_LINES
100
AcDbLine
 10
2644.0
 20
1432.55
 30
0.0
 11
2770.0
 21
1432.55
 31
0.0
  0
LINE
  5
2CF
330
17
100
AcDbEntity
  8
TITLE_LINES
100
AcDbLine
 10
2686.0
 20
1388.0
 30
0.0
 11
2686.0
 21
1447.4
 31
0.0
  0
LINE
  5
2D0
330
17
100
AcDbEntity
  8
TITLE_LINES
100
AcDbLine
 10
2728.0
 20
1388.0
 30
0.0
 11
2728.0
 21
1447.4
 31
0.0
  0
TEXT
  5
2D1
330
17
100
AcDbEntity
  8
TEXT
100
AcDbText
 10
2654.0
 20
1432.4
 30
0.0
 40
8.0
  1
D-05
100
AcDbText
  0
TEXT
  5
2D2
330
17
100
AcDbEntity
  8
TEXT
100
AcDbText
 10
2654.0
 20
1412.4
 30
0.0
 40
8.0
  1
装修平面图
100
AcDbText
  0
TEXT
  5
2D3
330
17
100
AcDbEntity
  8
TEXT
100
AcDbText
 10
2654.0
 20
1397.4
 30
0.0
 40
6.0
  1
1:100
100
AcDbText
  0
TEXT
  5
2D4
330
17
100
AcDbEntity
  8
TEXT
100
AcDbText
 10
2694.4
 20
1432.4
 30
0.0
 40
6.0
  1
设计:
100
AcDbText
  0
TEXT
  5
2D5
330
17
100
AcDbEntity
  8
TEXT
100
AcDbText
 10
2694.4
 20
1412.4
 30
0.0
 40
6.0
  1
审核:
100
AcDbText
  0
TEXT
  5
2D6
330
17
100
AcDbEntity
  8
TEXT
100
AcDbText
 10
2732.2
 20
1432.4
 30
0.0
 40
6.0
  1
2024.05.28
100
AcDbText
  0
CIRCLE
  5
2D7
330
17
100
AcDbEntity
  8
SEAL
100
AcDbCircle
 10
2744.8
 20
1405.82
 30
0.0
 40
15.0
  0
LWPOLYLINE
  5
2D8
330
17
100
AcDbEntity
  8
STAMP
100
AcDbPolyline
 90
5
 70
0
 10
2734.8
 20
1419.58
 10
2754.8
 20
1419.58
 10
2754.8
 20
1439.58
 10
2734.8
 20
1439.58
 10
2734.8
 20
1419.58
  0
LINE
  5
2D9
330
17
100
AcDbEntity
  8
CONTENT
100
AcDbLine
 10
2370.0
 20
1408.0
 30
0.0
 11
2370.0
 21
1665.0
 31
0.0
  0
LINE
  5
2DA
330
17
100
AcDbEntity
  8
CONTENT
100
AcDbLine
 10
2420.8
 20
1408.0
 30
0.0
 11
2420.8
 21
1665.0
 31
0.0
  0
LINE
  5
2DB
330
17
100
AcDbEntity
  8
CONTENT
100
AcDbLine
 10
2471.6
 20
1408.0
 30
0.0
 11
2471.6
 21
1665.0
 31
0.0
  0
LINE
  5
2DC
330
17
100
AcDbEntity
  8
CONTENT
100
AcDbLine
 10
2522.4
 20
1408.0
 30
0.0
 11
2522.4
 21
1665.0
 31
0.0
  0
LINE
  5
2DD
330
17
100
AcDbEntity
  8
CONTENT
100
AcDbLine
 10
2573.2
 20
1408.0
 30
0.0
 11
2573.2
 21
1665.0
 31
0.0
  0
LINE
  5
2DE
330
17
100
AcDbEntity
  8
CONTENT
100
AcDbLine
 10
2370.0
 20
1408.0
 30
0.0
 11
2624.0
 21
1408.0
 31
0.0
  0
LINE
  5
2DF
330
17
100
AcDbEntity
  8
CONTENT
100
AcDbLine
 10
2370.0
 20
1493.6666666666667
 30
0.0
 11
2624.0
 21
1493.6666666666667
 31
0.0
  0
LINE
  5
2E0
330
17
100
AcDbEntity
  8
CONTENT
100
AcDbLine
 10
2370.0
 20
1579.3333333333333
 30
0.0
 11
2624.0
 21
1579.3333333333333
 31
0.0
  0
LWPOLYLINE
  5
2E1
330
17
100
AcDbEntity
  8
FRAME
100
AcDbPolyline
 90
5
 70
0
 10
0.0
 20
1735.0
 10
420.0
 20
1735.0
 10
420.0
 20
2032.0
 10
0.0
 20
2032.0
 10
0.0
 20
1735.0
  0
LWPOLYLINE
  5
2E2
330
17
100
AcDbEntity
  8
TITLE_BLOCK
100
AcDbPolyline
 90
5
 70
0
 10
294.0
 20
1735.0
 10
420.0
 20
1735.0
 10
420.0
 20
1794.4
 10
294.0
 20
1794.4
 10
294.0
 20
1735.0
  0
LINE
  5
2E3
330
17
100
AcDbEntity
  8
TITLE_LINES
100
AcDbLine
 10
294.0
 20
1749.85
 30
0.0
 11
420.0
 21
1749.85
 31
0.0
  0
LINE
  5
2E4
330
17
100
AcDbEntity
  8
TITLE_LINES
100
AcDbLine
 10
294.0
 20
1764.7
 30
0.0
 11
420.0
 21
1764.7
 31
0.0
  0
LINE
  5
2E5
330
17
100
AcDbEntity
  8
TITLE_LINES
100
AcDbLine
 10
294.0
 20
1779.55
 30
0.0
 11
420.0
 21
1779.55
 31
0.0
  0
LINE
  5
2E6
330
17
100
AcDbEntity
  8
TITLE_LINES
100
AcDbLine
 10
336.0
 20
1735.0
 30
0.0
 11
336.0
 21
1794.4
 31
0.0
  0
LINE
  5
2E7
330
17
100
AcDbEntity
  8
TITLE_LINES
100
AcDbLine
 10
378.0
 20
1735.0
 30
0.0
 11
378.0
 21
1794.4
 31
0.0
  0
TEXT
  5
2E8
330
17
100
AcDbEntity
  8
TEXT
100
AcDbText
 10
304.0
 20
1779.4
 30
0.0
 40
8.0
  1
A-06
100
AcDbText
  0
TEXT
  5
2E9
330
17
100
AcDbEntity
  8
TEXT
100
AcDbText
 10
304.0
 20
1759.4
 30
0.0
 40
8.0
  1
建筑平面图
100
AcDbText
  0
TEXT
  5
2EA
330
17
100
AcDbEntity
  8
TEXT
100
AcDbText
 10
304.0
 20
1744.4
 30
0.0
 40
6.0
  1
1:100
100
AcDbText
  0
TEXT
  5
2EB
330
17
100
AcDbEntity
  8
TEXT
100
AcDbText
 10
344.4
 20
1779.4
 30
0.0
 40
6.0
  1
设计:
100
AcDbText
  0
TEXT
  5
2EC
330
17
100
AcDbEntity
  8
TEXT
100
AcDbText
 10
344.4
 20
1759.4
 30
0.0
 40
6.0
  1
审核:
100
AcDbText
  0
TEXT
  5
2ED
330
17
100
AcDbEntity
  8
TEXT
100
AcDbText
 10
382.2
 20
1779.4
 30
0.0
 40
6.0
  1
2024.05.28
100
AcDbText
  0
CIRCLE
  5
2EE
330
17
100
AcDbEntity
  8
SEAL
100
AcDbCircle
 10
394.8
 20
1752.82
 30
0.0
 40
15.0
  0
LWPOLYLINE
  5
2EF
330
17
100
AcDbEntity
  8
STAMP
100
AcDbPolyline
 90
5
 70
0
 10
384.8
 20
1766.58
 10
404.8
 20
1766.58
 10
404.8
 20
1786.58
 10
384.8
 20
1786.58
 10
384.8
 20
1766.58
  0
LINE
  5
2F0
330
17
100
AcDbEntity
  8
CONTENT
100
AcDbLine
 10
20.0
 20
1755.0
 30
0.0
 11
20.0
 21
2012.0
 31
0.0
  0
LINE
  5
2F1
330
17
100
AcDbEntity
  8
CONTENT
100
AcDbLine
 10
70.8
 20
1755.0
 30
0.0
 11
70.8
 21
2012.0
 31
0.0
  0
LINE
  5
2F2
330
17
100
AcDbEntity
  8
CONTENT
100
AcDbLine
 10
121.6
 20
1755.0
 30
0.0
 11
121.6
 21
2012.0
 31
0.0
  0
LINE
  5
2F3
330
17
100
AcDbEntity
  8
CONTENT
100
AcDbLine
 10
172.39999999999998
 20
1755.0
 30
0.0
 11
172.39999999999998
 21
2012.0
 31
0.0
  0
LINE
  5
2F4
330
17
100
AcDbEntity
  8
CONTENT
100
AcDbLine
 10
223.2
 20
1755.0
 30
0.0
 11
223.2
 21
2012.0
 31
0.0
  0
LINE
  5
2F5
330
17
100
AcDbEntity
  8
CONTENT
100
AcDbLine
 10
20.0
 20
1755.0
 30
0.0
 11
274.0
 21
1755.0
 31
0.0
  0
LINE
  5
2F6
330
17
100
AcDbEntity
  8
CONTENT
100
AcDbLine
 10
20.0
 20
1840.6666666666667
 30
0.0
 11
274.0
 21
1840.6666666666667
 31
0.0
  0
LINE
  5
2F7
330
17
100
AcDbEntity
  8
CONTENT
100
AcDbLine
 10
20.0
 20
1926.3333333333333
 30
0.0
 11
274.0
 21
1926.3333333333333
 31
0.0
  0
LWPOLYLINE
  5
2F8
330
17
100
AcDbEntity
  8
FRAME
100
AcDbPolyline
 90
5
 70
0
 10
470.0
 20
1735.0
 10
890.0
 20
1735.0
 10
890.0
 20
2032.0
 10
470.0
 20
2032.0
 10
470.0
 20
1735.0
  0
LWPOLYLINE
  5
2F9
330
17
100
AcDbEntity
  8
TITLE_BLOCK
100
AcDbPolyline
 90
5
 70
0
 10
764.0
 20
1735.0
 10
890.0
 20
1735.0
 10
890.0
 20
1794.4
 10
764.0
 20
1794.4
 10
764.0
 20
1735.0
  0
LINE
  5
2FA
330
17
100
AcDbEntity
  8
TITLE_LINES
100
AcDbLine
 10
764.0
 20
1749.85
 30
0.0
 11
890.0
 21
1749.85
 31
0.0
  0
LINE
  5
2FB
330
17
100
AcDbEntity
  8
TITLE_LINES
100
AcDbLine
 10
764.0
 20
1764.7
 30
0.0
 11
890.0
 21
1764.7
 31
0.0
  0
LINE
  5
2FC
330
17
100
AcDbEntity
  8
TITLE_LINES
100
AcDbLine
 10
764.0
 20
1779.55
 30
0.0
 11
890.0
 21
1779.55
 31
0.0
  0
LINE
  5
2FD
330
17
100
AcDbEntity
  8
TITLE_LINES
100
AcDbLine
 10
806.0
 20
1735.0
 30
0.0
 11
806.0
 21
1794.4
 31
0.0
  0
LINE
  5
2FE
330
17
100
AcDbEntity
  8
TITLE_LINES
100
AcDbLine
 10
848.0
 20
1735.0
 30
0.0
 11
848.0
 21
1794.4
 31
0.0
  0
TEXT
  5
2FF
330
17
100
AcDbEntity
  8
TEXT
100
AcDbText
 10
774.0
 20
1779.4
 30
0.0
 40
8.0
  1
S-06
100
AcDbText
  0
TEXT
  5
300
330
17
100
AcDbEntity
  8
TEXT
100
AcDbText
 10
774.0
 20
1759.4
 30
0.0
 40
8.0
  1
结构平面图
100
AcDbText
  0
TEXT
  5
301
330
17
100
AcDbEntity
  8
TEXT
100
AcDbText
 10
774.0
 20
1744.4
 30
0.0
 40
6.0
  1
1:100
100
AcDbText
  0
TEXT
  5
302
330
17
100
AcDbEntity
  8
TEXT
100
AcDbText
 10
814.4
 20
1779.4
 30
0.0
 40
6.0
  1
设计:
100
AcDbText
  0
TEXT
  5
303
330
17
100
AcDbEntity
  8
TEXT
100
AcDbText
 10
814.4
 20
1759.4
 30
0.0
 40
6.0
  1
审核:
100
AcDbText
  0
TEXT
  5
304
330
17
100
AcDbEntity
  8
TEXT
100
AcDbText
 10
852.2
 20
1779.4
 30
0.0
 40
6.0
  1
2024.05.28
100
AcDbText
  0
CIRCLE
  5
305
330
17
100
AcDbEntity
  8
SEAL
100
AcDbCircle
 10
864.8
 20
1752.82
 30
0.0
 40
15.0
  0
LWPOLYLINE
  5
306
330
17
100
AcDbEntity
  8
STAMP
100
AcDbPolyline
 90
5
 70
0
 10
854.8
 20
1766.58
 10
874.8
 20
1766.58
 10
874.8
 20
1786.58
 10
854.8
 20
1786.58
 10
854.8
 20
1766.58
  0
LINE
  5
307
330
17
100
AcDbEntity
  8
CONTENT
100
AcDbLine
 10
490.0
 20
1755.0
 30
0.0
 11
490.0
 21
2012.0
 31
0.0
  0
LINE
  5
308
330
17
100
AcDbEntity
  8
CONTENT
100
AcDbLine
 10
540.8
 20
1755.0
 30
0.0
 11
540.8
 21
2012.0
 31
0.0
  0
LINE
  5
309
330
17
100
AcDbEntity
  8
CONTENT
100
AcDbLine
 10
591.6
 20
1755.0
 30
0.0
 11
591.6
 21
2012.0
 31
0.0
  0
LINE
  5
30A
330
17
100
AcDbEntity
  8
CONTENT
100
AcDbLine
 10
642.4
 20
1755.0
 30
0.0
 11
642.4
 21
2012.0
 31
0.0
  0
LINE
  5
30B
330
17
100
AcDbEntity
  8
CONTENT
100
AcDbLine
 10
693.2
 20
1755.0
 30
0.0
 11
693.2
 21
2012.0
 31
0.0
  0
LINE
  5
30C
330
17
100
AcDbEntity
  8
CONTENT
100
AcDbLine
 10
490.0
 20
1755.0
 30
0.0
 11
744.0
 21
1755.0
 31
0.0
  0
LINE
  5
30D
330
17
100
AcDbEntity
  8
CONTENT
100
AcDbLine
 10
490.0
 20
1840.6666666666667
 30
0.0
 11
744.0
 21
1840.6666666666667
 31
0.0
  0
LINE
  5
30E
330
17
100
AcDbEntity
  8
CONTENT
100
AcDbLine
 10
490.0
 20
1926.3333333333333
 30
0.0
 11
744.0
 21
1926.3333333333333
 31
0.0
  0
LWPOLYLINE
  5
30F
330
17
100
AcDbEntity
  8
FRAME
100
AcDbPolyline
 90
5
 70
0
 10
940.0
 20
1735.0
 10
1360.0
 20
1735.0
 10
1360.0
 20
2032.0
 10
940.0
 20
2032.0
 10
940.0
 20
1735.0
  0
LWPOLYLINE
  5
310
330
17
100
AcDbEntity
  8
TITLE_BLOCK
100
AcDbPolyline
 90
5
 70
0
 10
1234.0
 20
1735.0
 10
1360.0
 20
1735.0
 10
1360.0
 20
1794.4
 10
1234.0
 20
1794.4
 10
1234.0
 20
1735.0
  0
LINE
  5
311
330
17
100
AcDbEntity
  8
TITLE_LINES
100
AcDbLine
 10
1234.0
 20
1749.85
 30
0.0
 11
1360.0
 21
1749.85
 31
0.0
  0
LINE
  5
312
330
17
100
AcDbEntity
  8
TITLE_LINES
100
AcDbLine
 10
1234.0
 20
1764.7
 30
0.0
 11
1360.0
 21
1764.7
 31
0.0
  0
LINE
  5
313
330
17
100
AcDbEntity
  8
TITLE_LINES
100
AcDbLine
 10
1234.0
 20
1779.55
 30
0.0
 11
1360.0
 21
1779.55
 31
0.0
  0
LINE
  5
314
330
17
100
AcDbEntity
  8
TITLE_LINES
100
AcDbLine
 10
1276.0
 20
1735.0
 30
0.0
 11
1276.0
 21
1794.4
 31
0.0
  0
LINE
  5
315
330
17
100
AcDbEntity
  8
TITLE_LINES
100
AcDbLine
 10
1318.0
 20
1735.0
 30
0.0
 11
1318.0
 21
1794.4
 31
0.0
  0
TEXT
  5
316
330
17
100
AcDbEntity
  8
TEXT
100
AcDbText
 10
1244.0
 20
1779.4
 30
0.0
 40
8.0
  1
W-06
100
AcDbText
  0
TEXT
  5
317
330
17
100
AcDbEntity
  8
TEXT
100
AcDbText
 10
1244.0
 20
1759.4
 30
0.0
 40
8.0
  1
给排水平面图
100
AcDbText
  0
TEXT
  5
318
330
17
100
AcDbEntity
  8
TEXT
100
AcDbText
 10
1244.0
 20
1744.4
 30
0.0
 40
6.0
  1
1:100
100
AcDbText
  0
TEXT
  5
319
330
17
100
AcDbEntity
  8
TEXT
100
AcDbText
 10
1284.4
 20
1779.4
 30
0.0
 40
6.0
  1
设计:
100
AcDbText
  0
TEXT
  5
31A
330
17
100
AcDbEntity
  8
TEXT
100
AcDbText
 10
1284.4
 20
1759.4
 30
0.0
 40
6.0
  1
审核:
100
AcDbText
  0
TEXT
  5
31B
330
17
100
AcDbEntity
  8
TEXT
100
AcDbText
 10
1322.2
 20
1779.4
 30
0.0
 40
6.0
  1
2024.05.28
100
AcDbText
  0
CIRCLE
  5
31C
330
17
100
AcDbEntity
  8
SEAL
100
AcDbCircle
 10
1334.8
 20
1752.82
 30
0.0
 40
15.0
  0
LWPOLYLINE
  5
31D
330
17
100
AcDbEntity
  8
STAMP
100
AcDbPolyline
 90
5
 70
0
 10
1324.8
 20
1766.58
 10
1344.8
 20
1766.58
 10
1344.8
 20
1786.58
 10
1324.8
 20
1786.58
 10
1324.8
 20
1766.58
  0
LINE
  5
31E
330
17
100
AcDbEntity
  8
CONTENT
100
AcDbLine
 10
960.0
 20
1755.0
 30
0.0
 11
960.0
 21
2012.0
 31
0.0
  0
LINE
  5
31F
330
17
100
AcDbEntity
  8
CONTENT
100
AcDbLine
 10
1010.8
 20
1755.0
 30
0.0
 11
1010.8
 21
2012.0
 31
0.0
  0
LINE
  5
320
330
17
100
AcDbEntity
  8
CONTENT
100
AcDbLine
 10
1061.6
 20
1755.0
 30
0.0
 11
1061.6
 21
2012.0
 31
0.0
  0
LINE
  5
321
330
17
100
AcDbEntity
  8
CONTENT
100
AcDbLine
 10
1112.4
 20
1755.0
 30
0.0
 11
1112.4
 21
2012.0
 31
0.0
  0
LINE
  5
322
330
17
100
AcDbEntity
  8
CONTENT
100
AcDbLine
 10
1163.2
 20
1755.0
 30
0.0
 11
1163.2
 21
2012.0
 31
0.0
  0
LINE
  5
323
330
17
100
AcDbEntity
  8
CONTENT
100
AcDbLine
 10
960.0
 20
1755.0
 30
0.0
 11
1214.0
 21
1755.0
 31
0.0
  0
LINE
  5
324
330
17
100
AcDbEntity
  8
CONTENT
100
AcDbLine
 10
960.0
 20
1840.6666666666667
 30
0.0
 11
1214.0
 21
1840.6666666666667
 31
0.0
  0
LINE
  5
325
330
17
100
AcDbEntity
  8
CONTENT
100
AcDbLine
 10
960.0
 20
1926.3333333333333
 30
0.0
 11
1214.0
 21
1926.3333333333333
 31
0.0
  0
LWPOLYLINE
  5
326
330
17
100
AcDbEntity
  8
FRAME
100
AcDbPolyline
 90
5
 70
0
 10
1410.0
 20
1735.0
 10
1830.0
 20
1735.0
 10
1830.0
 20
2032.0
 10
1410.0
 20
2032.0
 10
1410.0
 20
1735.0
  0
LWPOLYLINE
  5
327
330
17
100
AcDbEntity
  8
TITLE_BLOCK
100
AcDbPolyline
 90
5
 70
0
 10
1704.0
 20
1735.0
 10
1830.0
 20
1735.0
 10
1830.0
 20
1794.4
 10
1704.0
 20
1794.4
 10
1704.0
 20
1735.0
  0
LINE
  5
328
330
17
100
AcDbEntity
  8
TITLE_LINES
100
AcDbLine
 10
1704.0
 20
1749.85
 30
0.0
 11
1830.0
 21
1749.85
 31
0.0
  0
LINE
  5
329
330
17
100
AcDbEntity
  8
TITLE_LINES
100
AcDbLine
 10
1704.0
 20
1764.7
 30
0.0
 11
1830.0
 21
1764.7
 31
0.0
  0
LINE
  5
32A
330
17
100
AcDbEntity
  8
TITLE_LINES
100
AcDbLine
 10
1704.0
 20
1779.55
 30
0.0
 11
1830.0
 21
1779.55
 31
0.0
  0
LINE
  5
32B
330
17
100
AcDbEntity
  8
TITLE_LINES
100
AcDbLine
 10
1746.0
 20
1735.0
 30
0.0
 11
1746.0
 21
1794.4
 31
0.0
  0
LINE
  5
32C
330
17
100
AcDbEntity
  8
TITLE_LINES
100
AcDbLine
 10
1788.0
 20
1735.0
 30
0.0
 11
1788.0
 21
1794.4
 31
0.0
  0
TEXT
  5
32D
330
17
100
AcDbEntity
  8
TEXT
100
AcDbText
 10
1714.0
 20
1779.4
 30
0.0
 40
8.0
  1
E-06
100
AcDbText
  0
TEXT
  5
32E
330
17
100
AcDbEntity
  8
TEXT
100
AcDbText
 10
1714.0
 20
1759.4
 30
0.0
 40
8.0
  1
电气平面图
100
AcDbText
  0
TEXT
  5
32F
330
17
100
AcDbEntity
  8
TEXT
100
AcDbText
 10
1714.0
 20
1744.4
 30
0.0
 40
6.0
  1
1:100
100
AcDbText
  0
TEXT
  5
330
330
17
100
AcDbEntity
  8
TEXT
100
AcDbText
 10
1754.4
 20
1779.4
 30
0.0
 40
6.0
  1
设计:
100
AcDbText
  0
TEXT
  5
331
330
17
100
AcDbEntity
  8
TEXT
100
AcDbText
 10
1754.4
 20
1759.4
 30
0.0
 40
6.0
  1
审核:
100
AcDbText
  0
TEXT
  5
332
330
17
100
AcDbEntity
  8
TEXT
100
AcDbText
 10
1792.2
 20
1779.4
 30
0.0
 40
6.0
  1
2024.05.28
100
AcDbText
  0
CIRCLE
  5
333
330
17
100
AcDbEntity
  8
SEAL
100
AcDbCircle
 10
1804.8
 20
1752.82
 30
0.0
 40
15.0
  0
LWPOLYLINE
  5
334
330
17
100
AcDbEntity
  8
STAMP
100
AcDbPolyline
 90
5
 70
0
 10
1794.8
 20
1766.58
 10
1814.8
 20
1766.58
 10
1814.8
 20
1786.58
 10
1794.8
 20
1786.58
 10
1794.8
 20
1766.58
  0
LINE
  5
335
330
17
100
AcDbEntity
  8
CONTENT
100
AcDbLine
 10
1430.0
 20
1755.0
 30
0.0
 11
1430.0
 21
2012.0
 31
0.0
  0
LINE
  5
336
330
17
100
AcDbEntity
  8
CONTENT
100
AcDbLine
 10
1480.8
 20
1755.0
 30
0.0
 11
1480.8
 21
2012.0
 31
0.0
  0
LINE
  5
337
330
17
100
AcDbEntity
  8
CONTENT
100
AcDbLine
 10
1531.6
 20
1755.0
 30
0.0
 11
1531.6
 21
2012.0
 31
0.0
  0
LINE
  5
338
330
17
100
AcDbEntity
  8
CONTENT
100
AcDbLine
 10
1582.4
 20
1755.0
 30
0.0
 11
1582.4
 21
2012.0
 31
0.0
  0
LINE
  5
339
330
17
100
AcDbEntity
  8
CONTENT
100
AcDbLine
 10
1633.2
 20
1755.0
 30
0.0
 11
1633.2
 21
2012.0
 31
0.0
  0
LINE
  5
33A
330
17
100
AcDbEntity
  8
CONTENT
100
AcDbLine
 10
1430.0
 20
1755.0
 30
0.0
 11
1684.0
 21
1755.0
 31
0.0
  0
LINE
  5
33B
330
17
100
AcDbEntity
  8
CONTENT
100
AcDbLine
 10
1430.0
 20
1840.6666666666667
 30
0.0
 11
1684.0
 21
1840.6666666666667
 31
0.0
  0
LINE
  5
33C
330
17
100
AcDbEntity
  8
CONTENT
100
AcDbLine
 10
1430.0
 20
1926.3333333333333
 30
0.0
 11
1684.0
 21
1926.3333333333333
 31
0.0
  0
LWPOLYLINE
  5
33D
330
17
100
AcDbEntity
  8
FRAME
100
AcDbPolyline
 90
5
 70
0
 10
1880.0
 20
1735.0
 10
2300.0
 20
1735.0
 10
2300.0
 20
2032.0
 10
1880.0
 20
2032.0
 10
1880.0
 20
1735.0
  0
LWPOLYLINE
  5
33E
330
17
100
AcDbEntity
  8
TITLE_BLOCK
100
AcDbPolyline
 90
5
 70
0
 10
2174.0
 20
1735.0
 10
2300.0
 20
1735.0
 10
2300.0
 20
1794.4
 10
2174.0
 20
1794.4
 10
2174.0
 20
1735.0
  0
LINE
  5
33F
330
17
100
AcDbEntity
  8
TITLE_LINES
100
AcDbLine
 10
2174.0
 20
1749.85
 30
0.0
 11
2300.0
 21
1749.85
 31
0.0
  0
LINE
  5
340
330
17
100
AcDbEntity
  8
TITLE_LINES
100
AcDbLine
 10
2174.0
 20
1764.7
 30
0.0
 11
2300.0
 21
1764.7
 31
0.0
  0
LINE
  5
341
330
17
100
AcDbEntity
  8
TITLE_LINES
100
AcDbLine
 10
2174.0
 20
1779.55
 30
0.0
 11
2300.0
 21
1779.55
 31
0.0
  0
LINE
  5
342
330
17
100
AcDbEntity
  8
TITLE_LINES
100
AcDbLine
 10
2216.0
 20
1735.0
 30
0.0
 11
2216.0
 21
1794.4
 31
0.0
  0
LINE
  5
343
330
17
100
AcDbEntity
  8
TITLE_LINES
100
AcDbLine
 10
2258.0
 20
1735.0
 30
0.0
 11
2258.0
 21
1794.4
 31
0.0
  0
TEXT
  5
344
330
17
100
AcDbEntity
  8
TEXT
100
AcDbText
 10
2184.0
 20
1779.4
 30
0.0
 40
8.0
  1
H-06
100
AcDbText
  0
TEXT
  5
345
330
17
100
AcDbEntity
  8
TEXT
100
AcDbText
 10
2184.0
 20
1759.4
 30
0.0
 40
8.0
  1
暖通平面图
100
AcDbText
  0
TEXT
  5
346
330
17
100
AcDbEntity
  8
TEXT
100
AcDbText
 10
2184.0
 20
1744.4
 30
0.0
 40
6.0
  1
1:100
100
AcDbText
  0
TEXT
  5
347
330
17
100
AcDbEntity
  8
TEXT
100
AcDbText
 10
2224.4
 20
1779.4
 30
0.0
 40
6.0
  1
设计:
100
AcDbText
  0
TEXT
  5
348
330
17
100
AcDbEntity
  8
TEXT
100
AcDbText
 10
2224.4
 20
1759.4
 30
0.0
 40
6.0
  1
审核:
100
AcDbText
  0
TEXT
  5
349
330
17
100
AcDbEntity
  8
TEXT
100
AcDbText
 10
2262.2
 20
1779.4
 30
0.0
 40
6.0
  1
2024.05.28
100
AcDbText
  0
CIRCLE
  5
34A
330
17
100
AcDbEntity
  8
SEAL
100
AcDbCircle
 10
2274.8
 20
1752.82
 30
0.0
 40
15.0
  0
LWPOLYLINE
  5
34B
330
17
100
AcDbEntity
  8
STAMP
100
AcDbPolyline
 90
5
 70
0
 10
2264.8
 20
1766.58
 10
2284.8
 20
1766.58
 10
2284.8
 20
1786.58
 10
2264.8
 20
1786.58
 10
2264.8
 20
1766.58
  0
LINE
  5
34C
330
17
100
AcDbEntity
  8
CONTENT
100
AcDbLine
 10
1900.0
 20
1755.0
 30
0.0
 11
1900.0
 21
2012.0
 31
0.0
  0
LINE
  5
34D
330
17
100
AcDbEntity
  8
CONTENT
100
AcDbLine
 10
1950.8
 20
1755.0
 30
0.0
 11
1950.8
 21
2012.0
 31
0.0
  0
LINE
  5
34E
330
17
100
AcDbEntity
  8
CONTENT
100
AcDbLine
 10
2001.6
 20
1755.0
 30
0.0
 11
2001.6
 21
2012.0
 31
0.0
  0
LINE
  5
34F
330
17
100
AcDbEntity
  8
CONTENT
100
AcDbLine
 10
2052.4
 20
1755.0
 30
0.0
 11
2052.4
 21
2012.0
 31
0.0
  0
LINE
  5
350
330
17
100
AcDbEntity
  8
CONTENT
100
AcDbLine
 10
2103.2
 20
1755.0
 30
0.0
 11
2103.2
 21
2012.0
 31
0.0
  0
LINE
  5
351
330
17
100
AcDbEntity
  8
CONTENT
100
AcDbLine
 10
1900.0
 20
1755.0
 30
0.0
 11
2154.0
 21
1755.0
 31
0.0
  0
LINE
  5
352
330
17
100
AcDbEntity
  8
CONTENT
100
AcDbLine
 10
1900.0
 20
1840.6666666666667
 30
0.0
 11
2154.0
 21
1840.6666666666667
 31
0.0
  0
LINE
  5
353
330
17
100
AcDbEntity
  8
CONTENT
100
AcDbLine
 10
1900.0
 20
1926.3333333333333
 30
0.0
 11
2154.0
 21
1926.3333333333333
 31
0.0
  0
LWPOLYLINE
  5
354
330
17
100
AcDbEntity
  8
FRAME
100
AcDbPolyline
 90
5
 70
0
 10
2350.0
 20
1735.0
 10
2770.0
 20
1735.0
 10
2770.0
 20
2032.0
 10
2350.0
 20
2032.0
 10
2350.0
 20
1735.0
  0
LWPOLYLINE
  5
355
330
17
100
AcDbEntity
  8
TITLE_BLOCK
100
AcDbPolyline
 90
5
 70
0
 10
2644.0
 20
1735.0
 10
2770.0
 20
1735.0
 10
2770.0
 20
1794.4
 10
2644.0
 20
1794.4
 10
2644.0
 20
1735.0
  0
LINE
  5
356
330
17
100
AcDbEntity
  8
TITLE_LINES
100
AcDbLine
 10
2644.0
 20
1749.85
 30
0.0
 11
2770.0
 21
1749.85
 31
0.0
  0
LINE
  5
357
330
17
100
AcDbEntity
  8
TITLE_LINES
100
AcDbLine
 10
2644.0
 20
1764.7
 30
0.0
 11
2770.0
 21
1764.7
 31
0.0
  0
LINE
  5
358
330
17
100
AcDbEntity
  8
TITLE_LINES
100
AcDbLine
 10
2644.0
 20
1779.55
 30
0.0
 11
2770.0
 21
1779.55
 31
0.0
  0
LINE
  5
359
330
17
100
AcDbEntity
  8
TITLE_LINES
100
AcDbLine
 10
2686.0
 20
1735.0
 30
0.0
 11
2686.0
 21
1794.4
 31
0.0
  0
LINE
  5
35A
330
17
100
AcDbEntity
  8
TITLE_LINES
100
AcDbLine
 10
2728.0
 20
1735.0
 30
0.0
 11
2728.0
 21
1794.4
 31
0.0
  0
TEXT
  5
35B
330
17
100
AcDbEntity
  8
TEXT
100
AcDbText
 10
2654.0
 20
1779.4
 30
0.0
 40
8.0
  1
D-06
100
AcDbText
  0
TEXT
  5
35C
330
17
100
AcDbEntity
  8
TEXT
100
AcDbText
 10
2654.0
 20
1759.4
 30
0.0
 40
8.0
  1
装修平面图
100
AcDbText
  0
TEXT
  5
35D
330
17
100
AcDbEntity
  8
TEXT
100
AcDbText
 10
2654.0
 20
1744.4
 30
0.0
 40
6.0
  1
1:100
100
AcDbText
  0
TEXT
  5
35E
330
17
100
AcDbEntity
  8
TEXT
100
AcDbText
 10
2694.4
 20
1779.4
 30
0.0
 40
6.0
  1
设计:
100
AcDbText
  0
TEXT
  5
35F
330
17
100
AcDbEntity
  8
TEXT
100
AcDbText
 10
2694.4
 20
1759.4
 30
0.0
 40
6.0
  1
审核:
100
AcDbText
  0
TEXT
  5
360
330
17
100
AcDbEntity
  8
TEXT
100
AcDbText
 10
2732.2
 20
1779.4
 30
0.0
 40
6.0
  1
2024.05.28
100
AcDbText
  0
CIRCLE
  5
361
330
17
100
AcDbEntity
  8
SEAL
100
AcDbCircle
 10
2744.8
 20
1752.82
 30
0.0
 40
15.0
  0
LWPOLYLINE
  5
362
330
17
100
AcDbEntity
  8
STAMP
100
AcDbPolyline
 90
5
 70
0
 10
2734.8
 20
1766.58
 10
2754.8
 20
1766.58
 10
2754.8
 20
1786.58
 10
2734.8
 20
1786.58
 10
2734.8
 20
1766.58
  0
LINE
  5
363
330
17
100
AcDbEntity
  8
CONTENT
100
AcDbLine
 10
2370.0
 20
1755.0
 30
0.0
 11
2370.0
 21
2012.0
 31
0.0
  0
LINE
  5
364
330
17
100
AcDbEntity
  8
CONTENT
100
AcDbLine
 10
2420.8
 20
1755.0
 30
0.0
 11
2420.8
 21
2012.0
 31
0.0
  0
LINE
  5
365
330
17
100
AcDbEntity
  8
CONTENT
100
AcDbLine
 10
2471.6
 20
1755.0
 30
0.0
 11
2471.6
 21
2012.0
 31
0.0
  0
LINE
  5
366
330
17
100
AcDbEntity
  8
CONTENT
100
AcDbLine
 10
2522.4
 20
1755.0
 30
0.0
 11
2522.4
 21
2012.0
 31
0.0
  0
LINE
  5
367
330
17
100
AcDbEntity
  8
CONTENT
100
AcDbLine
 10
2573.2
 20
1755.0
 30
0.0
 11
2573.2
 21
2012.0
 31
0.0
  0
LINE
  5
368
330
17
100
AcDbEntity
  8
CONTENT
100
AcDbLine
 10
2370.0
 20
1755.0
 30
0.0
 11
2624.0
 21
1755.0
 31
0.0
  0
LINE
  5
369
330
17
100
AcDbEntity
  8
CONTENT
100
AcDbLine
 10
2370.0
 20
1840.6666666666667
 30
0.0
 11
2624.0
 21
1840.6666666666667
 31
0.0
  0
LINE
  5
36A
330
17
100
AcDbEntity
  8
CONTENT
100
AcDbLine
 10
2370.0
 20
1926.3333333333333
 30
0.0
 11
2624.0
 21
1926.3333333333333
 31
0.0
  0
LWPOLYLINE
  5
36B
330
17
100
AcDbEntity
  8
FRAME
100
AcDbPolyline
 90
5
 70
0
 10
0.0
 20
2082.0
 10
420.0
 20
2082.0
 10
420.0
 20
2379.0
 10
0.0
 20
2379.0
 10
0.0
 20
2082.0
  0
LWPOLYLINE
  5
36C
330
17
100
AcDbEntity
  8
TITLE_BLOCK
100
AcDbPolyline
 90
5
 70
0
 10
294.0
 20
2082.0
 10
420.0
 20
2082.0
 10
420.0
 20
2141.4
 10
294.0
 20
2141.4
 10
294.0
 20
2082.0
  0
LINE
  5
36D
330
17
100
AcDbEntity
  8
TITLE_LINES
100
AcDbLine
 10
294.0
 20
2096.85
 30
0.0
 11
420.0
 21
2096.85
 31
0.0
  0
LINE
  5
36E
330
17
100
AcDbEntity
  8
TITLE_LINES
100
AcDbLine
 10
294.0
 20
2111.7
 30
0.0
 11
420.0
 21
2111.7
 31
0.0
  0
LINE
  5
36F
330
17
100
AcDbEntity
  8
TITLE_LINES
100
AcDbLine
 10
294.0
 20
2126.55
 30
0.0
 11
420.0
 21
2126.55
 31
0.0
  0
LINE
  5
370
330
17
100
AcDbEntity
  8
TITLE_LINES
100
AcDbLine
 10
336.0
 20
2082.0
 30
0.0
 11
336.0
 21
2141.4
 31
0.0
  0
LINE
  5
371
330
17
100
AcDbEntity
  8
TITLE_LINES
100
AcDbLine
 10
378.0
 20
2082.0
 30
0.0
 11
378.0
 21
2141.4
 31
0.0
  0
TEXT
  5
372
330
17
100
AcDbEntity
  8
TEXT
100
AcDbText
 10
304.0
 20
2126.4
 30
0.0
 40
8.0
  1
A-07
100
AcDbText
  0
TEXT
  5
373
330
17
100
AcDbEntity
  8
TEXT
100
AcDbText
 10
304.0
 20
2106.4
 30
0.0
 40
8.0
  1
建筑平面图
100
AcDbText
  0
TEXT
  5
374
330
17
100
AcDbEntity
  8
TEXT
100
AcDbText
 10
304.0
 20
2091.4
 30
0.0
 40
6.0
  1
1:100
100
AcDbText
  0
TEXT
  5
375
330
17
100
AcDbEntity
  8
TEXT
100
AcDbText
 10
344.4
 20
2126.4
 30
0.0
 40
6.0
  1
设计:
100
AcDbText
  0
TEXT
  5
376
330
17
100
AcDbEntity
  8
TEXT
100
AcDbText
 10
344.4
 20
2106.4
 30
0.0
 40
6.0
  1
审核:
100
AcDbText
  0
TEXT
  5
377
330
17
100
AcDbEntity
  8
TEXT
100
AcDbText
 10
382.2
 20
2126.4
 30
0.0
 40
6.0
  1
2024.05.28
100
AcDbText
  0
CIRCLE
  5
378
330
17
100
AcDbEntity
  8
SEAL
100
AcDbCircle
 10
394.8
 20
2099.82
 30
0.0
 40
15.0
  0
LWPOLYLINE
  5
379
330
17
100
AcDbEntity
  8
STAMP
100
AcDbPolyline
 90
5
 70
0
 10
384.8
 20
2113.58
 10
404.8
 20
2113.58
 10
404.8
 20
2133.58
 10
384.8
 20
2133.58
 10
384.8
 20
2113.58
  0
LINE
  5
37A
330
17
100
AcDbEntity
  8
CONTENT
100
AcDbLine
 10
20.0
 20
2102.0
 30
0.0
 11
20.0
 21
2359.0
 31
0.0
  0
LINE
  5
37B
330
17
100
AcDbEntity
  8
CONTENT
100
AcDbLine
 10
70.8
 20
2102.0
 30
0.0
 11
70.8
 21
2359.0
 31
0.0
  0
LINE
  5
37C
330
17
100
AcDbEntity
  8
CONTENT
100
AcDbLine
 10
121.6
 20
2102.0
 30
0.0
 11
121.6
 21
2359.0
 31
0.0
  0
LINE
  5
37D
330
17
100
AcDbEntity
  8
CONTENT
100
AcDbLine
 10
172.39999999999998
 20
2102.0
 30
0.0
 11
172.39999999999998
 21
2359.0
 31
0.0
  0
LINE
  5
37E
330
17
100
AcDbEntity
  8
CONTENT
100
AcDbLine
 10
223.2
 20
2102.0
 30
0.0
 11
223.2
 21
2359.0
 31
0.0
  0
LINE
  5
37F
330
17
100
AcDbEntity
  8
CONTENT
100
AcDbLine
 10
20.0
 20
2102.0
 30
0.0
 11
274.0
 21
2102.0
 31
0.0
  0
LINE
  5
380
330
17
100
AcDbEntity
  8
CONTENT
100
AcDbLine
 10
20.0
 20
2187.6666666666665
 30
0.0
 11
274.0
 21
2187.6666666666665
 31
0.0
  0
LINE
  5
381
330
17
100
AcDbEntity
  8
CONTENT
100
AcDbLine
 10
20.0
 20
2273.3333333333335
 30
0.0
 11
274.0
 21
2273.3333333333335
 31
0.0
  0
LWPOLYLINE
  5
382
330
17
100
AcDbEntity
  8
FRAME
100
AcDbPolyline
 90
5
 70
0
 10
470.0
 20
2082.0
 10
890.0
 20
2082.0
 10
890.0
 20
2379.0
 10
470.0
 20
2379.0
 10
470.0
 20
2082.0
  0
LWPOLYLINE
  5
383
330
17
100
AcDbEntity
  8
TITLE_BLOCK
100
AcDbPolyline
 90
5
 70
0
 10
764.0
 20
2082.0
 10
890.0
 20
2082.0
 10
890.0
 20
2141.4
 10
764.0
 20
2141.4
 10
764.0
 20
2082.0
  0
LINE
  5
384
330
17
100
AcDbEntity
  8
TITLE_LINES
100
AcDbLine
 10
764.0
 20
2096.85
 30
0.0
 11
890.0
 21
2096.85
 31
0.0
  0
LINE
  5
385
330
17
100
AcDbEntity
  8
TITLE_LINES
100
AcDbLine
 10
764.0
 20
2111.7
 30
0.0
 11
890.0
 21
2111.7
 31
0.0
  0
LINE
  5
386
330
17
100
AcDbEntity
  8
TITLE_LINES
100
AcDbLine
 10
764.0
 20
2126.55
 30
0.0
 11
890.0
 21
2126.55
 31
0.0
  0
LINE
  5
387
330
17
100
AcDbEntity
  8
TITLE_LINES
100
AcDbLine
 10
806.0
 20
2082.0
 30
0.0
 11
806.0
 21
2141.4
 31
0.0
  0
LINE
  5
388
330
17
100
AcDbEntity
  8
TITLE_LINES
100
AcDbLine
 10
848.0
 20
2082.0
 30
0.0
 11
848.0
 21
2141.4
 31
0.0
  0
TEXT
  5
389
330
17
100
AcDbEntity
  8
TEXT
100
AcDbText
 10
774.0
 20
2126.4
 30
0.0
 40
8.0
  1
S-07
100
AcDbText
  0
TEXT
  5
38A
330
17
100
AcDbEntity
  8
TEXT
100
AcDbText
 10
774.0
 20
2106.4
 30
0.0
 40
8.0
  1
结构平面图
100
AcDbText
  0
TEXT
  5
38B
330
17
100
AcDbEntity
  8
TEXT
100
AcDbText
 10
774.0
 20
2091.4
 30
0.0
 40
6.0
  1
1:100
100
AcDbText
  0
TEXT
  5
38C
330
17
100
AcDbEntity
  8
TEXT
100
AcDbText
 10
814.4
 20
2126.4
 30
0.0
 40
6.0
  1
设计:
100
AcDbText
  0
TEXT
  5
38D
330
17
100
AcDbEntity
  8
TEXT
100
AcDbText
 10
814.4
 20
2106.4
 30
0.0
 40
6.0
  1
审核:
100
AcDbText
  0
TEXT
  5
38E
330
17
100
AcDbEntity
  8
TEXT
100
AcDbText
 10
852.2
 20
2126.4
 30
0.0
 40
6.0
  1
2024.05.28
100
AcDbText
  0
CIRCLE
  5
38F
330
17
100
AcDbEntity
  8
SEAL
100
AcDbCircle
 10
864.8
 20
2099.82
 30
0.0
 40
15.0
  0
LWPOLYLINE
  5
390
330
17
100
AcDbEntity
  8
STAMP
100
AcDbPolyline
 90
5
 70
0
 10
854.8
 20
2113.58
 10
874.8
 20
2113.58
 10
874.8
 20
2133.58
 10
854.8
 20
2133.58
 10
854.8
 20
2113.58
  0
LINE
  5
391
330
17
100
AcDbEntity
  8
CONTENT
100
AcDbLine
 10
490.0
 20
2102.0
 30
0.0
 11
490.0
 21
2359.0
 31
0.0
  0
LINE
  5
392
330
17
100
AcDbEntity
  8
CONTENT
100
AcDbLine
 10
540.8
 20
2102.0
 30
0.0
 11
540.8
 21
2359.0
 31
0.0
  0
LINE
  5
393
330
17
100
AcDbEntity
  8
CONTENT
100
AcDbLine
 10
591.6
 20
2102.0
 30
0.0
 11
591.6
 21
2359.0
 31
0.0
  0
LINE
  5
394
330
17
100
AcDbEntity
  8
CONTENT
100
AcDbLine
 10
642.4
 20
2102.0
 30
0.0
 11
642.4
 21
2359.0
 31
0.0
  0
LINE
  5
395
330
17
100
AcDbEntity
  8
CONTENT
100
AcDbLine
 10
693.2
 20
2102.0
 30
0.0
 11
693.2
 21
2359.0
 31
0.0
  0
LINE
  5
396
330
17
100
AcDbEntity
  8
CONTENT
100
AcDbLine
 10
490.0
 20
2102.0
 30
0.0
 11
744.0
 21
2102.0
 31
0.0
  0
LINE
  5
397
330
17
100
AcDbEntity
  8
CONTENT
100
AcDbLine
 10
490.0
 20
2187.6666666666665
 30
0.0
 11
744.0
 21
2187.6666666666665
 31
0.0
  0
LINE
  5
398
330
17
100
AcDbEntity
  8
CONTENT
100
AcDbLine
 10
490.0
 20
2273.3333333333335
 30
0.0
 11
744.0
 21
2273.3333333333335
 31
0.0
  0
LWPOLYLINE
  5
399
330
17
100
AcDbEntity
  8
FRAME
100
AcDbPolyline
 90
5
 70
0
 10
940.0
 20
2082.0
 10
1360.0
 20
2082.0
 10
1360.0
 20
2379.0
 10
940.0
 20
2379.0
 10
940.0
 20
2082.0
  0
LWPOLYLINE
  5
39A
330
17
100
AcDbEntity
  8
TITLE_BLOCK
100
AcDbPolyline
 90
5
 70
0
 10
1234.0
 20
2082.0
 10
1360.0
 20
2082.0
 10
1360.0
 20
2141.4
 10
1234.0
 20
2141.4
 10
1234.0
 20
2082.0
  0
LINE
  5
39B
330
17
100
AcDbEntity
  8
TITLE_LINES
100
AcDbLine
 10
1234.0
 20
2096.85
 30
0.0
 11
1360.0
 21
2096.85
 31
0.0
  0
LINE
  5
39C
330
17
100
AcDbEntity
  8
TITLE_LINES
100
AcDbLine
 10
1234.0
 20
2111.7
 30
0.0
 11
1360.0
 21
2111.7
 31
0.0
  0
LINE
  5
39D
330
17
100
AcDbEntity
  8
TITLE_LINES
100
AcDbLine
 10
1234.0
 20
2126.55
 30
0.0
 11
1360.0
 21
2126.55
 31
0.0
  0
LINE
  5
39E
330
17
100
AcDbEntity
  8
TITLE_LINES
100
AcDbLine
 10
1276.0
 20
2082.0
 30
0.0
 11
1276.0
 21
2141.4
 31
0.0
  0
LINE
  5
39F
330
17
100
AcDbEntity
  8
TITLE_LINES
100
AcDbLine
 10
1318.0
 20
2082.0
 30
0.0
 11
1318.0
 21
2141.4
 31
0.0
  0
TEXT
  5
3A0
330
17
100
AcDbEntity
  8
TEXT
100
AcDbText
 10
1244.0
 20
2126.4
 30
0.0
 40
8.0
  1
W-07
100
AcDbText
  0
TEXT
  5
3A1
330
17
100
AcDbEntity
  8
TEXT
100
AcDbText
 10
1244.0
 20
2106.4
 30
0.0
 40
8.0
  1
给排水平面图
100
AcDbText
  0
TEXT
  5
3A2
330
17
100
AcDbEntity
  8
TEXT
100
AcDbText
 10
1244.0
 20
2091.4
 30
0.0
 40
6.0
  1
1:100
100
AcDbText
  0
TEXT
  5
3A3
330
17
100
AcDbEntity
  8
TEXT
100
AcDbText
 10
1284.4
 20
2126.4
 30
0.0
 40
6.0
  1
设计:
100
AcDbText
  0
TEXT
  5
3A4
330
17
100
AcDbEntity
  8
TEXT
100
AcDbText
 10
1284.4
 20
2106.4
 30
0.0
 40
6.0
  1
审核:
100
AcDbText
  0
TEXT
  5
3A5
330
17
100
AcDbEntity
  8
TEXT
100
AcDbText
 10
1322.2
 20
2126.4
 30
0.0
 40
6.0
  1
2024.05.28
100
AcDbText
  0
CIRCLE
  5
3A6
330
17
100
AcDbEntity
  8
SEAL
100
AcDbCircle
 10
1334.8
 20
2099.82
 30
0.0
 40
15.0
  0
LWPOLYLINE
  5
3A7
330
17
100
AcDbEntity
  8
STAMP
100
AcDbPolyline
 90
5
 70
0
 10
1324.8
 20
2113.58
 10
1344.8
 20
2113.58
 10
1344.8
 20
2133.58
 10
1324.8
 20
2133.58
 10
1324.8
 20
2113.58
  0
LINE
  5
3A8
330
17
100
AcDbEntity
  8
CONTENT
100
AcDbLine
 10
960.0
 20
2102.0
 30
0.0
 11
960.0
 21
2359.0
 31
0.0
  0
LINE
  5
3A9
330
17
100
AcDbEntity
  8
CONTENT
100
AcDbLine
 10
1010.8
 20
2102.0
 30
0.0
 11
1010.8
 21
2359.0
 31
0.0
  0
LINE
  5
3AA
330
17
100
AcDbEntity
  8
CONTENT
100
AcDbLine
 10
1061.6
 20
2102.0
 30
0.0
 11
1061.6
 21
2359.0
 31
0.0
  0
LINE
  5
3AB
330
17
100
AcDbEntity
  8
CONTENT
100
AcDbLine
 10
1112.4
 20
2102.0
 30
0.0
 11
1112.4
 21
2359.0
 31
0.0
  0
LINE
  5
3AC
330
17
100
AcDbEntity
  8
CONTENT
100
AcDbLine
 10
1163.2
 20
2102.0
 30
0.0
 11
1163.2
 21
2359.0
 31
0.0
  0
LINE
  5
3AD
330
17
100
AcDbEntity
  8
CONTENT
100
AcDbLine
 10
960.0
 20
2102.0
 30
0.0
 11
1214.0
 21
2102.0
 31
0.0
  0
LINE
  5
3AE
330
17
100
AcDbEntity
  8
CONTENT
100
AcDbLine
 10
960.0
 20
2187.6666666666665
 30
0.0
 11
1214.0
 21
2187.6666666666665
 31
0.0
  0
LINE
  5
3AF
330
17
100
AcDbEntity
  8
CONTENT
100
AcDbLine
 10
960.0
 20
2273.3333333333335
 30
0.0
 11
1214.0
 21
2273.3333333333335
 31
0.0
  0
LWPOLYLINE
  5
3B0
330
17
100
AcDbEntity
  8
FRAME
100
AcDbPolyline
 90
5
 70
0
 10
1410.0
 20
2082.0
 10
1830.0
 20
2082.0
 10
1830.0
 20
2379.0
 10
1410.0
 20
2379.0
 10
1410.0
 20
2082.0
  0
LWPOLYLINE
  5
3B1
330
17
100
AcDbEntity
  8
TITLE_BLOCK
100
AcDbPolyline
 90
5
 70
0
 10
1704.0
 20
2082.0
 10
1830.0
 20
2082.0
 10
1830.0
 20
2141.4
 10
1704.0
 20
2141.4
 10
1704.0
 20
2082.0
  0
LINE
  5
3B2
330
17
100
AcDbEntity
  8
TITLE_LINES
100
AcDbLine
 10
1704.0
 20
2096.85
 30
0.0
 11
1830.0
 21
2096.85
 31
0.0
  0
LINE
  5
3B3
330
17
100
AcDbEntity
  8
TITLE_LINES
100
AcDbLine
 10
1704.0
 20
2111.7
 30
0.0
 11
1830.0
 21
2111.7
 31
0.0
  0
LINE
  5
3B4
330
17
100
AcDbEntity
  8
TITLE_LINES
100
AcDbLine
 10
1704.0
 20
2126.55
 30
0.0
 11
1830.0
 21
2126.55
 31
0.0
  0
LINE
  5
3B5
330
17
100
AcDbEntity
  8
TITLE_LINES
100
AcDbLine
 10
1746.0
 20
2082.0
 30
0.0
 11
1746.0
 21
2141.4
 31
0.0
  0
LINE
  5
3B6
330
17
100
AcDbEntity
  8
TITLE_LINES
100
AcDbLine
 10
1788.0
 20
2082.0
 30
0.0
 11
1788.0
 21
2141.4
 31
0.0
  0
TEXT
  5
3B7
330
17
100
AcDbEntity
  8
TEXT
100
AcDbText
 10
1714.0
 20
2126.4
 30
0.0
 40
8.0
  1
E-07
100
AcDbText
  0
TEXT
  5
3B8
330
17
100
AcDbEntity
  8
TEXT
100
AcDbText
 10
1714.0
 20
2106.4
 30
0.0
 40
8.0
  1
电气平面图
100
AcDbText
  0
TEXT
  5
3B9
330
17
100
AcDbEntity
  8
TEXT
100
AcDbText
 10
1714.0
 20
2091.4
 30
0.0
 40
6.0
  1
1:100
100
AcDbText
  0
TEXT
  5
3BA
330
17
100
AcDbEntity
  8
TEXT
100
AcDbText
 10
1754.4
 20
2126.4
 30
0.0
 40
6.0
  1
设计:
100
AcDbText
  0
TEXT
  5
3BB
330
17
100
AcDbEntity
  8
TEXT
100
AcDbText
 10
1754.4
 20
2106.4
 30
0.0
 40
6.0
  1
审核:
100
AcDbText
  0
TEXT
  5
3BC
330
17
100
AcDbEntity
  8
TEXT
100
AcDbText
 10
1792.2
 20
2126.4
 30
0.0
 40
6.0
  1
2024.05.28
100
AcDbText
  0
CIRCLE
  5
3BD
330
17
100
AcDbEntity
  8
SEAL
100
AcDbCircle
 10
1804.8
 20
2099.82
 30
0.0
 40
15.0
  0
LWPOLYLINE
  5
3BE
330
17
100
AcDbEntity
  8
STAMP
100
AcDbPolyline
 90
5
 70
0
 10
1794.8
 20
2113.58
 10
1814.8
 20
2113.58
 10
1814.8
 20
2133.58
 10
1794.8
 20
2133.58
 10
1794.8
 20
2113.58
  0
LINE
  5
3BF
330
17
100
AcDbEntity
  8
CONTENT
100
AcDbLine
 10
1430.0
 20
2102.0
 30
0.0
 11
1430.0
 21
2359.0
 31
0.0
  0
LINE
  5
3C0
330
17
100
AcDbEntity
  8
CONTENT
100
AcDbLine
 10
1480.8
 20
2102.0
 30
0.0
 11
1480.8
 21
2359.0
 31
0.0
  0
LINE
  5
3C1
330
17
100
AcDbEntity
  8
CONTENT
100
AcDbLine
 10
1531.6
 20
2102.0
 30
0.0
 11
1531.6
 21
2359.0
 31
0.0
  0
LINE
  5
3C2
330
17
100
AcDbEntity
  8
CONTENT
100
AcDbLine
 10
1582.4
 20
2102.0
 30
0.0
 11
1582.4
 21
2359.0
 31
0.0
  0
LINE
  5
3C3
330
17
100
AcDbEntity
  8
CONTENT
100
AcDbLine
 10
1633.2
 20
2102.0
 30
0.0
 11
1633.2
 21
2359.0
 31
0.0
  0
LINE
  5
3C4
330
17
100
AcDbEntity
  8
CONTENT
100
AcDbLine
 10
1430.0
 20
2102.0
 30
0.0
 11
1684.0
 21
2102.0
 31
0.0
  0
LINE
  5
3C5
330
17
100
AcDbEntity
  8
CONTENT
100
AcDbLine
 10
1430.0
 20
2187.6666666666665
 30
0.0
 11
1684.0
 21
2187.6666666666665
 31
0.0
  0
LINE
  5
3C6
330
17
100
AcDbEntity
  8
CONTENT
100
AcDbLine
 10
1430.0
 20
2273.3333333333335
 30
0.0
 11
1684.0
 21
2273.3333333333335
 31
0.0
  0
LWPOLYLINE
  5
3C7
330
17
100
AcDbEntity
  8
FRAME
100
AcDbPolyline
 90
5
 70
0
 10
1880.0
 20
2082.0
 10
2300.0
 20
2082.0
 10
2300.0
 20
2379.0
 10
1880.0
 20
2379.0
 10
1880.0
 20
2082.0
  0
LWPOLYLINE
  5
3C8
330
17
100
AcDbEntity
  8
TITLE_BLOCK
100
AcDbPolyline
 90
5
 70
0
 10
2174.0
 20
2082.0
 10
2300.0
 20
2082.0
 10
2300.0
 20
2141.4
 10
2174.0
 20
2141.4
 10
2174.0
 20
2082.0
  0
LINE
  5
3C9
330
17
100
AcDbEntity
  8
TITLE_LINES
100
AcDbLine
 10
2174.0
 20
2096.85
 30
0.0
 11
2300.0
 21
2096.85
 31
0.0
  0
LINE
  5
3CA
330
17
100
AcDbEntity
  8
TITLE_LINES
100
AcDbLine
 10
2174.0
 20
2111.7
 30
0.0
 11
2300.0
 21
2111.7
 31
0.0
  0
LINE
  5
3CB
330
17
100
AcDbEntity
  8
TITLE_LINES
100
AcDbLine
 10
2174.0
 20
2126.55
 30
0.0
 11
2300.0
 21
2126.55
 31
0.0
  0
LINE
  5
3CC
330
17
100
AcDbEntity
  8
TITLE_LINES
100
AcDbLine
 10
2216.0
 20
2082.0
 30
0.0
 11
2216.0
 21
2141.4
 31
0.0
  0
LINE
  5
3CD
330
17
100
AcDbEntity
  8
TITLE_LINES
100
AcDbLine
 10
2258.0
 20
2082.0
 30
0.0
 11
2258.0
 21
2141.4
 31
0.0
  0
TEXT
  5
3CE
330
17
100
AcDbEntity
  8
TEXT
100
AcDbText
 10
2184.0
 20
2126.4
 30
0.0
 40
8.0
  1
H-07
100
AcDbText
  0
TEXT
  5
3CF
330
17
100
AcDbEntity
  8
TEXT
100
AcDbText
 10
2184.0
 20
2106.4
 30
0.0
 40
8.0
  1
暖通平面图
100
AcDbText
  0
TEXT
  5
3D0
330
17
100
AcDbEntity
  8
TEXT
100
AcDbText
 10
2184.0
 20
2091.4
 30
0.0
 40
6.0
  1
1:100
100
AcDbText
  0
TEXT
  5
3D1
330
17
100
AcDbEntity
  8
TEXT
100
AcDbText
 10
2224.4
 20
2126.4
 30
0.0
 40
6.0
  1
设计:
100
AcDbText
  0
TEXT
  5
3D2
330
17
100
AcDbEntity
  8
TEXT
100
AcDbText
 10
2224.4
 20
2106.4
 30
0.0
 40
6.0
  1
审核:
100
AcDbText
  0
TEXT
  5
3D3
330
17
100
AcDbEntity
  8
TEXT
100
AcDbText
 10
2262.2
 20
2126.4
 30
0.0
 40
6.0
  1
2024.05.28
100
AcDbText
  0
CIRCLE
  5
3D4
330
17
100
AcDbEntity
  8
SEAL
100
AcDbCircle
 10
2274.8
 20
2099.82
 30
0.0
 40
15.0
  0
LWPOLYLINE
  5
3D5
330
17
100
AcDbEntity
  8
STAMP
100
AcDbPolyline
 90
5
 70
0
 10
2264.8
 20
2113.58
 10
2284.8
 20
2113.58
 10
2284.8
 20
2133.58
 10
2264.8
 20
2133.58
 10
2264.8
 20
2113.58
  0
LINE
  5
3D6
330
17
100
AcDbEntity
  8
CONTENT
100
AcDbLine
 10
1900.0
 20
2102.0
 30
0.0
 11
1900.0
 21
2359.0
 31
0.0
  0
LINE
  5
3D7
330
17
100
AcDbEntity
  8
CONTENT
100
AcDbLine
 10
1950.8
 20
2102.0
 30
0.0
 11
1950.8
 21
2359.0
 31
0.0
  0
LINE
  5
3D8
330
17
100
AcDbEntity
  8
CONTENT
100
AcDbLine
 10
2001.6
 20
2102.0
 30
0.0
 11
2001.6
 21
2359.0
 31
0.0
  0
LINE
  5
3D9
330
17
100
AcDbEntity
  8
CONTENT
100
AcDbLine
 10
2052.4
 20
2102.0
 30
0.0
 11
2052.4
 21
2359.0
 31
0.0
  0
LINE
  5
3DA
330
17
100
AcDbEntity
  8
CONTENT
100
AcDbLine
 10
2103.2
 20
2102.0
 30
0.0
 11
2103.2
 21
2359.0
 31
0.0
  0
LINE
  5
3DB
330
17
100
AcDbEntity
  8
CONTENT
100
AcDbLine
 10
1900.0
 20
2102.0
 30
0.0
 11
2154.0
 21
2102.0
 31
0.0
  0
LINE
  5
3DC
330
17
100
AcDbEntity
  8
CONTENT
100
AcDbLine
 10
1900.0
 20
2187.6666666666665
 30
0.0
 11
2154.0
 21
2187.6666666666665
 31
0.0
  0
LINE
  5
3DD
330
17
100
AcDbEntity
  8
CONTENT
100
AcDbLine
 10
1900.0
 20
2273.3333333333335
 30
0.0
 11
2154.0
 21
2273.3333333333335
 31
0.0
  0
LWPOLYLINE
  5
3DE
330
17
100
AcDbEntity
  8
FRAME
100
AcDbPolyline
 90
5
 70
0
 10
2350.0
 20
2082.0
 10
2770.0
 20
2082.0
 10
2770.0
 20
2379.0
 10
2350.0
 20
2379.0
 10
2350.0
 20
2082.0
  0
LWPOLYLINE
  5
3DF
330
17
100
AcDbEntity
  8
TITLE_BLOCK
100
AcDbPolyline
 90
5
 70
0
 10
2644.0
 20
2082.0
 10
2770.0
 20
2082.0
 10
2770.0
 20
2141.4
 10
2644.0
 20
2141.4
 10
2644.0
 20
2082.0
  0
LINE
  5
3E0
330
17
100
AcDbEntity
  8
TITLE_LINES
100
AcDbLine
 10
2644.0
 20
2096.85
 30
0.0
 11
2770.0
 21
2096.85
 31
0.0
  0
LINE
  5
3E1
330
17
100
AcDbEntity
  8
TITLE_LINES
100
AcDbLine
 10
2644.0
 20
2111.7
 30
0.0
 11
2770.0
 21
2111.7
 31
0.0
  0
LINE
  5
3E2
330
17
100
AcDbEntity
  8
TITLE_LINES
100
AcDbLine
 10
2644.0
 20
2126.55
 30
0.0
 11
2770.0
 21
2126.55
 31
0.0
  0
LINE
  5
3E3
330
17
100
AcDbEntity
  8
TITLE_LINES
100
AcDbLine
 10
2686.0
 20
2082.0
 30
0.0
 11
2686.0
 21
2141.4
 31
0.0
  0
LINE
  5
3E4
330
17
100
AcDbEntity
  8
TITLE_LINES
100
AcDbLine
 10
2728.0
 20
2082.0
 30
0.0
 11
2728.0
 21
2141.4
 31
0.0
  0
TEXT
  5
3E5
330
17
100
AcDbEntity
  8
TEXT
100
AcDbText
 10
2654.0
 20
2126.4
 30
0.0
 40
8.0
  1
D-07
100
AcDbText
  0
TEXT
  5
3E6
330
17
100
AcDbEntity
  8
TEXT
100
AcDbText
 10
2654.0
 20
2106.4
 30
0.0
 40
8.0
  1
装修平面图
100
AcDbText
  0
TEXT
  5
3E7
330
17
100
AcDbEntity
  8
TEXT
100
AcDbText
 10
2654.0
 20
2091.4
 30
0.0
 40
6.0
  1
1:100
100
AcDbText
  0
TEXT
  5
3E8
330
17
100
AcDbEntity
  8
TEXT
100
AcDbText
 10
2694.4
 20
2126.4
 30
0.0
 40
6.0
  1
设计:
100
AcDbText
  0
TEXT
  5
3E9
330
17
100
AcDbEntity
  8
TEXT
100
AcDbText
 10
2694.4
 20
2106.4
 30
0.0
 40
6.0
  1
审核:
100
AcDbText
  0
TEXT
  5
3EA
330
17
100
AcDbEntity
  8
TEXT
100
AcDbText
 10
2732.2
 20
2126.4
 30
0.0
 40
6.0
  1
2024.05.28
100
AcDbText
  0
CIRCLE
  5
3EB
330
17
100
AcDbEntity
  8
SEAL
100
AcDbCircle
 10
2744.8
 20
2099.82
 30
0.0
 40
15.0
  0
LWPOLYLINE
  5
3EC
330
17
100
AcDbEntity
  8
STAMP
100
AcDbPolyline
 90
5
 70
0
 10
2734.8
 20
2113.58
 10
2754.8
 20
2113.58
 10
2754.8
 20
2133.58
 10
2734.8
 20
2133.58
 10
2734.8
 20
2113.58
  0
LINE
  5
3ED
330
17
100
AcDbEntity
  8
CONTENT
100
AcDbLine
 10
2370.0
 20
2102.0
 30
0.0
 11
2370.0
 21
2359.0
 31
0.0
  0
LINE
  5
3EE
330
17
100
AcDbEntity
  8
CONTENT
100
AcDbLine
 10
2420.8
 20
2102.0
 30
0.0
 11
2420.8
 21
2359.0
 31
0.0
  0
LINE
  5
3EF
330
17
100
AcDbEntity
  8
CONTENT
100
AcDbLine
 10
2471.6
 20
2102.0
 30
0.0
 11
2471.6
 21
2359.0
 31
0.0
  0
LINE
  5
3F0
330
17
100
AcDbEntity
  8
CONTENT
100
AcDbLine
 10
2522.4
 20
2102.0
 30
0.0
 11
2522.4
 21
2359.0
 31
0.0
  0
LINE
  5
3F1
330
17
100
AcDbEntity
  8
CONTENT
100
AcDbLine
 10
2573.2
 20
2102.0
 30
0.0
 11
2573.2
 21
2359.0
 31
0.0
  0
LINE
  5
3F2
330
17
100
AcDbEntity
  8
CONTENT
100
AcDbLine
 10
2370.0
 20
2102.0
 30
0.0
 11
2624.0
 21
2102.0
 31
0.0
  0
LINE
  5
3F3
330
17
100
AcDbEntity
  8
CONTENT
100
AcDbLine
 10
2370.0
 20
2187.6666666666665
 30
0.0
 11
2624.0
 21
2187.6666666666665
 31
0.0
  0
LINE
  5
3F4
330
17
100
AcDbEntity
  8
CONTENT
100
AcDbLine
 10
2370.0
 20
2273.3333333333335
 30
0.0
 11
2624.0
 21
2273.3333333333335
 31
0.0
  0
LWPOLYLINE
  5
3F5
330
17
100
AcDbEntity
  8
FRAME
100
AcDbPolyline
 90
5
 70
0
 10
0.0
 20
2429.0
 10
420.0
 20
2429.0
 10
420.0
 20
2726.0
 10
0.0
 20
2726.0
 10
0.0
 20
2429.0
  0
LWPOLYLINE
  5
3F6
330
17
100
AcDbEntity
  8
TITLE_BLOCK
100
AcDbPolyline
 90
5
 70
0
 10
294.0
 20
2429.0
 10
420.0
 20
2429.0
 10
420.0
 20
2488.4
 10
294.0
 20
2488.4
 10
294.0
 20
2429.0
  0
LINE
  5
3F7
330
17
100
AcDbEntity
  8
TITLE_LINES
100
AcDbLine
 10
294.0
 20
2443.85
 30
0.0
 11
420.0
 21
2443.85
 31
0.0
  0
LINE
  5
3F8
330
17
100
AcDbEntity
  8
TITLE_LINES
100
AcDbLine
 10
294.0
 20
2458.7
 30
0.0
 11
420.0
 21
2458.7
 31
0.0
  0
LINE
  5
3F9
330
17
100
AcDbEntity
  8
TITLE_LINES
100
AcDbLine
 10
294.0
 20
2473.55
 30
0.0
 11
420.0
 21
2473.55
 31
0.0
  0
LINE
  5
3FA
330
17
100
AcDbEntity
  8
TITLE_LINES
100
AcDbLine
 10
336.0
 20
2429.0
 30
0.0
 11
336.0
 21
2488.4
 31
0.0
  0
LINE
  5
3FB
330
17
100
AcDbEntity
  8
TITLE_LINES
100
AcDbLine
 10
378.0
 20
2429.0
 30
0.0
 11
378.0
 21
2488.4
 31
0.0
  0
TEXT
  5
3FC
330
17
100
AcDbEntity
  8
TEXT
100
AcDbText
 10
304.0
 20
2473.4
 30
0.0
 40
8.0
  1
A-08
100
AcDbText
  0
TEXT
  5
3FD
330
17
100
AcDbEntity
  8
TEXT
100
AcDbText
 10
304.0
 20
2453.4
 30
0.0
 40
8.0
  1
建筑平面图
100
AcDbText
  0
TEXT
  5
3FE
330
17
100
AcDbEntity
  8
TEXT
100
AcDbText
 10
304.0
 20
2438.4
 30
0.0
 40
6.0
  1
1:100
100
AcDbText
  0
TEXT
  5
3FF
330
17
100
AcDbEntity
  8
TEXT
100
AcDbText
 10
344.4
 20
2473.4
 30
0.0
 40
6.0
  1
设计:
100
AcDbText
  0
TEXT
  5
400
330
17
100
AcDbEntity
  8
TEXT
100
AcDbText
 10
344.4
 20
2453.4
 30
0.0
 40
6.0
  1
审核:
100
AcDbText
  0
TEXT
  5
401
330
17
100
AcDbEntity
  8
TEXT
100
AcDbText
 10
382.2
 20
2473.4
 30
0.0
 40
6.0
  1
2024.05.28
100
AcDbText
  0
CIRCLE
  5
402
330
17
100
AcDbEntity
  8
SEAL
100
AcDbCircle
 10
394.8
 20
2446.82
 30
0.0
 40
15.0
  0
LWPOLYLINE
  5
403
330
17
100
AcDbEntity
  8
STAMP
100
AcDbPolyline
 90
5
 70
0
 10
384.8
 20
2460.58
 10
404.8
 20
2460.58
 10
404.8
 20
2480.58
 10
384.8
 20
2480.58
 10
384.8
 20
2460.58
  0
LINE
  5
404
330
17
100
AcDbEntity
  8
CONTENT
100
AcDbLine
 10
20.0
 20
2449.0
 30
0.0
 11
20.0
 21
2706.0
 31
0.0
  0
LINE
  5
405
330
17
100
AcDbEntity
  8
CONTENT
100
AcDbLine
 10
70.8
 20
2449.0
 30
0.0
 11
70.8
 21
2706.0
 31
0.0
  0
LINE
  5
406
330
17
100
AcDbEntity
  8
CONTENT
100
AcDbLine
 10
121.6
 20
2449.0
 30
0.0
 11
121.6
 21
2706.0
 31
0.0
  0
LINE
  5
407
330
17
100
AcDbEntity
  8
CONTENT
100
AcDbLine
 10
172.39999999999998
 20
2449.0
 30
0.0
 11
172.39999999999998
 21
2706.0
 31
0.0
  0
LINE
  5
408
330
17
100
AcDbEntity
  8
CONTENT
100
AcDbLine
 10
223.2
 20
2449.0
 30
0.0
 11
223.2
 21
2706.0
 31
0.0
  0
LINE
  5
409
330
17
100
AcDbEntity
  8
CONTENT
100
AcDbLine
 10
20.0
 20
2449.0
 30
0.0
 11
274.0
 21
2449.0
 31
0.0
  0
LINE
  5
40A
330
17
100
AcDbEntity
  8
CONTENT
100
AcDbLine
 10
20.0
 20
2534.6666666666665
 30
0.0
 11
274.0
 21
2534.6666666666665
 31
0.0
  0
LINE
  5
40B
330
17
100
AcDbEntity
  8
CONTENT
100
AcDbLine
 10
20.0
 20
2620.3333333333335
 30
0.0
 11
274.0
 21
2620.3333333333335
 31
0.0
  0
LWPOLYLINE
  5
40C
330
17
100
AcDbEntity
  8
FRAME
100
AcDbPolyline
 90
5
 70
0
 10
470.0
 20
2429.0
 10
890.0
 20
2429.0
 10
890.0
 20
2726.0
 10
470.0
 20
2726.0
 10
470.0
 20
2429.0
  0
LWPOLYLINE
  5
40D
330
17
100
AcDbEntity
  8
TITLE_BLOCK
100
AcDbPolyline
 90
5
 70
0
 10
764.0
 20
2429.0
 10
890.0
 20
2429.0
 10
890.0
 20
2488.4
 10
764.0
 20
2488.4
 10
764.0
 20
2429.0
  0
LINE
  5
40E
330
17
100
AcDbEntity
  8
TITLE_LINES
100
AcDbLine
 10
764.0
 20
2443.85
 30
0.0
 11
890.0
 21
2443.85
 31
0.0
  0
LINE
  5
40F
330
17
100
AcDbEntity
  8
TITLE_LINES
100
AcDbLine
 10
764.0
 20
2458.7
 30
0.0
 11
890.0
 21
2458.7
 31
0.0
  0
LINE
  5
410
330
17
100
AcDbEntity
  8
TITLE_LINES
100
AcDbLine
 10
764.0
 20
2473.55
 30
0.0
 11
890.0
 21
2473.55
 31
0.0
  0
LINE
  5
411
330
17
100
AcDbEntity
  8
TITLE_LINES
100
AcDbLine
 10
806.0
 20
2429.0
 30
0.0
 11
806.0
 21
2488.4
 31
0.0
  0
LINE
  5
412
330
17
100
AcDbEntity
  8
TITLE_LINES
100
AcDbLine
 10
848.0
 20
2429.0
 30
0.0
 11
848.0
 21
2488.4
 31
0.0
  0
TEXT
  5
413
330
17
100
AcDbEntity
  8
TEXT
100
AcDbText
 10
774.0
 20
2473.4
 30
0.0
 40
8.0
  1
S-08
100
AcDbText
  0
TEXT
  5
414
330
17
100
AcDbEntity
  8
TEXT
100
AcDbText
 10
774.0
 20
2453.4
 30
0.0
 40
8.0
  1
结构平面图
100
AcDbText
  0
TEXT
  5
415
330
17
100
AcDbEntity
  8
TEXT
100
AcDbText
 10
774.0
 20
2438.4
 30
0.0
 40
6.0
  1
1:100
100
AcDbText
  0
TEXT
  5
416
330
17
100
AcDbEntity
  8
TEXT
100
AcDbText
 10
814.4
 20
2473.4
 30
0.0
 40
6.0
  1
设计:
100
AcDbText
  0
TEXT
  5
417
330
17
100
AcDbEntity
  8
TEXT
100
AcDbText
 10
814.4
 20
2453.4
 30
0.0
 40
6.0
  1
审核:
100
AcDbText
  0
TEXT
  5
418
330
17
100
AcDbEntity
  8
TEXT
100
AcDbText
 10
852.2
 20
2473.4
 30
0.0
 40
6.0
  1
2024.05.28
100
AcDbText
  0
CIRCLE
  5
419
330
17
100
AcDbEntity
  8
SEAL
100
AcDbCircle
 10
864.8
 20
2446.82
 30
0.0
 40
15.0
  0
LWPOLYLINE
  5
41A
330
17
100
AcDbEntity
  8
STAMP
100
AcDbPolyline
 90
5
 70
0
 10
854.8
 20
2460.58
 10
874.8
 20
2460.58
 10
874.8
 20
2480.58
 10
854.8
 20
2480.58
 10
854.8
 20
2460.58
  0
LINE
  5
41B
330
17
100
AcDbEntity
  8
CONTENT
100
AcDbLine
 10
490.0
 20
2449.0
 30
0.0
 11
490.0
 21
2706.0
 31
0.0
  0
LINE
  5
41C
330
17
100
AcDbEntity
  8
CONTENT
100
AcDbLine
 10
540.8
 20
2449.0
 30
0.0
 11
540.8
 21
2706.0
 31
0.0
  0
LINE
  5
41D
330
17
100
AcDbEntity
  8
CONTENT
100
AcDbLine
 10
591.6
 20
2449.0
 30
0.0
 11
591.6
 21
2706.0
 31
0.0
  0
LINE
  5
41E
330
17
100
AcDbEntity
  8
CONTENT
100
AcDbLine
 10
642.4
 20
2449.0
 30
0.0
 11
642.4
 21
2706.0
 31
0.0
  0
LINE
  5
41F
330
17
100
AcDbEntity
  8
CONTENT
100
AcDbLine
 10
693.2
 20
2449.0
 30
0.0
 11
693.2
 21
2706.0
 31
0.0
  0
LINE
  5
420
330
17
100
AcDbEntity
  8
CONTENT
100
AcDbLine
 10
490.0
 20
2449.0
 30
0.0
 11
744.0
 21
2449.0
 31
0.0
  0
LINE
  5
421
330
17
100
AcDbEntity
  8
CONTENT
100
AcDbLine
 10
490.0
 20
2534.6666666666665
 30
0.0
 11
744.0
 21
2534.6666666666665
 31
0.0
  0
LINE
  5
422
330
17
100
AcDbEntity
  8
CONTENT
100
AcDbLine
 10
490.0
 20
2620.3333333333335
 30
0.0
 11
744.0
 21
2620.3333333333335
 31
0.0
  0
LWPOLYLINE
  5
423
330
17
100
AcDbEntity
  8
FRAME
100
AcDbPolyline
 90
5
 70
0
 10
940.0
 20
2429.0
 10
1360.0
 20
2429.0
 10
1360.0
 20
2726.0
 10
940.0
 20
2726.0
 10
940.0
 20
2429.0
  0
LWPOLYLINE
  5
424
330
17
100
AcDbEntity
  8
TITLE_BLOCK
100
AcDbPolyline
 90
5
 70
0
 10
1234.0
 20
2429.0
 10
1360.0
 20
2429.0
 10
1360.0
 20
2488.4
 10
1234.0
 20
2488.4
 10
1234.0
 20
2429.0
  0
LINE
  5
425
330
17
100
AcDbEntity
  8
TITLE_LINES
100
AcDbLine
 10
1234.0
 20
2443.85
 30
0.0
 11
1360.0
 21
2443.85
 31
0.0
  0
LINE
  5
426
330
17
100
AcDbEntity
  8
TITLE_LINES
100
AcDbLine
 10
1234.0
 20
2458.7
 30
0.0
 11
1360.0
 21
2458.7
 31
0.0
  0
LINE
  5
427
330
17
100
AcDbEntity
  8
TITLE_LINES
100
AcDbLine
 10
1234.0
 20
2473.55
 30
0.0
 11
1360.0
 21
2473.55
 31
0.0
  0
LINE
  5
428
330
17
100
AcDbEntity
  8
TITLE_LINES
100
AcDbLine
 10
1276.0
 20
2429.0
 30
0.0
 11
1276.0
 21
2488.4
 31
0.0
  0
LINE
  5
429
330
17
100
AcDbEntity
  8
TITLE_LINES
100
AcDbLine
 10
1318.0
 20
2429.0
 30
0.0
 11
1318.0
 21
2488.4
 31
0.0
  0
TEXT
  5
42A
330
17
100
AcDbEntity
  8
TEXT
100
AcDbText
 10
1244.0
 20
2473.4
 30
0.0
 40
8.0
  1
W-08
100
AcDbText
  0
TEXT
  5
42B
330
17
100
AcDbEntity
  8
TEXT
100
AcDbText
 10
1244.0
 20
2453.4
 30
0.0
 40
8.0
  1
给排水平面图
100
AcDbText
  0
TEXT
  5
42C
330
17
100
AcDbEntity
  8
TEXT
100
AcDbText
 10
1244.0
 20
2438.4
 30
0.0
 40
6.0
  1
1:100
100
AcDbText
  0
TEXT
  5
42D
330
17
100
AcDbEntity
  8
TEXT
100
AcDbText
 10
1284.4
 20
2473.4
 30
0.0
 40
6.0
  1
设计:
100
AcDbText
  0
TEXT
  5
42E
330
17
100
AcDbEntity
  8
TEXT
100
AcDbText
 10
1284.4
 20
2453.4
 30
0.0
 40
6.0
  1
审核:
100
AcDbText
  0
TEXT
  5
42F
330
17
100
AcDbEntity
  8
TEXT
100
AcDbText
 10
1322.2
 20
2473.4
 30
0.0
 40
6.0
  1
2024.05.28
100
AcDbText
  0
CIRCLE
  5
430
330
17
100
AcDbEntity
  8
SEAL
100
AcDbCircle
 10
1334.8
 20
2446.82
 30
0.0
 40
15.0
  0
LWPOLYLINE
  5
431
330
17
100
AcDbEntity
  8
STAMP
100
AcDbPolyline
 90
5
 70
0
 10
1324.8
 20
2460.58
 10
1344.8
 20
2460.58
 10
1344.8
 20
2480.58
 10
1324.8
 20
2480.58
 10
1324.8
 20
2460.58
  0
LINE
  5
432
330
17
100
AcDbEntity
  8
CONTENT
100
AcDbLine
 10
960.0
 20
2449.0
 30
0.0
 11
960.0
 21
2706.0
 31
0.0
  0
LINE
  5
433
330
17
100
AcDbEntity
  8
CONTENT
100
AcDbLine
 10
1010.8
 20
2449.0
 30
0.0
 11
1010.8
 21
2706.0
 31
0.0
  0
LINE
  5
434
330
17
100
AcDbEntity
  8
CONTENT
100
AcDbLine
 10
1061.6
 20
2449.0
 30
0.0
 11
1061.6
 21
2706.0
 31
0.0
  0
LINE
  5
435
330
17
100
AcDbEntity
  8
CONTENT
100
AcDbLine
 10
1112.4
 20
2449.0
 30
0.0
 11
1112.4
 21
2706.0
 31
0.0
  0
LINE
  5
436
330
17
100
AcDbEntity
  8
CONTENT
100
AcDbLine
 10
1163.2
 20
2449.0
 30
0.0
 11
1163.2
 21
2706.0
 31
0.0
  0
LINE
  5
437
330
17
100
AcDbEntity
  8
CONTENT
100
AcDbLine
 10
960.0
 20
2449.0
 30
0.0
 11
1214.0
 21
2449.0
 31
0.0
  0
LINE
  5
438
330
17
100
AcDbEntity
  8
CONTENT
100
AcDbLine
 10
960.0
 20
2534.6666666666665
 30
0.0
 11
1214.0
 21
2534.6666666666665
 31
0.0
  0
LINE
  5
439
330
17
100
AcDbEntity
  8
CONTENT
100
AcDbLine
 10
960.0
 20
2620.3333333333335
 30
0.0
 11
1214.0
 21
2620.3333333333335
 31
0.0
  0
LWPOLYLINE
  5
43A
330
17
100
AcDbEntity
  8
FRAME
100
AcDbPolyline
 90
5
 70
0
 10
1410.0
 20
2429.0
 10
1830.0
 20
2429.0
 10
1830.0
 20
2726.0
 10
1410.0
 20
2726.0
 10
1410.0
 20
2429.0
  0
LWPOLYLINE
  5
43B
330
17
100
AcDbEntity
  8
TITLE_BLOCK
100
AcDbPolyline
 90
5
 70
0
 10
1704.0
 20
2429.0
 10
1830.0
 20
2429.0
 10
1830.0
 20
2488.4
 10
1704.0
 20
2488.4
 10
1704.0
 20
2429.0
  0
LINE
  5
43C
330
17
100
AcDbEntity
  8
TITLE_LINES
100
AcDbLine
 10
1704.0
 20
2443.85
 30
0.0
 11
1830.0
 21
2443.85
 31
0.0
  0
LINE
  5
43D
330
17
100
AcDbEntity
  8
TITLE_LINES
100
AcDbLine
 10
1704.0
 20
2458.7
 30
0.0
 11
1830.0
 21
2458.7
 31
0.0
  0
LINE
  5
43E
330
17
100
AcDbEntity
  8
TITLE_LINES
100
AcDbLine
 10
1704.0
 20
2473.55
 30
0.0
 11
1830.0
 21
2473.55
 31
0.0
  0
LINE
  5
43F
330
17
100
AcDbEntity
  8
TITLE_LINES
100
AcDbLine
 10
1746.0
 20
2429.0
 30
0.0
 11
1746.0
 21
2488.4
 31
0.0
  0
LINE
  5
440
330
17
100
AcDbEntity
  8
TITLE_LINES
100
AcDbLine
 10
1788.0
 20
2429.0
 30
0.0
 11
1788.0
 21
2488.4
 31
0.0
  0
TEXT
  5
441
330
17
100
AcDbEntity
  8
TEXT
100
AcDbText
 10
1714.0
 20
2473.4
 30
0.0
 40
8.0
  1
E-08
100
AcDbText
  0
TEXT
  5
442
330
17
100
AcDbEntity
  8
TEXT
100
AcDbText
 10
1714.0
 20
2453.4
 30
0.0
 40
8.0
  1
电气平面图
100
AcDbText
  0
TEXT
  5
443
330
17
100
AcDbEntity
  8
TEXT
100
AcDbText
 10
1714.0
 20
2438.4
 30
0.0
 40
6.0
  1
1:100
100
AcDbText
  0
TEXT
  5
444
330
17
100
AcDbEntity
  8
TEXT
100
AcDbText
 10
1754.4
 20
2473.4
 30
0.0
 40
6.0
  1
设计:
100
AcDbText
  0
TEXT
  5
445
330
17
100
AcDbEntity
  8
TEXT
100
AcDbText
 10
1754.4
 20
2453.4
 30
0.0
 40
6.0
  1
审核:
100
AcDbText
  0
TEXT
  5
446
330
17
100
AcDbEntity
  8
TEXT
100
AcDbText
 10
1792.2
 20
2473.4
 30
0.0
 40
6.0
  1
2024.05.28
100
AcDbText
  0
CIRCLE
  5
447
330
17
100
AcDbEntity
  8
SEAL
100
AcDbCircle
 10
1804.8
 20
2446.82
 30
0.0
 40
15.0
  0
LWPOLYLINE
  5
448
330
17
100
AcDbEntity
  8
STAMP
100
AcDbPolyline
 90
5
 70
0
 10
1794.8
 20
2460.58
 10
1814.8
 20
2460.58
 10
1814.8
 20
2480.58
 10
1794.8
 20
2480.58
 10
1794.8
 20
2460.58
  0
LINE
  5
449
330
17
100
AcDbEntity
  8
CONTENT
100
AcDbLine
 10
1430.0
 20
2449.0
 30
0.0
 11
1430.0
 21
2706.0
 31
0.0
  0
LINE
  5
44A
330
17
100
AcDbEntity
  8
CONTENT
100
AcDbLine
 10
1480.8
 20
2449.0
 30
0.0
 11
1480.8
 21
2706.0
 31
0.0
  0
LINE
  5
44B
330
17
100
AcDbEntity
  8
CONTENT
100
AcDbLine
 10
1531.6
 20
2449.0
 30
0.0
 11
1531.6
 21
2706.0
 31
0.0
  0
LINE
  5
44C
330
17
100
AcDbEntity
  8
CONTENT
100
AcDbLine
 10
1582.4
 20
2449.0
 30
0.0
 11
1582.4
 21
2706.0
 31
0.0
  0
LINE
  5
44D
330
17
100
AcDbEntity
  8
CONTENT
100
AcDbLine
 10
1633.2
 20
2449.0
 30
0.0
 11
1633.2
 21
2706.0
 31
0.0
  0
LINE
  5
44E
330
17
100
AcDbEntity
  8
CONTENT
100
AcDbLine
 10
1430.0
 20
2449.0
 30
0.0
 11
1684.0
 21
2449.0
 31
0.0
  0
LINE
  5
44F
330
17
100
AcDbEntity
  8
CONTENT
100
AcDbLine
 10
1430.0
 20
2534.6666666666665
 30
0.0
 11
1684.0
 21
2534.6666666666665
 31
0.0
  0
LINE
  5
450
330
17
100
AcDbEntity
  8
CONTENT
100
AcDbLine
 10
1430.0
 20
2620.3333333333335
 30
0.0
 11
1684.0
 21
2620.3333333333335
 31
0.0
  0
LWPOLYLINE
  5
451
330
17
100
AcDbEntity
  8
FRAME
100
AcDbPolyline
 90
5
 70
0
 10
1880.0
 20
2429.0
 10
2300.0
 20
2429.0
 10
2300.0
 20
2726.0
 10
1880.0
 20
2726.0
 10
1880.0
 20
2429.0
  0
LWPOLYLINE
  5
452
330
17
100
AcDbEntity
  8
TITLE_BLOCK
100
AcDbPolyline
 90
5
 70
0
 10
2174.0
 20
2429.0
 10
2300.0
 20
2429.0
 10
2300.0
 20
2488.4
 10
2174.0
 20
2488.4
 10
2174.0
 20
2429.0
  0
LINE
  5
453
330
17
100
AcDbEntity
  8
TITLE_LINES
100
AcDbLine
 10
2174.0
 20
2443.85
 30
0.0
 11
2300.0
 21
2443.85
 31
0.0
  0
LINE
  5
454
330
17
100
AcDbEntity
  8
TITLE_LINES
100
AcDbLine
 10
2174.0
 20
2458.7
 30
0.0
 11
2300.0
 21
2458.7
 31
0.0
  0
LINE
  5
455
330
17
100
AcDbEntity
  8
TITLE_LINES
100
AcDbLine
 10
2174.0
 20
2473.55
 30
0.0
 11
2300.0
 21
2473.55
 31
0.0
  0
LINE
  5
456
330
17
100
AcDbEntity
  8
TITLE_LINES
100
AcDbLine
 10
2216.0
 20
2429.0
 30
0.0
 11
2216.0
 21
2488.4
 31
0.0
  0
LINE
  5
457
330
17
100
AcDbEntity
  8
TITLE_LINES
100
AcDbLine
 10
2258.0
 20
2429.0
 30
0.0
 11
2258.0
 21
2488.4
 31
0.0
  0
TEXT
  5
458
330
17
100
AcDbEntity
  8
TEXT
100
AcDbText
 10
2184.0
 20
2473.4
 30
0.0
 40
8.0
  1
H-08
100
AcDbText
  0
TEXT
  5
459
330
17
100
AcDbEntity
  8
TEXT
100
AcDbText
 10
2184.0
 20
2453.4
 30
0.0
 40
8.0
  1
暖通平面图
100
AcDbText
  0
TEXT
  5
45A
330
17
100
AcDbEntity
  8
TEXT
100
AcDbText
 10
2184.0
 20
2438.4
 30
0.0
 40
6.0
  1
1:100
100
AcDbText
  0
TEXT
  5
45B
330
17
100
AcDbEntity
  8
TEXT
100
AcDbText
 10
2224.4
 20
2473.4
 30
0.0
 40
6.0
  1
设计:
100
AcDbText
  0
TEXT
  5
45C
330
17
100
AcDbEntity
  8
TEXT
100
AcDbText
 10
2224.4
 20
2453.4
 30
0.0
 40
6.0
  1
审核:
100
AcDbText
  0
TEXT
  5
45D
330
17
100
AcDbEntity
  8
TEXT
100
AcDbText
 10
2262.2
 20
2473.4
 30
0.0
 40
6.0
  1
2024.05.28
100
AcDbText
  0
CIRCLE
  5
45E
330
17
100
AcDbEntity
  8
SEAL
100
AcDbCircle
 10
2274.8
 20
2446.82
 30
0.0
 40
15.0
  0
LWPOLYLINE
  5
45F
330
17
100
AcDbEntity
  8
STAMP
100
AcDbPolyline
 90
5
 70
0
 10
2264.8
 20
2460.58
 10
2284.8
 20
2460.58
 10
2284.8
 20
2480.58
 10
2264.8
 20
2480.58
 10
2264.8
 20
2460.58
  0
LINE
  5
460
330
17
100
AcDbEntity
  8
CONTENT
100
AcDbLine
 10
1900.0
 20
2449.0
 30
0.0
 11
1900.0
 21
2706.0
 31
0.0
  0
LINE
  5
461
330
17
100
AcDbEntity
  8
CONTENT
100
AcDbLine
 10
1950.8
 20
2449.0
 30
0.0
 11
1950.8
 21
2706.0
 31
0.0
  0
LINE
  5
462
330
17
100
AcDbEntity
  8
CONTENT
100
AcDbLine
 10
2001.6
 20
2449.0
 30
0.0
 11
2001.6
 21
2706.0
 31
0.0
  0
LINE
  5
463
330
17
100
AcDbEntity
  8
CONTENT
100
AcDbLine
 10
2052.4
 20
2449.0
 30
0.0
 11
2052.4
 21
2706.0
 31
0.0
  0
LINE
  5
464
330
17
100
AcDbEntity
  8
CONTENT
100
AcDbLine
 10
2103.2
 20
2449.0
 30
0.0
 11
2103.2
 21
2706.0
 31
0.0
  0
LINE
  5
465
330
17
100
AcDbEntity
  8
CONTENT
100
AcDbLine
 10
1900.0
 20
2449.0
 30
0.0
 11
2154.0
 21
2449.0
 31
0.0
  0
LINE
  5
466
330
17
100
AcDbEntity
  8
CONTENT
100
AcDbLine
 10
1900.0
 20
2534.6666666666665
 30
0.0
 11
2154.0
 21
2534.6666666666665
 31
0.0
  0
LINE
  5
467
330
17
100
AcDbEntity
  8
CONTENT
100
AcDbLine
 10
1900.0
 20
2620.3333333333335
 30
0.0
 11
2154.0
 21
2620.3333333333335
 31
0.0
  0
LWPOLYLINE
  5
468
330
17
100
AcDbEntity
  8
FRAME
100
AcDbPolyline
 90
5
 70
0
 10
2350.0
 20
2429.0
 10
2770.0
 20
2429.0
 10
2770.0
 20
2726.0
 10
2350.0
 20
2726.0
 10
2350.0
 20
2429.0
  0
LWPOLYLINE
  5
469
330
17
100
AcDbEntity
  8
TITLE_BLOCK
100
AcDbPolyline
 90
5
 70
0
 10
2644.0
 20
2429.0
 10
2770.0
 20
2429.0
 10
2770.0
 20
2488.4
 10
2644.0
 20
2488.4
 10
2644.0
 20
2429.0
  0
LINE
  5
46A
330
17
100
AcDbEntity
  8
TITLE_LINES
100
AcDbLine
 10
2644.0
 20
2443.85
 30
0.0
 11
2770.0
 21
2443.85
 31
0.0
  0
LINE
  5
46B
330
17
100
AcDbEntity
  8
TITLE_LINES
100
AcDbLine
 10
2644.0
 20
2458.7
 30
0.0
 11
2770.0
 21
2458.7
 31
0.0
  0
LINE
  5
46C
330
17
100
AcDbEntity
  8
TITLE_LINES
100
AcDbLine
 10
2644.0
 20
2473.55
 30
0.0
 11
2770.0
 21
2473.55
 31
0.0
  0
LINE
  5
46D
330
17
100
AcDbEntity
  8
TITLE_LINES
100
AcDbLine
 10
2686.0
 20
2429.0
 30
0.0
 11
2686.0
 21
2488.4
 31
0.0
  0
LINE
  5
46E
330
17
100
AcDbEntity
  8
TITLE_LINES
100
AcDbLine
 10
2728.0
 20
2429.0
 30
0.0
 11
2728.0
 21
2488.4
 31
0.0
  0
TEXT
  5
46F
330
17
100
AcDbEntity
  8
TEXT
100
AcDbText
 10
2654.0
 20
2473.4
 30
0.0
 40
8.0
  1
D-08
100
AcDbText
  0
TEXT
  5
470
330
17
100
AcDbEntity
  8
TEXT
100
AcDbText
 10
2654.0
 20
2453.4
 30
0.0
 40
8.0
  1
装修平面图
100
AcDbText
  0
TEXT
  5
471
330
17
100
AcDbEntity
  8
TEXT
100
AcDbText
 10
2654.0
 20
2438.4
 30
0.0
 40
6.0
  1
1:100
100
AcDbText
  0
TEXT
  5
472
330
17
100
AcDbEntity
  8
TEXT
100
AcDbText
 10
2694.4
 20
2473.4
 30
0.0
 40
6.0
  1
设计:
100
AcDbText
  0
TEXT
  5
473
330
17
100
AcDbEntity
  8
TEXT
100
AcDbText
 10
2694.4
 20
2453.4
 30
0.0
 40
6.0
  1
审核:
100
AcDbText
  0
TEXT
  5
474
330
17
100
AcDbEntity
  8
TEXT
100
AcDbText
 10
2732.2
 20
2473.4
 30
0.0
 40
6.0
  1
2024.05.28
100
AcDbText
  0
CIRCLE
  5
475
330
17
100
AcDbEntity
  8
SEAL
100
AcDbCircle
 10
2744.8
 20
2446.82
 30
0.0
 40
15.0
  0
LWPOLYLINE
  5
476
330
17
100
AcDbEntity
  8
STAMP
100
AcDbPolyline
 90
5
 70
0
 10
2734.8
 20
2460.58
 10
2754.8
 20
2460.58
 10
2754.8
 20
2480.58
 10
2734.8
 20
2480.58
 10
2734.8
 20
2460.58
  0
LINE
  5
477
330
17
100
AcDbEntity
  8
CONTENT
100
AcDbLine
 10
2370.0
 20
2449.0
 30
0.0
 11
2370.0
 21
2706.0
 31
0.0
  0
LINE
  5
478
330
17
100
AcDbEntity
  8
CONTENT
100
AcDbLine
 10
2420.8
 20
2449.0
 30
0.0
 11
2420.8
 21
2706.0
 31
0.0
  0
LINE
  5
479
330
17
100
AcDbEntity
  8
CONTENT
100
AcDbLine
 10
2471.6
 20
2449.0
 30
0.0
 11
2471.6
 21
2706.0
 31
0.0
  0
LINE
  5
47A
330
17
100
AcDbEntity
  8
CONTENT
100
AcDbLine
 10
2522.4
 20
2449.0
 30
0.0
 11
2522.4
 21
2706.0
 31
0.0
  0
LINE
  5
47B
330
17
100
AcDbEntity
  8
CONTENT
100
AcDbLine
 10
2573.2
 20
2449.0
 30
0.0
 11
2573.2
 21
2706.0
 31
0.0
  0
LINE
  5
47C
330
17
100
AcDbEntity
  8
CONTENT
100
AcDbLine
 10
2370.0
 20
2449.0
 30
0.0
 11
2624.0
 21
2449.0
 31
0.0
  0
LINE
  5
47D
330
17
100
AcDbEntity
  8
CONTENT
100
AcDbLine
 10
2370.0
 20
2534.6666666666665
 30
0.0
 11
2624.0
 21
2534.6666666666665
 31
0.0
  0
LINE
  5
47E
330
17
100
AcDbEntity
  8
CONTENT
100
AcDbLine
 10
2370.0
 20
2620.3333333333335
 30
0.0
 11
2624.0
 21
2620.3333333333335
 31
0.0
  0
LWPOLYLINE
  5
47F
330
17
100
AcDbEntity
  8
DECORATION
100
AcDbPolyline
 90
5
 70
0
 10
100.0
 20
-100.0
 10
2000.0
 20
-100.0
 10
2000.0
 20
-50.0
 10
100.0
 20
-50.0
 10
100.0
 20
-100.0
  0
TEXT
  5
480
330
17
100
AcDbEntity
  8
TEXT
100
AcDbText
 10
1050.0
 20
-80.0
 30
0.0
 40
20.0
  1
某某工程建筑施工图
100
AcDbText
  0
LWPOLYLINE
  5
481
330
17
100
AcDbEntity
  8
DECORATION
100
AcDbPolyline
 90
5
 70
0
 10
-200.0
 20
500.0
 10
100.0
 20
500.0
 10
100.0
 20
1000.0
 10
-200.0
 20
1000.0
 10
-200.0
 20
500.0
  0
LWPOLYLINE
  5
482
330
17
100
AcDbEntity
  8
DECORATION
100
AcDbPolyline
 90
5
 70
0
 10
3000.0
 20
0.0
 10
3300.0
 20
0.0
 10
3300.0
 20
800.0
 10
3000.0
 20
800.0
 10
3000.0
 20
0.0
  0
ENDSEC
  0
SECTION
  2
OBJECTS
  0
DICTIONARY
  5
A
330
0
100
AcDbDictionary
280
0
281
1
  3
ACAD_COLOR
350
B
  3
ACAD_GROUP
350
C
  3
ACAD_LAYOUT
350
D
  3
ACAD_MATERIAL
350
E
  3
ACAD_MLEADERSTYLE
350
F
  3
ACAD_MLINESTYLE
350
10
  3
ACAD_PLOTSETTINGS
350
11
  3
ACAD_PLOTSTYLENAME
350
12
  3
ACAD_SCALELIST
350
14
  3
ACAD_TABLESTYLE
350
15
  3
ACAD_VISUALSTYLE
350
16
  3
EZDXF_META
350
2D
  0
DICTIONARY
  5
B
330
A
100
AcDbDictionary
280
0
281
1
  0
DICTIONARY
  5
C
330
A
100
AcDbDictionary
280
0
281
1
  0
DICTIONARY
  5
D
330
A
100
AcDbDictionary
280
0
281
1
  3
Model
350
1A
  3
Layout1
350
1E
  0
DICTIONARY
  5
E
330
A
100
AcDbDictionary
280
0
281
1
  3
ByBlock
350
1F
  3
ByLayer
350
20
  3
Global
350
21
  0
DICTIONARY
  5
F
330
A
100
AcDbDictionary
280
0
281
1
  3
Standard
350
2C
  0
DICTIONARY
  5
10
330
A
100
AcDbDictionary
280
0
281
1
  3
Standard
350
22
  0
DICTIONARY
  5
11
330
A
100
AcDbDictionary
280
0
281
1
  0
ACDBDICTIONARYWDFLT
  5
12
330
A
100
AcDbDictionary
280
0
281
1
  3
Normal
350
13
100
AcDbDictionaryWithDefault
340
13
  0
ACDBPLACEHOLDER
  5
13
330
12
  0
DICTIONARY
  5
14
330
A
100
AcDbDictionary
280
0
281
1
  0
DICTIONARY
  5
15
330
A
100
AcDbDictionary
280
0
281
1
  0
DICTIONARY
  5
16
330
A
100
AcDbDictionary
280
0
281
1
  0
LAYOUT
  5
1A
330
D
100
AcDbPlotSettings
  1

  2
Adobe PDF
  4
A3
  6

 40
7.5
 41
20.0
 42
7.5
 43
20.0
 44
420.0
 45
297.0
 46
0.0
 47
0.0
 48
0.0
 49
0.0
140
0.0
141
0.0
142
1.0
143
1.0
 70
1024
 72
1
 73
0
 74
5
  7

 75
16
 76
0
 77
2
 78
300
147
1.0
148
0.0
149
0.0
100
AcDbLayout
  1
Model
 70
1
 71
0
 10
0.0
 20
0.0
 11
420.0
 21
297.0
 12
0.0
 22
0.0
 32
0.0
 14
1e+20
 24
1e+20
 34
1e+20
 15
-1e+20
 25
-1e+20
 35
-1e+20
146
0.0
 13
0.0
 23
0.0
 33
0.0
 16
1.0
 26
0.0
 36
0.0
 17
0.0
 27
1.0
 37
0.0
 76
1
330
17
  0
LAYOUT
  5
1E
330
D
100
AcDbPlotSettings
  1

  2
Adobe PDF
  4
A3
  6

 40
7.5
 41
20.0
 42
7.5
 43
20.0
 44
420.0
 45
297.0
 46
0.0
 47
0.0
 48
0.0
 49
0.0
140
0.0
141
0.0
142
1.0
143
1.0
 70
0
 72
1
 73
0
 74
5
  7

 75
16
 76
0
 77
2
 78
300
147
1.0
148
0.0
149
0.0
100
AcDbLayout
  1
Layout1
 70
1
 71
1
 10
0.0
 20
0.0
 11
420.0
 21
297.0
 12
0.0
 22
0.0
 32
0.0
 14
1e+20
 24
1e+20
 34
1e+20
 15
-1e+20
 25
-1e+20
 35
-1e+20
146
0.0
 13
0.0
 23
0.0
 33
0.0
 16
1.0
 26
0.0
 36
0.0
 17
0.0
 27
1.0
 37
0.0
 76
1
330
1B
  0
MATERIAL
  5
1F
102
{ACAD_REACTORS
330
E
102
}
330
E
100
AcDbMaterial
  1
ByBlock
  2

 70
0
 40
1.0
 71
1
 41
1.0
 91
-1023410177
 42
1.0
 72
1
  3

 73
1
 74
1
 75
1
 44
0.5
 73
0
 45
1.0
 46
1.0
 77
1
  4

 78
1
 79
1
170
1
 48
1.0
171
1
  6

172
1
173
1
174
1
140
1.0
141
1.0
175
1
  7

176
1
177
1
178
1
143
1.0
179
1
  8

270
1
271
1
272
1
145
1.0
146
1.0
273
1
  9

274
1
275
1
276
1
 42
1.0
 72
1
  3

 73
1
 74
1
 75
1
 94
63
  0
MATERIAL
  5
20
102
{ACAD_REACTORS
330
E
102
}
330
E
100
AcDbMaterial
  1
ByLayer
  2

 70
0
 40
1.0
 71
1
 41
1.0
 91
-1023410177
 42
1.0
 72
1
  3

 73
1
 74
1
 75
1
 44
0.5
 73
0
 45
1.0
 46
1.0
 77
1
  4

 78
1
 79
1
170
1
 48
1.0
171
1
  6

172
1
173
1
174
1
140
1.0
141
1.0
175
1
  7

176
1
177
1
178
1
143
1.0
179
1
  8

270
1
271
1
272
1
145
1.0
146
1.0
273
1
  9

274
1
275
1
276
1
 42
1.0
 72
1
  3

 73
1
 74
1
 75
1
 94
63
  0
MATERIAL
  5
21
102
{ACAD_REACTORS
330
E
102
}
330
E
100
AcDbMaterial
  1
Global
  2

 70
0
 40
1.0
 71
1
 41
1.0
 91
-1023410177
 42
1.0
 72
1
  3

 73
1
 74
1
 75
1
 44
0.5
 73
0
 45
1.0
 46
1.0
 77
1
  4

 78
1
 79
1
170
1
 48
1.0
171
1
  6

172
1
173
1
174
1
140
1.0
141
1.0
175
1
  7

176
1
177
1
178
1
143
1.0
179
1
  8

270
1
271
1
272
1
145
1.0
146
1.0
273
1
  9

274
1
275
1
276
1
 42
1.0
 72
1
  3

 73
1
 74
1
 75
1
 94
63
  0
MLINESTYLE
  5
22
102
{ACAD_REACTORS
330
10
102
}
330
10
100
AcDbMlineStyle
  2
Standard
 70
0
  3

 62
256
 51
90.0
 52
90.0
 71
2
 49
0.5
 62
256
  6
BYLAYER
 49
-0.5
 62
256
  6
BYLAYER
  0
MLEADERSTYLE
  5
2C
102
{ACAD_REACTORS
330
F
102
}
330
F
100
AcDbMLeaderStyle
179
2
170
2
171
1
172
0
 90
2
 40
0.0
 41
0.0
173
1
 91
-1056964608
 92
-2
290
1
 42
2.0
291
1
 43
8.0
  3
Standard
 44
4.0
300

342
29
174
1
175
1
176
0
178
1
 93
-1056964608
 45
4.0
292
0
297
0
 46
4.0
 94
-1056964608
 47
1.0
 49
1.0
140
1.0
294
1
141
0.0
177
0
142
1.0
295
0
296
0
143
3.75
271
0
272
9
273
9
  0
DICTIONARY
  5
2D
330
A
100
AcDbDictionary
281
1
  3
CREATED_BY_EZDXF
350
2E
  3
WRITTEN_BY_EZDXF
350
485
  0
DICTIONARYVAR
  5
2E
330
2D
100
DictionaryVariables
280
0
  1
1.1.1 @ 2025-05-28T03:21:30.379851+00:00
  0
DICTIONARYVAR
  5
485
330
2D
100
DictionaryVariables
280
0
  1
1.1.1 @ 2025-05-28T03:21:30.478699+00:00
  0
ENDSEC
  0
EOF
